<?xml version="1.0" encoding="UTF-8" standalone="no"?>
<!-- Created with Inkscape (http://www.inkscape.org/) -->

<svg
   xmlns:dc="http://purl.org/dc/elements/1.1/"
   xmlns:cc="http://creativecommons.org/ns#"
   xmlns:rdf="http://www.w3.org/1999/02/22-rdf-syntax-ns#"
   xmlns:svg="http://www.w3.org/2000/svg"
   xmlns="http://www.w3.org/2000/svg"
   xmlns:sodipodi="http://sodipodi.sourceforge.net/DTD/sodipodi-0.dtd"
   xmlns:inkscape="http://www.inkscape.org/namespaces/inkscape"
   id="svg2"
   version="1.1"
   inkscape:version="0.91 r13725"
   xml:space="preserve"
   width="155.7"
   height="182.5"
   viewBox="0 0 155.7 182.5"
   sodipodi:docname="inkscape_template.svg"><metadata
     id="metadata8"><rdf:RDF><cc:Work
         rdf:about=""><dc:format>image/svg+xml</dc:format><dc:type
           rdf:resource="http://purl.org/dc/dcmitype/StillImage" /><dc:title></dc:title></cc:Work></rdf:RDF></metadata><defs
     id="defs6"><clipPath
       clipPathUnits="userSpaceOnUse"
       id="clipPath16"><path
         d="m 2.422,38.688 0,68.945 59.858,34.478 59.859,-34.478 0,-68.945 L 62.28,4.211 2.422,38.688 Z"
         id="path18"
         inkscape:connector-curvature="0" /></clipPath><radialGradient
       fx="0"
       fy="0"
       cx="0"
       cy="0"
       r="1"
       gradientUnits="userSpaceOnUse"
       gradientTransform="matrix(64.567177,0,0,-64.564835,65.073593,36.61673)"
       spreadMethod="pad"
       id="radialGradient24"><stop
         style="stop-opacity:1;stop-color:#cf8484"
         offset="0"
         id="stop26" /><stop
         style="stop-opacity:1;stop-color:#b02626"
         offset="1"
         id="stop28" /></radialGradient><clipPath
       clipPathUnits="userSpaceOnUse"
       id="clipPath44"><path
         d="m 0,146 124.56,0 0,-146 L 0,0 0,146 Z"
         id="path46"
         inkscape:connector-curvature="0" /></clipPath><clipPath
       clipPathUnits="userSpaceOnUse"
       id="clipPath196"><path
         d="m 79.288,86.078 c -1.013,0 -1.843,-0.83 -1.843,-1.843 l 0,0 c 0,-1.015 0.83,-1.844 1.843,-1.844 l 0,0 10.058,0 c 1.013,0 1.843,0.829 1.843,1.844 l 0,0 c 0,1.013 -0.83,1.843 -1.843,1.843 l 0,0 -10.058,0 z m -15.365,0 c -1.014,0 -1.844,-0.83 -1.844,-1.843 l 0,0 c 0,-1.015 0.83,-1.844 1.844,-1.844 l 0,0 8.964,0 c 1.015,0 1.845,0.829 1.845,1.844 l 0,0 c 0,1.013 -0.83,1.843 -1.845,1.843 l 0,0 -8.964,0 z m -17.551,0 c -1.014,0 -1.843,-0.83 -1.843,-1.843 l 0,0 c 0,-1.015 0.829,-1.844 1.843,-1.844 l 0,0 10.058,0 c 1.013,0 1.843,0.829 1.843,1.844 l 0,0 c 0,1.013 -0.83,1.843 -1.843,1.843 l 0,0 -10.058,0 z m -11.081,0 c -1.014,0 -1.844,-0.83 -1.844,-1.843 l 0,0 c 0,-1.015 0.83,-1.844 1.844,-1.844 l 0,0 4.681,0 c 1.014,0 1.844,0.829 1.844,1.844 l 0,0 c 0,1.013 -0.83,1.843 -1.844,1.843 l 0,0 -4.681,0 z m 42.971,-6.399 c -0.45,0 -0.817,-0.368 -0.817,-0.817 l 0,0 c 0,-0.449 0.367,-0.818 0.817,-0.818 l 0,0 11.987,0 c 0.45,0 0.817,0.369 0.817,0.818 l 0,0 c 0,0.449 -0.367,0.817 -0.817,0.817 l 0,0 -11.987,0 z m -15.038,0 c -0.449,0 -0.817,-0.368 -0.817,-0.817 l 0,0 c 0,-0.449 0.368,-0.818 0.817,-0.818 l 0,0 10.581,0 c 0.449,0 0.817,0.369 0.817,0.818 l 0,0 c 0,0.449 -0.368,0.817 -0.817,0.817 l 0,0 -10.581,0 z m -12.654,0 c -0.449,0 -0.817,-0.368 -0.817,-0.817 l 0,0 c 0,-0.449 0.368,-0.818 0.817,-0.818 l 0,0 6.836,0 c 0.449,0 0.817,0.369 0.817,0.818 l 0,0 c 0,0.449 -0.368,0.817 -0.817,0.817 l 0,0 -6.836,0 z m -16.382,0 c -0.449,0 -0.817,-0.368 -0.817,-0.817 l 0,0 c 0,-0.449 0.368,-0.818 0.817,-0.818 l 0,0 6.836,0 c 0.449,0 0.817,0.369 0.817,0.818 l 0,0 c 0,0.449 -0.368,0.817 -0.817,0.817 l 0,0 -6.836,0 z m 44.074,-3.12 c -0.45,0 -0.817,-0.367 -0.817,-0.817 l 0,0 c 0,-0.449 0.367,-0.817 0.817,-0.817 l 0,0 11.987,0 c 0.45,0 0.817,0.368 0.817,0.817 l 0,0 c 0,0.45 -0.367,0.817 -0.817,0.817 l 0,0 -11.987,0 z m -15.038,0 c -0.449,0 -0.817,-0.367 -0.817,-0.817 l 0,0 c 0,-0.449 0.368,-0.817 0.817,-0.817 l 0,0 10.581,0 c 0.449,0 0.817,0.368 0.817,0.817 l 0,0 c 0,0.45 -0.368,0.817 -0.817,0.817 l 0,0 -10.581,0 z m -17.878,0 c -0.45,0 -0.817,-0.367 -0.817,-0.817 l 0,0 c 0,-0.449 0.367,-0.817 0.817,-0.817 l 0,0 12.06,0 c 0.449,0 0.817,0.368 0.817,0.817 l 0,0 c 0,0.45 -0.368,0.817 -0.817,0.817 l 0,0 -12.06,0 z m -11.158,0 c -0.449,0 -0.817,-0.367 -0.817,-0.817 l 0,0 c 0,-0.449 0.368,-0.817 0.817,-0.817 l 0,0 6.836,0 c 0.449,0 0.817,0.368 0.817,0.817 l 0,0 c 0,0.45 -0.368,0.817 -0.817,0.817 l 0,0 -6.836,0 z m 44.074,-3.118 c -0.45,0 -0.817,-0.368 -0.817,-0.817 l 0,0 c 0,-0.45 0.367,-0.817 0.817,-0.817 l 0,0 11.987,0 c 0.45,0 0.817,0.367 0.817,0.817 l 0,0 c 0,0.449 -0.367,0.817 -0.817,0.817 l 0,0 -11.987,0 z m -15.038,0 c -0.449,0 -0.817,-0.368 -0.817,-0.817 l 0,0 c 0,-0.45 0.368,-0.817 0.817,-0.817 l 0,0 10.581,0 c 0.449,0 0.817,0.367 0.817,0.817 l 0,0 c 0,0.449 -0.368,0.817 -0.817,0.817 l 0,0 -10.581,0 z m -6.352,0 c -0.45,0 -0.817,-0.368 -0.817,-0.817 l 0,0 c 0,-0.45 0.367,-0.817 0.817,-0.817 l 0,0 0.534,0 c 0.449,0 0.817,0.367 0.817,0.817 l 0,0 c 0,0.449 -0.368,0.817 -0.817,0.817 l 0,0 -0.534,0 z m -22.684,0 c -0.449,0 -0.817,-0.368 -0.817,-0.817 l 0,0 c 0,-0.45 0.368,-0.817 0.817,-0.817 l 0,0 6.836,0 c 0.449,0 0.817,0.367 0.817,0.817 l 0,0 c 0,0.449 -0.368,0.817 -0.817,0.817 l 0,0 -6.836,0 z m 44.074,-3.119 c -0.45,0 -0.817,-0.368 -0.817,-0.818 l 0,0 c 0,-0.449 0.367,-0.817 0.817,-0.817 l 0,0 11.987,0 c 0.45,0 0.817,0.368 0.817,0.817 l 0,0 c 0,0.45 -0.367,0.818 -0.817,0.818 l 0,0 -11.987,0 z m -10.878,0 c -0.449,0 -0.817,-0.368 -0.817,-0.818 l 0,0 c 0,-0.449 0.368,-0.817 0.817,-0.817 l 0,0 6.421,0 c 0.449,0 0.817,0.368 0.817,0.817 l 0,0 c 0,0.45 -0.368,0.818 -0.817,0.818 l 0,0 -6.421,0 z m -12.68,0 c -0.45,0 -0.817,-0.368 -0.817,-0.818 l 0,0 c 0,-0.449 0.367,-0.817 0.817,-0.817 l 0,0 2.702,0 c 0.449,0 0.817,0.368 0.817,0.817 l 0,0 c 0,0.45 -0.368,0.818 -0.817,0.818 l 0,0 -2.702,0 z m -20.516,0 c -0.449,0 -0.817,-0.368 -0.817,-0.818 l 0,0 c 0,-0.449 0.368,-0.817 0.817,-0.817 l 0,0 6.836,0 c 0.449,0 0.817,0.368 0.817,0.817 l 0,0 c 0,0.45 -0.368,0.818 -0.817,0.818 l 0,0 -6.836,0 z m 44.197,-3.119 c -0.45,0 -0.818,-0.368 -0.818,-0.817 l 0,0 c 0,-0.45 0.368,-0.817 0.818,-0.817 l 0,0 11.987,0 c 0.45,0 0.817,0.367 0.817,0.817 l 0,0 c 0,0.449 -0.367,0.817 -0.817,0.817 l 0,0 -11.987,0 z m -15.051,0 c -0.449,0 -0.817,-0.368 -0.817,-0.817 l 0,0 c 0,-0.45 0.368,-0.817 0.817,-0.817 l 0,0 10.58,0 c 0.449,0 0.818,0.367 0.818,0.817 l 0,0 c 0,0.449 -0.369,0.817 -0.818,0.817 l 0,0 -10.58,0 z m -11.57,0 c -0.45,0 -0.817,-0.368 -0.817,-0.817 l 0,0 c 0,-0.45 0.367,-0.817 0.817,-0.817 l 0,0 5.717,0 c 0.45,0 0.817,0.367 0.817,0.817 l 0,0 c 0,0.449 -0.367,0.817 -0.817,0.817 l 0,0 -5.717,0 z m -17.499,0 c -0.45,0 -0.818,-0.368 -0.818,-0.817 l 0,0 c 0,-0.45 0.368,-0.817 0.818,-0.817 l 0,0 6.834,0 c 0.45,0 0.818,0.367 0.818,0.817 l 0,0 c 0,0.449 -0.368,0.817 -0.818,0.817 l 0,0 -6.834,0 z m 44.12,-3.119 c -0.45,0 -0.818,-0.369 -0.818,-0.818 l 0,0 c 0,-0.449 0.368,-0.817 0.818,-0.817 l 0,0 11.987,0 c 0.45,0 0.817,0.368 0.817,0.817 l 0,0 c 0,0.449 -0.367,0.818 -0.817,0.818 l 0,0 -11.987,0 z m -12.39,0 c -0.449,0 -0.817,-0.369 -0.817,-0.818 l 0,0 c 0,-0.449 0.368,-0.817 0.817,-0.817 l 0,0 7.919,0 c 0.449,0 0.818,0.368 0.818,0.817 l 0,0 c 0,0.449 -0.369,0.818 -0.818,0.818 l 0,0 -7.919,0 z m -8.781,0 c -0.449,0 -0.817,-0.369 -0.817,-0.818 l 0,0 c 0,-0.449 0.368,-0.817 0.817,-0.817 l 0,0 0.267,0 c 0.45,0 0.817,0.368 0.817,0.817 l 0,0 c 0,0.449 -0.367,0.818 -0.817,0.818 l 0,0 -0.267,0 z m -22.949,0 c -0.45,0 -0.818,-0.369 -0.818,-0.818 l 0,0 c 0,-0.449 0.368,-0.817 0.818,-0.817 l 0,0 6.834,0 c 0.45,0 0.818,0.368 0.818,0.817 l 0,0 c 0,0.449 -0.368,0.818 -0.818,0.818 l 0,0 -6.834,0 z m 44.12,-3.119 c -0.45,0 -0.818,-0.368 -0.818,-0.818 l 0,0 c 0,-0.449 0.368,-0.817 0.818,-0.817 l 0,0 11.987,0 c 0.45,0 0.817,0.368 0.817,0.817 l 0,0 c 0,0.45 -0.367,0.818 -0.817,0.818 l 0,0 -11.987,0 z m -14.507,0 c -0.45,0 -0.818,-0.368 -0.818,-0.818 l 0,0 c 0,-0.449 0.368,-0.817 0.818,-0.817 l 0,0 10.036,0 c 0.449,0 0.818,0.368 0.818,0.817 l 0,0 c 0,0.45 -0.369,0.818 -0.818,0.818 l 0,0 -10.036,0 z m -17.064,0 c -0.449,0 -0.817,-0.368 -0.817,-0.818 l 0,0 c 0,-0.449 0.368,-0.817 0.817,-0.817 l 0,0 10.667,0 c 0.45,0 0.817,0.368 0.817,0.817 l 0,0 c 0,0.45 -0.367,0.818 -0.817,0.818 l 0,0 -10.667,0 z m -12.549,0 c -0.45,0 -0.818,-0.368 -0.818,-0.818 l 0,0 c 0,-0.449 0.368,-0.817 0.818,-0.817 l 0,0 6.834,0 c 0.45,0 0.818,0.368 0.818,0.817 l 0,0 c 0,0.45 -0.368,0.818 -0.818,0.818 l 0,0 -6.834,0 z m 44.12,-3.119 c -0.45,0 -0.818,-0.368 -0.818,-0.817 l 0,0 c 0,-0.45 0.368,-0.818 0.818,-0.818 l 0,0 11.987,0 c 0.45,0 0.817,0.368 0.817,0.818 l 0,0 c 0,0.449 -0.367,0.817 -0.817,0.817 l 0,0 -11.987,0 z m -15.051,0 c -0.449,0 -0.817,-0.368 -0.817,-0.817 l 0,0 c 0,-0.45 0.368,-0.818 0.817,-0.818 l 0,0 10.58,0 c 0.449,0 0.818,0.368 0.818,0.818 l 0,0 c 0,0.449 -0.369,0.817 -0.818,0.817 l 0,0 -10.58,0 z m -11.769,0 c -0.45,0 -0.818,-0.368 -0.818,-0.817 l 0,0 c 0,-0.45 0.368,-0.818 0.818,-0.818 l 0,0 5.916,0 c 0.45,0 0.817,0.368 0.817,0.818 l 0,0 c 0,0.449 -0.367,0.817 -0.817,0.817 l 0,0 -5.916,0 z m -17.3,0 c -0.45,0 -0.818,-0.368 -0.818,-0.817 l 0,0 c 0,-0.45 0.368,-0.818 0.818,-0.818 l 0,0 6.834,0 c 0.45,0 0.818,0.368 0.818,0.818 l 0,0 c 0,0.449 -0.368,0.817 -0.818,0.817 l 0,0 -6.834,0 z"
         id="path198"
         inkscape:connector-curvature="0" /></clipPath><clipPath
       clipPathUnits="userSpaceOnUse"
       id="clipPath204"><path
         d="m -32768,32767 65535,0 0,-65535 -65535,0 0,65535 z"
         id="path206"
         inkscape:connector-curvature="0" /></clipPath><linearGradient
       x1="0"
       y1="0"
       x2="1"
       y2="0"
       gradientUnits="userSpaceOnUse"
       gradientTransform="matrix(0,29.86697,29.86697,0,62.280125,56.211143)"
       spreadMethod="pad"
       id="linearGradient208"><stop
         style="stop-opacity:0.2;stop-color:#ffffff"
         offset="0"
         id="stop210" /><stop
         style="stop-opacity:1;stop-color:#ffffff"
         offset="1"
         id="stop212" /></linearGradient><mask
       maskUnits="userSpaceOnUse"
       x="0"
       y="0"
       width="1"
       height="1"
       id="mask214"><g
         id="g216"><g
           clip-path="url(#clipPath204)"
           id="g218"><g
             id="g220"><g
               id="g222"><path
                 d="m -32768,32767 65535,0 0,-65535 -65535,0 0,65535 z"
                 style="fill:url(#linearGradient208);stroke:none"
                 id="path224"
                 inkscape:connector-curvature="0" /></g></g></g></g></mask><linearGradient
       x1="0"
       y1="0"
       x2="1"
       y2="0"
       gradientUnits="userSpaceOnUse"
       gradientTransform="matrix(0,29.86697,29.86697,0,62.280125,56.211143)"
       spreadMethod="pad"
       id="linearGradient230"><stop
         style="stop-opacity:1;stop-color:#ffffff"
         offset="0"
         id="stop232" /><stop
         style="stop-opacity:1;stop-color:#ffffff"
         offset="1"
         id="stop234" /></linearGradient><clipPath
       clipPathUnits="userSpaceOnUse"
       id="clipPath242"><path
         d="m 0,146 124.56,0 0,-146 L 0,0 0,146 Z"
         id="path244"
         inkscape:connector-curvature="0" /></clipPath></defs><sodipodi:namedview
     pagecolor="#ffffff"
     bordercolor="#666666"
     borderopacity="1"
     objecttolerance="10"
     gridtolerance="10"
     guidetolerance="10"
     inkscape:pageopacity="0"
     inkscape:pageshadow="2"
     inkscape:window-width="1291"
     inkscape:window-height="858"
     id="namedview4"
     showgrid="false"
     inkscape:zoom="2.5863014"
     inkscape:cx="50.566365"
     inkscape:cy="75.545513"
     inkscape:window-x="222"
     inkscape:window-y="48"
     inkscape:window-maximized="0"
     inkscape:current-layer="g10" /><g
     inkscape:groupmode="layer"
     id="layer4"
     inkscape:label="Background"
     style="display:inline"><g
       transform="matrix(1.25,0,0,-1.25,0,182.5)"
       clip-path="url(#clipPath16)"
       id="g14"><g
         id="g20"><g
           id="g22"><path
             inkscape:connector-curvature="0"
             id="path30"
             style="fill:url(#radialGradient24);stroke:none"
             d="m 2.422,38.688 0,68.945 59.858,34.478 59.859,-34.478 0,-68.945 L 62.28,4.211 2.422,38.688 Z" /></g></g></g></g><g
     id="g10"
     inkscape:groupmode="layer"
     inkscape:label="Border"
     transform="matrix(1.25,0,0,-1.25,0,182.5)"
     style="display:inline"><g
       id="g32"
       transform="translate(0,109.0332)"
       inkscape:export-filename="/Users/Luke/Downloads/title.png"
       inkscape:export-xdpi="300"
       inkscape:export-ydpi="300"><path
         d="m 0,0 0,-71.745 62.28,-35.872 62.28,35.872 L 124.56,0 62.28,35.872 0,0 Z m 4.844,-68.945 0,66.145 57.436,33.082 57.436,-33.082 0,-66.145 -57.436,-33.082 -57.436,33.082 z"
         style="fill:#e0acac;fill-opacity:1;fill-rule:nonzero;stroke:none"
         id="path34"
         inkscape:connector-curvature="0" /></g></g><g
     inkscape:groupmode="layer"
     id="layer3"
     inkscape:label="Bioconductor"
     style="display:inline"><g
       transform="matrix(1.25,0,0,-1.25,0,182.5)"
       id="g238"><g
         id="g240"
         clip-path="url(#clipPath242)"><text
           transform="matrix(0.86677474,0.49869985,0.49869985,-0.86677474,61.7652,8.9448)"
           style="font-variant:normal;font-weight:300;font-stretch:normal;font-size:4.00000095px;font-family:'Aller Light';-inkscape-font-specification:Aller-Light;writing-mode:lr-tb;fill:#ffffff;fill-opacity:1;fill-rule:nonzero;stroke:none"
           id="text246"><tspan
             x="0 2.7680008 5.5360017 8.1840029 8.7640028 10.884004 11.736004 13.792004 15.412405 17.468405 19.516405 21.616405 23.676407 25.356407 26.472408 28.528408 29.408409 29.988409 32.044411 33.16441 0 2.7680008 5.5360017 8.1840029 8.7640028 10.884004 11.736004 13.792004 15.412405 17.468405 19.516405 21.616405 23.676407 25.356407 26.472408 28.528408 29.408409 29.988409 32.044411 33.16441"
             y="0"
             sodipodi:role="line"
             id="tspan248">www.bioconductor.orgwww.bioconductor.org</tspan></text>
</g></g></g><g
     inkscape:groupmode="layer"
     id="layer2"
     inkscape:label="Logo"
     style="display:inline"><g
       transform="matrix(1.25,0,0,-1.25,0,182.5)"
       id="g192"><g
         id="g194"
         clip-path="url(#clipPath196)"><g
           id="g200"><g
             id="g202" /><g
             id="g226"
             mask="url(#mask214)"><g
               id="g228"><path
                 d="m 79.288,86.078 c -1.013,0 -1.843,-0.83 -1.843,-1.843 l 0,0 c 0,-1.015 0.83,-1.844 1.843,-1.844 l 0,0 10.058,0 c 1.013,0 1.843,0.829 1.843,1.844 l 0,0 c 0,1.013 -0.83,1.843 -1.843,1.843 l 0,0 -10.058,0 z m -15.365,0 c -1.014,0 -1.844,-0.83 -1.844,-1.843 l 0,0 c 0,-1.015 0.83,-1.844 1.844,-1.844 l 0,0 8.964,0 c 1.015,0 1.845,0.829 1.845,1.844 l 0,0 c 0,1.013 -0.83,1.843 -1.845,1.843 l 0,0 -8.964,0 z m -17.551,0 c -1.014,0 -1.843,-0.83 -1.843,-1.843 l 0,0 c 0,-1.015 0.829,-1.844 1.843,-1.844 l 0,0 10.058,0 c 1.013,0 1.843,0.829 1.843,1.844 l 0,0 c 0,1.013 -0.83,1.843 -1.843,1.843 l 0,0 -10.058,0 z m -11.081,0 c -1.014,0 -1.844,-0.83 -1.844,-1.843 l 0,0 c 0,-1.015 0.83,-1.844 1.844,-1.844 l 0,0 4.681,0 c 1.014,0 1.844,0.829 1.844,1.844 l 0,0 c 0,1.013 -0.83,1.843 -1.844,1.843 l 0,0 -4.681,0 z m 42.971,-6.399 c -0.45,0 -0.817,-0.368 -0.817,-0.817 l 0,0 c 0,-0.449 0.367,-0.818 0.817,-0.818 l 0,0 11.987,0 c 0.45,0 0.817,0.369 0.817,0.818 l 0,0 c 0,0.449 -0.367,0.817 -0.817,0.817 l 0,0 -11.987,0 z m -15.038,0 c -0.449,0 -0.817,-0.368 -0.817,-0.817 l 0,0 c 0,-0.449 0.368,-0.818 0.817,-0.818 l 0,0 10.581,0 c 0.449,0 0.817,0.369 0.817,0.818 l 0,0 c 0,0.449 -0.368,0.817 -0.817,0.817 l 0,0 -10.581,0 z m -12.654,0 c -0.449,0 -0.817,-0.368 -0.817,-0.817 l 0,0 c 0,-0.449 0.368,-0.818 0.817,-0.818 l 0,0 6.836,0 c 0.449,0 0.817,0.369 0.817,0.818 l 0,0 c 0,0.449 -0.368,0.817 -0.817,0.817 l 0,0 -6.836,0 z m -16.382,0 c -0.449,0 -0.817,-0.368 -0.817,-0.817 l 0,0 c 0,-0.449 0.368,-0.818 0.817,-0.818 l 0,0 6.836,0 c 0.449,0 0.817,0.369 0.817,0.818 l 0,0 c 0,0.449 -0.368,0.817 -0.817,0.817 l 0,0 -6.836,0 z m 44.074,-3.12 c -0.45,0 -0.817,-0.367 -0.817,-0.817 l 0,0 c 0,-0.449 0.367,-0.817 0.817,-0.817 l 0,0 11.987,0 c 0.45,0 0.817,0.368 0.817,0.817 l 0,0 c 0,0.45 -0.367,0.817 -0.817,0.817 l 0,0 -11.987,0 z m -15.038,0 c -0.449,0 -0.817,-0.367 -0.817,-0.817 l 0,0 c 0,-0.449 0.368,-0.817 0.817,-0.817 l 0,0 10.581,0 c 0.449,0 0.817,0.368 0.817,0.817 l 0,0 c 0,0.45 -0.368,0.817 -0.817,0.817 l 0,0 -10.581,0 z m -17.878,0 c -0.45,0 -0.817,-0.367 -0.817,-0.817 l 0,0 c 0,-0.449 0.367,-0.817 0.817,-0.817 l 0,0 12.06,0 c 0.449,0 0.817,0.368 0.817,0.817 l 0,0 c 0,0.45 -0.368,0.817 -0.817,0.817 l 0,0 -12.06,0 z m -11.158,0 c -0.449,0 -0.817,-0.367 -0.817,-0.817 l 0,0 c 0,-0.449 0.368,-0.817 0.817,-0.817 l 0,0 6.836,0 c 0.449,0 0.817,0.368 0.817,0.817 l 0,0 c 0,0.45 -0.368,0.817 -0.817,0.817 l 0,0 -6.836,0 z m 44.074,-3.118 c -0.45,0 -0.817,-0.368 -0.817,-0.817 l 0,0 c 0,-0.45 0.367,-0.817 0.817,-0.817 l 0,0 11.987,0 c 0.45,0 0.817,0.367 0.817,0.817 l 0,0 c 0,0.449 -0.367,0.817 -0.817,0.817 l 0,0 -11.987,0 z m -15.038,0 c -0.449,0 -0.817,-0.368 -0.817,-0.817 l 0,0 c 0,-0.45 0.368,-0.817 0.817,-0.817 l 0,0 10.581,0 c 0.449,0 0.817,0.367 0.817,0.817 l 0,0 c 0,0.449 -0.368,0.817 -0.817,0.817 l 0,0 -10.581,0 z m -6.352,0 c -0.45,0 -0.817,-0.368 -0.817,-0.817 l 0,0 c 0,-0.45 0.367,-0.817 0.817,-0.817 l 0,0 0.534,0 c 0.449,0 0.817,0.367 0.817,0.817 l 0,0 c 0,0.449 -0.368,0.817 -0.817,0.817 l 0,0 -0.534,0 z m -22.684,0 c -0.449,0 -0.817,-0.368 -0.817,-0.817 l 0,0 c 0,-0.45 0.368,-0.817 0.817,-0.817 l 0,0 6.836,0 c 0.449,0 0.817,0.367 0.817,0.817 l 0,0 c 0,0.449 -0.368,0.817 -0.817,0.817 l 0,0 -6.836,0 z m 44.074,-3.119 c -0.45,0 -0.817,-0.368 -0.817,-0.818 l 0,0 c 0,-0.449 0.367,-0.817 0.817,-0.817 l 0,0 11.987,0 c 0.45,0 0.817,0.368 0.817,0.817 l 0,0 c 0,0.45 -0.367,0.818 -0.817,0.818 l 0,0 -11.987,0 z m -10.878,0 c -0.449,0 -0.817,-0.368 -0.817,-0.818 l 0,0 c 0,-0.449 0.368,-0.817 0.817,-0.817 l 0,0 6.421,0 c 0.449,0 0.817,0.368 0.817,0.817 l 0,0 c 0,0.45 -0.368,0.818 -0.817,0.818 l 0,0 -6.421,0 z m -12.68,0 c -0.45,0 -0.817,-0.368 -0.817,-0.818 l 0,0 c 0,-0.449 0.367,-0.817 0.817,-0.817 l 0,0 2.702,0 c 0.449,0 0.817,0.368 0.817,0.817 l 0,0 c 0,0.45 -0.368,0.818 -0.817,0.818 l 0,0 -2.702,0 z m -20.516,0 c -0.449,0 -0.817,-0.368 -0.817,-0.818 l 0,0 c 0,-0.449 0.368,-0.817 0.817,-0.817 l 0,0 6.836,0 c 0.449,0 0.817,0.368 0.817,0.817 l 0,0 c 0,0.45 -0.368,0.818 -0.817,0.818 l 0,0 -6.836,0 z m 44.197,-3.119 c -0.45,0 -0.818,-0.368 -0.818,-0.817 l 0,0 c 0,-0.45 0.368,-0.817 0.818,-0.817 l 0,0 11.987,0 c 0.45,0 0.817,0.367 0.817,0.817 l 0,0 c 0,0.449 -0.367,0.817 -0.817,0.817 l 0,0 -11.987,0 z m -15.051,0 c -0.449,0 -0.817,-0.368 -0.817,-0.817 l 0,0 c 0,-0.45 0.368,-0.817 0.817,-0.817 l 0,0 10.58,0 c 0.449,0 0.818,0.367 0.818,0.817 l 0,0 c 0,0.449 -0.369,0.817 -0.818,0.817 l 0,0 -10.58,0 z m -11.57,0 c -0.45,0 -0.817,-0.368 -0.817,-0.817 l 0,0 c 0,-0.45 0.367,-0.817 0.817,-0.817 l 0,0 5.717,0 c 0.45,0 0.817,0.367 0.817,0.817 l 0,0 c 0,0.449 -0.367,0.817 -0.817,0.817 l 0,0 -5.717,0 z m -17.499,0 c -0.45,0 -0.818,-0.368 -0.818,-0.817 l 0,0 c 0,-0.45 0.368,-0.817 0.818,-0.817 l 0,0 6.834,0 c 0.45,0 0.818,0.367 0.818,0.817 l 0,0 c 0,0.449 -0.368,0.817 -0.818,0.817 l 0,0 -6.834,0 z m 44.12,-3.119 c -0.45,0 -0.818,-0.369 -0.818,-0.818 l 0,0 c 0,-0.449 0.368,-0.817 0.818,-0.817 l 0,0 11.987,0 c 0.45,0 0.817,0.368 0.817,0.817 l 0,0 c 0,0.449 -0.367,0.818 -0.817,0.818 l 0,0 -11.987,0 z m -12.39,0 c -0.449,0 -0.817,-0.369 -0.817,-0.818 l 0,0 c 0,-0.449 0.368,-0.817 0.817,-0.817 l 0,0 7.919,0 c 0.449,0 0.818,0.368 0.818,0.817 l 0,0 c 0,0.449 -0.369,0.818 -0.818,0.818 l 0,0 -7.919,0 z m -8.781,0 c -0.449,0 -0.817,-0.369 -0.817,-0.818 l 0,0 c 0,-0.449 0.368,-0.817 0.817,-0.817 l 0,0 0.267,0 c 0.45,0 0.817,0.368 0.817,0.817 l 0,0 c 0,0.449 -0.367,0.818 -0.817,0.818 l 0,0 -0.267,0 z m -22.949,0 c -0.45,0 -0.818,-0.369 -0.818,-0.818 l 0,0 c 0,-0.449 0.368,-0.817 0.818,-0.817 l 0,0 6.834,0 c 0.45,0 0.818,0.368 0.818,0.817 l 0,0 c 0,0.449 -0.368,0.818 -0.818,0.818 l 0,0 -6.834,0 z m 44.12,-3.119 c -0.45,0 -0.818,-0.368 -0.818,-0.818 l 0,0 c 0,-0.449 0.368,-0.817 0.818,-0.817 l 0,0 11.987,0 c 0.45,0 0.817,0.368 0.817,0.817 l 0,0 c 0,0.45 -0.367,0.818 -0.817,0.818 l 0,0 -11.987,0 z m -14.507,0 c -0.45,0 -0.818,-0.368 -0.818,-0.818 l 0,0 c 0,-0.449 0.368,-0.817 0.818,-0.817 l 0,0 10.036,0 c 0.449,0 0.818,0.368 0.818,0.817 l 0,0 c 0,0.45 -0.369,0.818 -0.818,0.818 l 0,0 -10.036,0 z m -17.064,0 c -0.449,0 -0.817,-0.368 -0.817,-0.818 l 0,0 c 0,-0.449 0.368,-0.817 0.817,-0.817 l 0,0 10.667,0 c 0.45,0 0.817,0.368 0.817,0.817 l 0,0 c 0,0.45 -0.367,0.818 -0.817,0.818 l 0,0 -10.667,0 z m -12.549,0 c -0.45,0 -0.818,-0.368 -0.818,-0.818 l 0,0 c 0,-0.449 0.368,-0.817 0.818,-0.817 l 0,0 6.834,0 c 0.45,0 0.818,0.368 0.818,0.817 l 0,0 c 0,0.45 -0.368,0.818 -0.818,0.818 l 0,0 -6.834,0 z m 44.12,-3.119 c -0.45,0 -0.818,-0.368 -0.818,-0.817 l 0,0 c 0,-0.45 0.368,-0.818 0.818,-0.818 l 0,0 11.987,0 c 0.45,0 0.817,0.368 0.817,0.818 l 0,0 c 0,0.449 -0.367,0.817 -0.817,0.817 l 0,0 -11.987,0 z m -15.051,0 c -0.449,0 -0.817,-0.368 -0.817,-0.817 l 0,0 c 0,-0.45 0.368,-0.818 0.817,-0.818 l 0,0 10.58,0 c 0.449,0 0.818,0.368 0.818,0.818 l 0,0 c 0,0.449 -0.369,0.817 -0.818,0.817 l 0,0 -10.58,0 z m -11.769,0 c -0.45,0 -0.818,-0.368 -0.818,-0.817 l 0,0 c 0,-0.45 0.368,-0.818 0.818,-0.818 l 0,0 5.916,0 c 0.45,0 0.817,0.368 0.817,0.818 l 0,0 c 0,0.449 -0.367,0.817 -0.817,0.817 l 0,0 -5.916,0 z m -17.3,0 c -0.45,0 -0.818,-0.368 -0.818,-0.817 l 0,0 c 0,-0.45 0.368,-0.818 0.818,-0.818 l 0,0 6.834,0 c 0.45,0 0.818,0.368 0.818,0.818 l 0,0 c 0,0.449 -0.368,0.817 -0.818,0.817 l 0,0 -6.834,0 z"
                 style="fill:url(#linearGradient230);stroke:none"
                 id="path236"
                 inkscape:connector-curvature="0" /></g></g></g></g></g><g
       transform="matrix(1.25,0,0,-1.25,0,182.5)"
       id="g40"><g
         id="g42"
         clip-path="url(#clipPath44)"><g
           id="g48"
           transform="translate(75.6149,50.1998)"><path
             d="m 0,0 -26.67,0 c -0.206,0 -0.383,-0.146 -0.422,-0.348 l -5.053,-26.13 c -0.025,-0.126 0.009,-0.257 0.09,-0.356 0.082,-0.099 0.204,-0.156 0.332,-0.156 l 36.776,0 c 0.129,0 0.251,0.057 0.332,0.156 0.082,0.099 0.115,0.23 0.091,0.356 L 0.422,-0.348 C 0.383,-0.146 0.206,0 0,0 m 0,-0.43 5.053,-26.13 -36.776,0 5.053,26.13 26.67,0"
             style="fill:#ffffff;fill-opacity:1;fill-rule:nonzero;stroke:none"
             id="path50"
             inkscape:connector-curvature="0" /></g><g
           id="g52"
           transform="translate(52.186,46.7468)"><path
             d="m 0,0 c -0.076,-0.544 -0.564,-0.991 -1.088,-0.991 -0.524,0 -0.875,0.447 -0.784,0.991 0.089,0.536 0.574,0.964 1.084,0.964 C -0.278,0.964 0.075,0.536 0,0"
             style="fill:#ffffff;fill-opacity:1;fill-rule:nonzero;stroke:none"
             id="path54"
             inkscape:connector-curvature="0" /></g><g
           id="g56"
           transform="translate(51.657,42.975)"><path
             d="m 0,0 c -0.084,-0.602 -0.601,-1.098 -1.153,-1.098 -0.552,0 -0.918,0.496 -0.817,1.098 0.098,0.593 0.612,1.067 1.148,1.067 C -0.285,1.067 0.083,0.593 0,0"
             style="fill:#ffffff;fill-opacity:1;fill-rule:nonzero;stroke:none"
             id="path58"
             inkscape:connector-curvature="0" /></g><g
           id="g60"
           transform="translate(51.0695,38.786)"><path
             d="m 0,0 c -0.094,-0.671 -0.644,-1.224 -1.227,-1.224 -0.583,0 -0.964,0.553 -0.852,1.224 0.109,0.66 0.656,1.187 1.221,1.187 C -0.292,1.187 0.093,0.66 0,0"
             style="fill:#ffffff;fill-opacity:1;fill-rule:nonzero;stroke:none"
             id="path62"
             inkscape:connector-curvature="0" /></g><g
           id="g64"
           transform="translate(50.4132,34.1065)"><path
             d="m 0,0 c -0.106,-0.753 -0.693,-1.372 -1.311,-1.372 -0.618,0 -1.015,0.619 -0.89,1.372 0.123,0.739 0.706,1.329 1.304,1.329 C -0.299,1.329 0.104,0.739 0,0"
             style="fill:#ffffff;fill-opacity:1;fill-rule:nonzero;stroke:none"
             id="path66"
             inkscape:connector-curvature="0" /></g><g
           id="g68"
           transform="translate(49.6753,28.845)"><path
             d="m 0,0 c -0.119,-0.849 -0.75,-1.55 -1.407,-1.55 -0.656,0 -1.072,0.701 -0.931,1.55 0.139,0.834 0.764,1.498 1.399,1.498 C -0.305,1.498 0.117,0.834 0,0"
             style="fill:#ffffff;fill-opacity:1;fill-rule:nonzero;stroke:none"
             id="path70"
             inkscape:connector-curvature="0" /></g><g
           id="g72"
           transform="translate(55.8627,46.7468)"><path
             d="m 0,0 c -0.048,-0.544 -0.513,-0.991 -1.037,-0.991 -0.524,0 -0.898,0.447 -0.835,0.991 0.061,0.536 0.524,0.964 1.034,0.964 C -0.328,0.964 0.048,0.536 0,0"
             style="fill:#ffffff;fill-opacity:1;fill-rule:nonzero;stroke:none"
             id="path74"
             inkscape:connector-curvature="0" /></g><g
           id="g76"
           transform="translate(55.5264,42.975)"><path
             d="m 0,0 c -0.054,-0.602 -0.545,-1.098 -1.097,-1.098 -0.552,0 -0.943,0.496 -0.873,1.098 0.068,0.593 0.557,1.067 1.094,1.067 C -0.34,1.067 0.053,0.593 0,0"
             style="fill:#ffffff;fill-opacity:1;fill-rule:nonzero;stroke:none"
             id="path78"
             inkscape:connector-curvature="0" /></g><g
           id="g80"
           transform="translate(55.1529,38.786)"><path
             d="m 0,0 c -0.06,-0.671 -0.582,-1.224 -1.165,-1.224 -0.583,0 -0.992,0.553 -0.914,1.224 0.076,0.66 0.595,1.187 1.161,1.187 C -0.353,1.187 0.059,0.66 0,0"
             style="fill:#ffffff;fill-opacity:1;fill-rule:nonzero;stroke:none"
             id="path82"
             inkscape:connector-curvature="0" /></g><g
           id="g84"
           transform="translate(54.7357,34.1065)"><path
             d="m 0,0 c -0.067,-0.753 -0.623,-1.372 -1.241,-1.372 -0.617,0 -1.047,0.619 -0.96,1.372 0.085,0.739 0.638,1.329 1.236,1.329 C -0.366,1.329 0.066,0.739 0,0"
             style="fill:#ffffff;fill-opacity:1;fill-rule:nonzero;stroke:none"
             id="path86"
             inkscape:connector-curvature="0" /></g><g
           id="g88"
           transform="translate(54.2666,28.845)"><path
             d="m 0,0 c -0.076,-0.849 -0.671,-1.55 -1.327,-1.55 -0.657,0 -1.109,0.701 -1.011,1.55 0.096,0.834 0.687,1.498 1.322,1.498 C -0.381,1.498 0.074,0.834 0,0"
             style="fill:#ffffff;fill-opacity:1;fill-rule:nonzero;stroke:none"
             id="path90"
             inkscape:connector-curvature="0" /></g><g
           id="g92"
           transform="translate(59.5395,46.7468)"><path
             d="m 0,0 c -0.021,-0.544 -0.463,-0.991 -0.987,-0.991 -0.524,0 -0.92,0.447 -0.885,0.991 0.034,0.536 0.475,0.964 0.985,0.964 C -0.377,0.964 0.02,0.536 0,0"
             style="fill:#ffffff;fill-opacity:1;fill-rule:nonzero;stroke:none"
             id="path94"
             inkscape:connector-curvature="0" /></g><g
           id="g96"
           transform="translate(59.3959,42.975)"><path
             d="m 0,0 c -0.023,-0.602 -0.489,-1.098 -1.041,-1.098 -0.552,0 -0.968,0.496 -0.929,1.098 0.038,0.593 0.503,1.067 1.039,1.067 C -0.394,1.067 0.023,0.593 0,0"
             style="fill:#ffffff;fill-opacity:1;fill-rule:nonzero;stroke:none"
             id="path98"
             inkscape:connector-curvature="0" /></g><g
           id="g100"
           transform="translate(59.2364,38.786)"><path
             d="m 0,0 c -0.026,-0.671 -0.519,-1.224 -1.102,-1.224 -0.583,0 -1.02,0.553 -0.977,1.224 0.042,0.66 0.534,1.187 1.1,1.187 C -0.413,1.187 0.025,0.66 0,0"
             style="fill:#ffffff;fill-opacity:1;fill-rule:nonzero;stroke:none"
             id="path102"
             inkscape:connector-curvature="0" /></g><g
           id="g104"
           transform="translate(59.0582,34.1065)"><path
             d="m 0,0 c -0.029,-0.753 -0.553,-1.372 -1.171,-1.372 -0.617,0 -1.078,0.619 -1.03,1.372 0.047,0.739 0.57,1.329 1.168,1.329 C -0.434,1.329 0.028,0.739 0,0"
             style="fill:#ffffff;fill-opacity:1;fill-rule:nonzero;stroke:none"
             id="path106"
             inkscape:connector-curvature="0" /></g><g
           id="g108"
           transform="translate(58.8578,28.845)"><path
             d="m 0,0 c -0.032,-0.849 -0.591,-1.55 -1.248,-1.55 -0.657,0 -1.144,0.701 -1.09,1.55 0.053,0.834 0.611,1.498 1.246,1.498 C -0.458,1.498 0.032,0.834 0,0"
             style="fill:#ffffff;fill-opacity:1;fill-rule:nonzero;stroke:none"
             id="path110"
             inkscape:connector-curvature="0" /></g><g
           id="g112"
           transform="translate(63.2163,46.7468)"><path
             d="m 0,0 c 0.007,-0.544 -0.412,-0.991 -0.936,-0.991 -0.524,0 -0.943,0.447 -0.936,0.991 0.007,0.536 0.426,0.964 0.936,0.964 C -0.426,0.964 -0.007,0.536 0,0"
             style="fill:#ffffff;fill-opacity:1;fill-rule:nonzero;stroke:none"
             id="path114"
             inkscape:connector-curvature="0" /></g><g
           id="g116"
           transform="translate(63.2653,42.975)"><path
             d="m 0,0 c 0.008,-0.602 -0.433,-1.098 -0.985,-1.098 -0.552,0 -0.993,0.496 -0.985,1.098 0.007,0.593 0.448,1.067 0.985,1.067 C -0.449,1.067 -0.008,0.593 0,0"
             style="fill:#ffffff;fill-opacity:1;fill-rule:nonzero;stroke:none"
             id="path118"
             inkscape:connector-curvature="0" /></g><g
           id="g120"
           transform="translate(63.3198,38.786)"><path
             d="m 0,0 c 0.009,-0.671 -0.457,-1.224 -1.04,-1.224 -0.583,0 -1.048,0.553 -1.039,1.224 0.008,0.66 0.474,1.187 1.039,1.187 C -0.474,1.187 -0.009,0.66 0,0"
             style="fill:#ffffff;fill-opacity:1;fill-rule:nonzero;stroke:none"
             id="path122"
             inkscape:connector-curvature="0" /></g><g
           id="g124"
           transform="translate(63.3807,34.1065)"><path
             d="m 0,0 c 0.01,-0.753 -0.483,-1.372 -1.101,-1.372 -0.617,0 -1.11,0.619 -1.1,1.372 0.009,0.739 0.502,1.329 1.1,1.329 C -0.502,1.329 -0.01,0.739 0,0"
             style="fill:#ffffff;fill-opacity:1;fill-rule:nonzero;stroke:none"
             id="path126"
             inkscape:connector-curvature="0" /></g><g
           id="g128"
           transform="translate(63.4491,28.845)"><path
             d="m 0,0 c 0.011,-0.849 -0.512,-1.55 -1.169,-1.55 -0.657,0 -1.18,0.701 -1.169,1.55 0.011,0.834 0.534,1.498 1.169,1.498 C -0.534,1.498 -0.011,0.834 0,0"
             style="fill:#ffffff;fill-opacity:1;fill-rule:nonzero;stroke:none"
             id="path130"
             inkscape:connector-curvature="0" /></g><g
           id="g132"
           transform="translate(66.893,46.7468)"><path
             d="m 0,0 c 0.035,-0.544 -0.361,-0.991 -0.886,-0.991 -0.524,0 -0.966,0.447 -0.986,0.991 -0.021,0.536 0.377,0.964 0.887,0.964 C -0.475,0.964 -0.034,0.536 0,0"
             style="fill:#ffffff;fill-opacity:1;fill-rule:nonzero;stroke:none"
             id="path134"
             inkscape:connector-curvature="0" /></g><g
           id="g136"
           transform="translate(67.1348,42.975)"><path
             d="m 0,0 c 0.039,-0.602 -0.377,-1.098 -0.929,-1.098 -0.552,0 -1.018,0.496 -1.041,1.098 -0.023,0.593 0.394,1.067 0.93,1.067 C -0.503,1.067 -0.038,0.593 0,0"
             style="fill:#ffffff;fill-opacity:1;fill-rule:nonzero;stroke:none"
             id="path138"
             inkscape:connector-curvature="0" /></g><g
           id="g140"
           transform="translate(67.4033,38.786)"><path
             d="M 0,0 C 0.043,-0.671 -0.394,-1.224 -0.977,-1.224 -1.56,-1.224 -2.054,-0.671 -2.079,0 -2.105,0.66 -1.666,1.187 -1.1,1.187 -0.535,1.187 -0.042,0.66 0,0"
             style="fill:#ffffff;fill-opacity:1;fill-rule:nonzero;stroke:none"
             id="path142"
             inkscape:connector-curvature="0" /></g><g
           id="g144"
           transform="translate(67.7032,34.1065)"><path
             d="m 0,0 c 0.048,-0.753 -0.413,-1.372 -1.03,-1.372 -0.618,0 -1.142,0.619 -1.171,1.372 -0.028,0.739 0.434,1.329 1.033,1.329 C -0.57,1.329 -0.047,0.739 0,0"
             style="fill:#ffffff;fill-opacity:1;fill-rule:nonzero;stroke:none"
             id="path146"
             inkscape:connector-curvature="0" /></g><g
           id="g148"
           transform="translate(68.0404,28.845)"><path
             d="M 0,0 C 0.054,-0.849 -0.433,-1.55 -1.09,-1.55 -1.747,-1.55 -2.306,-0.849 -2.338,0 -2.37,0.834 -1.88,1.498 -1.246,1.498 -0.611,1.498 -0.053,0.834 0,0"
             style="fill:#ffffff;fill-opacity:1;fill-rule:nonzero;stroke:none"
             id="path150"
             inkscape:connector-curvature="0" /></g><g
           id="g152"
           transform="translate(70.5698,46.7468)"><path
             d="m 0,0 c 0.063,-0.544 -0.311,-0.991 -0.835,-0.991 -0.524,0 -0.989,0.447 -1.037,0.991 -0.048,0.536 0.327,0.964 0.837,0.964 C -0.525,0.964 -0.062,0.536 0,0"
             style="fill:#ffffff;fill-opacity:1;fill-rule:nonzero;stroke:none"
             id="path154"
             inkscape:connector-curvature="0" /></g><g
           id="g156"
           transform="translate(71.0042,42.975)"><path
             d="m 0,0 c 0.069,-0.602 -0.321,-1.098 -0.873,-1.098 -0.552,0 -1.044,0.496 -1.097,1.098 -0.053,0.593 0.339,1.067 0.876,1.067 C -0.558,1.067 -0.068,0.593 0,0"
             style="fill:#ffffff;fill-opacity:1;fill-rule:nonzero;stroke:none"
             id="path158"
             inkscape:connector-curvature="0" /></g><g
           id="g160"
           transform="translate(71.4867,38.786)"><path
             d="m 0,0 c 0.077,-0.671 -0.332,-1.224 -0.915,-1.224 -0.583,0 -1.105,0.553 -1.164,1.224 -0.059,0.66 0.352,1.187 0.918,1.187 C -0.595,1.187 -0.076,0.66 0,0"
             style="fill:#ffffff;fill-opacity:1;fill-rule:nonzero;stroke:none"
             id="path162"
             inkscape:connector-curvature="0" /></g><g
           id="g164"
           transform="translate(72.0257,34.1065)"><path
             d="m 0,0 c 0.087,-0.753 -0.343,-1.372 -0.96,-1.372 -0.618,0 -1.174,0.619 -1.241,1.372 -0.066,0.739 0.366,1.329 0.965,1.329 C -0.638,1.329 -0.085,0.739 0,0"
             style="fill:#ffffff;fill-opacity:1;fill-rule:nonzero;stroke:none"
             id="path166"
             inkscape:connector-curvature="0" /></g><g
           id="g168"
           transform="translate(72.6317,28.845)"><path
             d="m 0,0 c 0.098,-0.849 -0.354,-1.55 -1.011,-1.55 -0.656,0 -1.251,0.701 -1.327,1.55 -0.074,0.834 0.381,1.498 1.016,1.498 C -0.687,1.498 -0.096,0.834 0,0"
             style="fill:#ffffff;fill-opacity:1;fill-rule:nonzero;stroke:none"
             id="path170"
             inkscape:connector-curvature="0" /></g><g
           id="g172"
           transform="translate(74.2466,46.7468)"><path
             d="m 0,0 c 0.09,-0.544 -0.26,-0.991 -0.784,-0.991 -0.524,0 -1.012,0.447 -1.088,0.991 -0.075,0.536 0.278,0.964 0.788,0.964 C -0.574,0.964 -0.089,0.536 0,0"
             style="fill:#ffffff;fill-opacity:1;fill-rule:nonzero;stroke:none"
             id="path174"
             inkscape:connector-curvature="0" /></g><g
           id="g176"
           transform="translate(74.8737,42.975)"><path
             d="m 0,0 c 0.1,-0.602 -0.265,-1.098 -0.817,-1.098 -0.552,0 -1.069,0.496 -1.153,1.098 -0.084,0.593 0.285,1.067 0.821,1.067 C -0.612,1.067 -0.099,0.593 0,0"
             style="fill:#ffffff;fill-opacity:1;fill-rule:nonzero;stroke:none"
             id="path178"
             inkscape:connector-curvature="0" /></g><g
           id="g180"
           transform="translate(75.5702,38.786)"><path
             d="m 0,0 c 0.112,-0.671 -0.269,-1.224 -0.852,-1.224 -0.583,0 -1.133,0.553 -1.227,1.224 -0.093,0.66 0.292,1.187 0.857,1.187 C -0.656,1.187 -0.11,0.66 0,0"
             style="fill:#ffffff;fill-opacity:1;fill-rule:nonzero;stroke:none"
             id="path182"
             inkscape:connector-curvature="0" /></g><g
           id="g184"
           transform="translate(76.3482,34.1065)"><path
             d="m 0,0 c 0.125,-0.753 -0.273,-1.372 -0.89,-1.372 -0.618,0 -1.206,0.619 -1.311,1.372 -0.104,0.739 0.298,1.329 0.897,1.329 C -0.706,1.329 -0.123,0.739 0,0"
             style="fill:#ffffff;fill-opacity:1;fill-rule:nonzero;stroke:none"
             id="path186"
             inkscape:connector-curvature="0" /></g><g
           id="g188"
           transform="translate(77.223,28.845)"><path
             d="m 0,0 c 0.141,-0.849 -0.275,-1.55 -0.931,-1.55 -0.657,0 -1.288,0.701 -1.407,1.55 -0.117,0.834 0.305,1.498 0.939,1.498 C -0.764,1.498 -0.139,0.834 0,0"
             style="fill:#ffffff;fill-opacity:1;fill-rule:nonzero;stroke:none"
             id="path190"
             inkscape:connector-curvature="0" /></g></g></g></g><g
     inkscape:groupmode="layer"
     id="layer1"
     inkscape:label="Title"
     style="display:inline"><text
       transform="scale(1.0000201,0.99997992)"
       style="font-variant:normal;font-weight:300;font-stretch:normal;font-size:21.79843712px;font-family:'Aller Light';-inkscape-font-specification:Aller-Light;writing-mode:lr-tb;fill:#ffffff;fill-opacity:1;fill-rule:nonzero;stroke:none"
       id="text36"
       x="17.068033"
       y="64.652802"><tspan
         sodipodi:role="line"
         id="tspan38"
         x="17.068033"
         y="64.652802">YourPackage</tspan></text>
</g></svg>