<?xml version="1.0" encoding="UTF-8" standalone="no"?>
<!-- Created with Inkscape (http://www.inkscape.org/) -->

<svg
   xmlns:dc="http://purl.org/dc/elements/1.1/"
   xmlns:cc="http://creativecommons.org/ns#"
   xmlns:rdf="http://www.w3.org/1999/02/22-rdf-syntax-ns#"
   xmlns:svg="http://www.w3.org/2000/svg"
   xmlns="http://www.w3.org/2000/svg"
   xmlns:sodipodi="http://sodipodi.sourceforge.net/DTD/sodipodi-0.dtd"
   xmlns:inkscape="http://www.inkscape.org/namespaces/inkscape"
   width="293.10638mm"
   height="169.05684mm"
   viewBox="0 0 293.10639 169.05684"
   version="1.1"
   id="svg8"
   inkscape:version="0.92.1 r15371"
   sodipodi:docname="cleaver.svg"
   inkscape:export-filename="/home/sebastian/projects/r/BiocStickers/cleaver/imagesrc/cleaver.svg.png"
   inkscape:export-xdpi="90"
   inkscape:export-ydpi="90">
  <defs
     id="defs2" />
  <sodipodi:namedview
     id="base"
     pagecolor="#ffffff"
     bordercolor="#666666"
     borderopacity="1.0"
     inkscape:pageopacity="0"
     inkscape:pageshadow="2"
     inkscape:zoom="1.1181302"
     inkscape:cx="78.84141"
     inkscape:cy="371.63307"
     inkscape:document-units="mm"
     inkscape:current-layer="layer1"
     showgrid="false"
     inkscape:window-width="2560"
     inkscape:window-height="1363"
     inkscape:window-x="0"
     inkscape:window-y="0"
     inkscape:window-maximized="1"
     inkscape:pagecheckerboard="true"
     fit-margin-top="0"
     fit-margin-left="0"
     fit-margin-right="0"
     fit-margin-bottom="0" />
  <metadata
     id="metadata5">
    <rdf:RDF>
      <cc:Work
         rdf:about="">
        <dc:format>image/svg+xml</dc:format>
        <dc:type
           rdf:resource="http://purl.org/dc/dcmitype/StillImage" />
        <dc:title></dc:title>
      </cc:Work>
    </rdf:RDF>
  </metadata>
  <g
     inkscape:label="Ebene 1"
     inkscape:groupmode="layer"
     id="layer1"
     transform="translate(102.93784,-60.841647)">
    <g
       id="g4486"
       transform="rotate(-105.02698,52.269244,148.19344)">
      <rect
         ry="4.6112227"
         rx="3.4686031"
         y="185.06738"
         x="67.188454"
         height="110.74947"
         width="36.916489"
         id="rect4494"
         style="fill:#000000;fill-opacity:1;stroke-width:0.12581389;stroke-miterlimit:4;stroke-dasharray:none" />
      <path
         id="rect4487"
         d="M 28.316939,0.57003086 C -0.39889693,0.57003086 0.43606695,30.314128 0.43606695,32.868746 V 163.69875 c 0,2.55461 1.54700755,4.61159 3.46861335,4.61159 H 100.63633 c 1.92161,0 3.46861,-2.05698 3.46861,-4.61159 V 5.1816258 c 0,-2.5546171 -1.547,-4.61159494 -3.46861,-4.61159494 z M 81.820662,9.622227 A 12.950542,12.950542 0 0 1 94.771226,22.57279 12.950542,12.950542 0 0 1 81.820662,35.523351 12.950542,12.950542 0 0 1 68.870099,22.57279 12.950542,12.950542 0 0 1 81.820662,9.622227 Z"
         style="stroke-width:0.12581389;stroke-miterlimit:4;stroke-dasharray:none"
         inkscape:connector-curvature="0" />
    </g>
    <path
       style="stroke-width:0.33802214;stroke-miterlimit:4;stroke-dasharray:none"
       d="M 152.05516,637.39606 C 112.35308,631.12086 86.109734,608.0653 73.677656,568.53907 72.207877,563.86609 55.009459,500.40929 35.458952,427.52395 L -0.08742647,295.00517 1.8470184,291.00914 c 1.1672272,-2.41116 3.3486708,-4.93192 5.5002419,-6.35576 C 12.245456,281.41191 591.24576,125.83571 598.4112,125.83571 c 5.31167,0 10.2957,2.00701 12.19952,4.9126 0.70711,1.0792 22.82532,82.19986 49.15155,180.26815 34.58438,128.83081 47.70993,179.01607 47.3038,180.86519 -0.66662,3.03504 -5.0656,8.28339 -8.37905,9.99683 -1.29613,0.67026 -109.5981,30.00476 -240.67103,65.18778 -268.67485,72.11857 -250.10206,67.18825 -260.23403,69.08155 -8.83873,1.65163 -38.1179,2.45089 -45.7268,1.24825 z M 113.08028,392.65684 c 12.53015,-3.67877 24.05405,-13.26331 29.67073,-24.67746 3.32193,-6.75077 5.81866,-16.43994 5.81866,-22.58069 0,-11.78449 -5.94681,-25.9495 -14.54072,-34.63531 -9.70929,-9.81309 -21.20122,-14.48057 -35.511835,-14.42324 -14.306458,0.0573 -25.422173,5.04378 -35.674273,16.00331 -8.843997,9.45426 -12.769838,19.86442 -12.70433,33.68809 0.133516,28.17492 24.193761,50.49828 52.209568,48.44061 3.33677,-0.24508 8.16626,-1.06197 10.7322,-1.81531 z"
       id="path4488"
       inkscape:connector-curvature="0"
       transform="matrix(0.26458333,0,0,0.26458333,-102.93784,60.841647)" />
    <path
       style="stroke-width:0.33802214;stroke-miterlimit:4;stroke-dasharray:none"
       d="M 151.87843,637.3772 C 113.57887,631.34307 87.836856,609.61581 75.018861,572.50472 73.331082,567.6182 55.735157,503.19531 35.916807,429.34275 l -36.0333647,-134.2774 1.9490104,-4.02612 c 1.1825292,-2.44277 3.3536878,-4.95569 5.5208275,-6.38984 2.7002578,-1.78694 19.3323378,-6.59465 68.1614688,-19.7029 35.524311,-9.53655 126.769351,-34.04283 202.766761,-54.4584 302.10355,-81.1556 315.32539,-84.65238 320.08238,-84.65238 5.60041,0 10.19632,1.78312 12.10532,4.69663 0.77949,1.18965 5.46768,17.22095 10.41821,35.62513 70.15629,260.81445 86.7013,323.34456 86.18118,325.71264 -0.66677,3.03577 -5.0621,8.29315 -8.35165,9.98964 -2.57167,1.32627 -13.87943,4.38762 -294.33206,79.68469 -107.47854,28.85628 -199.4401,53.24529 -204.35902,54.19779 -10.27408,1.98947 -39.58076,2.98465 -48.14744,1.63497 z M 111.00986,393.10948 c 5.54326,-1.18257 14.0107,-5.4101 18.84277,-9.40762 19.58793,-16.20482 24.16995,-43.73576 10.73783,-64.51787 -9.51279,-14.71813 -24.04874,-22.75713 -41.113877,-22.73773 -14.492419,0.0165 -24.419496,4.05273 -34.605393,14.07025 -10.036363,9.87046 -14.648987,20.85403 -14.648987,34.88218 0,13.68415 4.550796,24.67571 14.300284,34.53956 8.259151,8.35603 16.833383,12.45583 30.417227,14.5441 2.80614,0.43139 10.823066,-0.25349 16.070146,-1.37287 z"
       id="path4490"
       inkscape:connector-curvature="0"
       transform="matrix(0.26458333,0,0,0.26458333,-102.93784,60.841647)" />
    <path
       style="fill:#0e224e;fill-opacity:1;stroke-width:0.08943503;stroke-miterlimit:4;stroke-dasharray:none"
       d="m -63.701542,229.40977 c -7.270785,-1.27414 -13.318757,-5.31662 -16.890059,-11.28935 -1.504295,-2.51582 -2.681351,-5.48827 -3.831212,-9.67508 -1.327178,-4.83245 -17.990917,-66.86427 -18.388817,-68.45354 -0.26725,-1.06743 -0.24709,-1.24639 0.24496,-2.17391 0.2949,-0.55589 0.95484,-1.28777 1.46652,-1.62638 1.00544,-0.66537 11.699829,-3.56335 146.34063,-39.65564 9.09561,-2.438202 10.476481,-2.669535 12.038713,-2.016792 1.070645,0.447344 1.46286,1.110051 2.13192,3.602196 0.309592,1.153181 3.439258,12.798296 6.954816,25.878026 16.239366,60.419 17.79969,66.34526 17.648851,67.03202 -0.178517,0.81278 -1.342416,2.19473 -2.238853,2.6583 -0.593575,0.30695 -20.811435,5.7766 -84.7083035,22.91661 -42.7316395,11.46255 -45.5142255,12.19741 -47.6809775,12.59216 -2.990638,0.54485 -10.493787,0.66603 -13.088188,0.21138 z m -9.86494,-64.55791 c 3.392025,-0.90442 6.923876,-3.77314 8.344596,-6.77782 2.56749,-5.42998 1.472168,-11.25381 -2.882757,-15.32763 -2.526771,-2.36367 -5.127106,-3.35855 -8.790869,-3.36334 -3.647,-0.005 -6.487841,1.17706 -9.094052,3.78327 -2.547933,2.54793 -3.786083,5.52723 -3.786083,9.11026 0,3.51509 1.225944,6.52595 3.667768,9.00788 2.625962,2.6691 5.455844,3.87418 9.110261,3.87955 1.236394,0.002 2.780404,-0.13866 3.431136,-0.31217 z"
       id="path4492"
       inkscape:connector-curvature="0"
       inkscape:export-xdpi="90"
       inkscape:export-ydpi="90" />
    <path
       style="stroke-width:0.33802214;stroke-miterlimit:4;stroke-dasharray:none;fill:#0e224e;fill-opacity:1"
       d="m 709.50489,233.43554 c -1.64101,-0.80859 -3.562,-2.35285 -4.26888,-3.43168 -0.70688,-1.07884 -7.3298,-24.45493 -14.71761,-51.94689 -19.08459,-71.01877 -17.31922,-63.16639 -15.25182,-67.84009 1.10549,-2.49914 3.03664,-4.78691 5.31144,-6.29231 2.79501,-1.84965 44.56289,-13.369398 191.55507,-52.831656 C 993.77253,18.436979 1061.5879,0.62667363 1064.2908,0.62667363 c 5.0499,0 9.8599,2.38814367 11.9124,5.91442337 1.5932,2.7373857 31.141,111.718133 31.141,114.857173 0,4.53786 -6.162,11.46716 -11.7735,13.23951 -1.6408,0.51825 -86.3355,23.29971 -188.21033,50.62547 -138.18803,37.06598 -186.45169,49.67801 -190.04943,49.66282 -2.65231,-0.0112 -6.16504,-0.68194 -7.80605,-1.49053 z"
       id="path4494"
       inkscape:connector-curvature="0"
       transform="matrix(0.26458333,0,0,0.26458333,-102.93784,60.841647)" />
  </g>
</svg>
