<?xml version="1.0" encoding="UTF-8" standalone="no"?>
<!-- Created with Inkscape (http://www.inkscape.org/) -->

<svg
   xmlns:dc="http://purl.org/dc/elements/1.1/"
   xmlns:cc="http://creativecommons.org/ns#"
   xmlns:rdf="http://www.w3.org/1999/02/22-rdf-syntax-ns#"
   xmlns:svg="http://www.w3.org/2000/svg"
   xmlns="http://www.w3.org/2000/svg"
   xmlns:xlink="http://www.w3.org/1999/xlink"
   xmlns:sodipodi="http://sodipodi.sourceforge.net/DTD/sodipodi-0.dtd"
   xmlns:inkscape="http://www.inkscape.org/namespaces/inkscape"
   id="svg2"
   version="1.1"
   inkscape:version="0.91 r13725"
   xml:space="preserve"
   width="155.7"
   height="182.5"
   viewBox="0 0 155.7 182.5"
   sodipodi:docname="interminer-stickers.svg"><metadata
     id="metadata8"><rdf:RDF><cc:Work
         rdf:about=""><dc:format>image/svg+xml</dc:format><dc:type
           rdf:resource="http://purl.org/dc/dcmitype/StillImage" /><dc:title /></cc:Work></rdf:RDF></metadata><defs
     id="defs6"><linearGradient
       inkscape:collect="always"
       id="linearGradient5199"><stop
         id="stop5203"
         offset="0"
         style="stop-color:#6d7e1b;stop-opacity:1" /><stop
         id="stop5201"
         offset="1"
         style="stop-color:#365312;stop-opacity:1;" /></linearGradient><clipPath
       clipPathUnits="userSpaceOnUse"
       id="clipPath16"><path
         d="m 2.422,38.688 0,68.945 59.858,34.478 59.859,-34.478 0,-68.945 L 62.28,4.211 2.422,38.688 Z"
         id="path18"
         inkscape:connector-curvature="0" /></clipPath><radialGradient
       fx="0"
       fy="0"
       cx="0"
       cy="0"
       r="1"
       gradientUnits="userSpaceOnUse"
       gradientTransform="matrix(64.567177,0,0,-64.564835,65.073593,36.61673)"
       spreadMethod="pad"
       id="radialGradient24"><stop
         style="stop-opacity:1;stop-color:#cf8484"
         offset="0"
         id="stop26" /><stop
         style="stop-opacity:1;stop-color:#b02626"
         offset="1"
         id="stop28" /></radialGradient><clipPath
       clipPathUnits="userSpaceOnUse"
       id="clipPath44"><path
         d="m 0,146 124.56,0 0,-146 L 0,0 0,146 Z"
         id="path46"
         inkscape:connector-curvature="0" /></clipPath><clipPath
       clipPathUnits="userSpaceOnUse"
       id="clipPath196"><path
         d="m 79.288,86.078 c -1.013,0 -1.843,-0.83 -1.843,-1.843 l 0,0 c 0,-1.015 0.83,-1.844 1.843,-1.844 l 0,0 10.058,0 c 1.013,0 1.843,0.829 1.843,1.844 l 0,0 c 0,1.013 -0.83,1.843 -1.843,1.843 l 0,0 -10.058,0 z m -15.365,0 c -1.014,0 -1.844,-0.83 -1.844,-1.843 l 0,0 c 0,-1.015 0.83,-1.844 1.844,-1.844 l 0,0 8.964,0 c 1.015,0 1.845,0.829 1.845,1.844 l 0,0 c 0,1.013 -0.83,1.843 -1.845,1.843 l 0,0 -8.964,0 z m -17.551,0 c -1.014,0 -1.843,-0.83 -1.843,-1.843 l 0,0 c 0,-1.015 0.829,-1.844 1.843,-1.844 l 0,0 10.058,0 c 1.013,0 1.843,0.829 1.843,1.844 l 0,0 c 0,1.013 -0.83,1.843 -1.843,1.843 l 0,0 -10.058,0 z m -11.081,0 c -1.014,0 -1.844,-0.83 -1.844,-1.843 l 0,0 c 0,-1.015 0.83,-1.844 1.844,-1.844 l 0,0 4.681,0 c 1.014,0 1.844,0.829 1.844,1.844 l 0,0 c 0,1.013 -0.83,1.843 -1.844,1.843 l 0,0 -4.681,0 z m 42.971,-6.399 c -0.45,0 -0.817,-0.368 -0.817,-0.817 l 0,0 c 0,-0.449 0.367,-0.818 0.817,-0.818 l 0,0 11.987,0 c 0.45,0 0.817,0.369 0.817,0.818 l 0,0 c 0,0.449 -0.367,0.817 -0.817,0.817 l 0,0 -11.987,0 z m -15.038,0 c -0.449,0 -0.817,-0.368 -0.817,-0.817 l 0,0 c 0,-0.449 0.368,-0.818 0.817,-0.818 l 0,0 10.581,0 c 0.449,0 0.817,0.369 0.817,0.818 l 0,0 c 0,0.449 -0.368,0.817 -0.817,0.817 l 0,0 -10.581,0 z m -12.654,0 c -0.449,0 -0.817,-0.368 -0.817,-0.817 l 0,0 c 0,-0.449 0.368,-0.818 0.817,-0.818 l 0,0 6.836,0 c 0.449,0 0.817,0.369 0.817,0.818 l 0,0 c 0,0.449 -0.368,0.817 -0.817,0.817 l 0,0 -6.836,0 z m -16.382,0 c -0.449,0 -0.817,-0.368 -0.817,-0.817 l 0,0 c 0,-0.449 0.368,-0.818 0.817,-0.818 l 0,0 6.836,0 c 0.449,0 0.817,0.369 0.817,0.818 l 0,0 c 0,0.449 -0.368,0.817 -0.817,0.817 l 0,0 -6.836,0 z m 44.074,-3.12 c -0.45,0 -0.817,-0.367 -0.817,-0.817 l 0,0 c 0,-0.449 0.367,-0.817 0.817,-0.817 l 0,0 11.987,0 c 0.45,0 0.817,0.368 0.817,0.817 l 0,0 c 0,0.45 -0.367,0.817 -0.817,0.817 l 0,0 -11.987,0 z m -15.038,0 c -0.449,0 -0.817,-0.367 -0.817,-0.817 l 0,0 c 0,-0.449 0.368,-0.817 0.817,-0.817 l 0,0 10.581,0 c 0.449,0 0.817,0.368 0.817,0.817 l 0,0 c 0,0.45 -0.368,0.817 -0.817,0.817 l 0,0 -10.581,0 z m -17.878,0 c -0.45,0 -0.817,-0.367 -0.817,-0.817 l 0,0 c 0,-0.449 0.367,-0.817 0.817,-0.817 l 0,0 12.06,0 c 0.449,0 0.817,0.368 0.817,0.817 l 0,0 c 0,0.45 -0.368,0.817 -0.817,0.817 l 0,0 -12.06,0 z m -11.158,0 c -0.449,0 -0.817,-0.367 -0.817,-0.817 l 0,0 c 0,-0.449 0.368,-0.817 0.817,-0.817 l 0,0 6.836,0 c 0.449,0 0.817,0.368 0.817,0.817 l 0,0 c 0,0.45 -0.368,0.817 -0.817,0.817 l 0,0 -6.836,0 z m 44.074,-3.118 c -0.45,0 -0.817,-0.368 -0.817,-0.817 l 0,0 c 0,-0.45 0.367,-0.817 0.817,-0.817 l 0,0 11.987,0 c 0.45,0 0.817,0.367 0.817,0.817 l 0,0 c 0,0.449 -0.367,0.817 -0.817,0.817 l 0,0 -11.987,0 z m -15.038,0 c -0.449,0 -0.817,-0.368 -0.817,-0.817 l 0,0 c 0,-0.45 0.368,-0.817 0.817,-0.817 l 0,0 10.581,0 c 0.449,0 0.817,0.367 0.817,0.817 l 0,0 c 0,0.449 -0.368,0.817 -0.817,0.817 l 0,0 -10.581,0 z m -6.352,0 c -0.45,0 -0.817,-0.368 -0.817,-0.817 l 0,0 c 0,-0.45 0.367,-0.817 0.817,-0.817 l 0,0 0.534,0 c 0.449,0 0.817,0.367 0.817,0.817 l 0,0 c 0,0.449 -0.368,0.817 -0.817,0.817 l 0,0 -0.534,0 z m -22.684,0 c -0.449,0 -0.817,-0.368 -0.817,-0.817 l 0,0 c 0,-0.45 0.368,-0.817 0.817,-0.817 l 0,0 6.836,0 c 0.449,0 0.817,0.367 0.817,0.817 l 0,0 c 0,0.449 -0.368,0.817 -0.817,0.817 l 0,0 -6.836,0 z m 44.074,-3.119 c -0.45,0 -0.817,-0.368 -0.817,-0.818 l 0,0 c 0,-0.449 0.367,-0.817 0.817,-0.817 l 0,0 11.987,0 c 0.45,0 0.817,0.368 0.817,0.817 l 0,0 c 0,0.45 -0.367,0.818 -0.817,0.818 l 0,0 -11.987,0 z m -10.878,0 c -0.449,0 -0.817,-0.368 -0.817,-0.818 l 0,0 c 0,-0.449 0.368,-0.817 0.817,-0.817 l 0,0 6.421,0 c 0.449,0 0.817,0.368 0.817,0.817 l 0,0 c 0,0.45 -0.368,0.818 -0.817,0.818 l 0,0 -6.421,0 z m -12.68,0 c -0.45,0 -0.817,-0.368 -0.817,-0.818 l 0,0 c 0,-0.449 0.367,-0.817 0.817,-0.817 l 0,0 2.702,0 c 0.449,0 0.817,0.368 0.817,0.817 l 0,0 c 0,0.45 -0.368,0.818 -0.817,0.818 l 0,0 -2.702,0 z m -20.516,0 c -0.449,0 -0.817,-0.368 -0.817,-0.818 l 0,0 c 0,-0.449 0.368,-0.817 0.817,-0.817 l 0,0 6.836,0 c 0.449,0 0.817,0.368 0.817,0.817 l 0,0 c 0,0.45 -0.368,0.818 -0.817,0.818 l 0,0 -6.836,0 z m 44.197,-3.119 c -0.45,0 -0.818,-0.368 -0.818,-0.817 l 0,0 c 0,-0.45 0.368,-0.817 0.818,-0.817 l 0,0 11.987,0 c 0.45,0 0.817,0.367 0.817,0.817 l 0,0 c 0,0.449 -0.367,0.817 -0.817,0.817 l 0,0 -11.987,0 z m -15.051,0 c -0.449,0 -0.817,-0.368 -0.817,-0.817 l 0,0 c 0,-0.45 0.368,-0.817 0.817,-0.817 l 0,0 10.58,0 c 0.449,0 0.818,0.367 0.818,0.817 l 0,0 c 0,0.449 -0.369,0.817 -0.818,0.817 l 0,0 -10.58,0 z m -11.57,0 c -0.45,0 -0.817,-0.368 -0.817,-0.817 l 0,0 c 0,-0.45 0.367,-0.817 0.817,-0.817 l 0,0 5.717,0 c 0.45,0 0.817,0.367 0.817,0.817 l 0,0 c 0,0.449 -0.367,0.817 -0.817,0.817 l 0,0 -5.717,0 z m -17.499,0 c -0.45,0 -0.818,-0.368 -0.818,-0.817 l 0,0 c 0,-0.45 0.368,-0.817 0.818,-0.817 l 0,0 6.834,0 c 0.45,0 0.818,0.367 0.818,0.817 l 0,0 c 0,0.449 -0.368,0.817 -0.818,0.817 l 0,0 -6.834,0 z m 44.12,-3.119 c -0.45,0 -0.818,-0.369 -0.818,-0.818 l 0,0 c 0,-0.449 0.368,-0.817 0.818,-0.817 l 0,0 11.987,0 c 0.45,0 0.817,0.368 0.817,0.817 l 0,0 c 0,0.449 -0.367,0.818 -0.817,0.818 l 0,0 -11.987,0 z m -12.39,0 c -0.449,0 -0.817,-0.369 -0.817,-0.818 l 0,0 c 0,-0.449 0.368,-0.817 0.817,-0.817 l 0,0 7.919,0 c 0.449,0 0.818,0.368 0.818,0.817 l 0,0 c 0,0.449 -0.369,0.818 -0.818,0.818 l 0,0 -7.919,0 z m -8.781,0 c -0.449,0 -0.817,-0.369 -0.817,-0.818 l 0,0 c 0,-0.449 0.368,-0.817 0.817,-0.817 l 0,0 0.267,0 c 0.45,0 0.817,0.368 0.817,0.817 l 0,0 c 0,0.449 -0.367,0.818 -0.817,0.818 l 0,0 -0.267,0 z m -22.949,0 c -0.45,0 -0.818,-0.369 -0.818,-0.818 l 0,0 c 0,-0.449 0.368,-0.817 0.818,-0.817 l 0,0 6.834,0 c 0.45,0 0.818,0.368 0.818,0.817 l 0,0 c 0,0.449 -0.368,0.818 -0.818,0.818 l 0,0 -6.834,0 z m 44.12,-3.119 c -0.45,0 -0.818,-0.368 -0.818,-0.818 l 0,0 c 0,-0.449 0.368,-0.817 0.818,-0.817 l 0,0 11.987,0 c 0.45,0 0.817,0.368 0.817,0.817 l 0,0 c 0,0.45 -0.367,0.818 -0.817,0.818 l 0,0 -11.987,0 z m -14.507,0 c -0.45,0 -0.818,-0.368 -0.818,-0.818 l 0,0 c 0,-0.449 0.368,-0.817 0.818,-0.817 l 0,0 10.036,0 c 0.449,0 0.818,0.368 0.818,0.817 l 0,0 c 0,0.45 -0.369,0.818 -0.818,0.818 l 0,0 -10.036,0 z m -17.064,0 c -0.449,0 -0.817,-0.368 -0.817,-0.818 l 0,0 c 0,-0.449 0.368,-0.817 0.817,-0.817 l 0,0 10.667,0 c 0.45,0 0.817,0.368 0.817,0.817 l 0,0 c 0,0.45 -0.367,0.818 -0.817,0.818 l 0,0 -10.667,0 z m -12.549,0 c -0.45,0 -0.818,-0.368 -0.818,-0.818 l 0,0 c 0,-0.449 0.368,-0.817 0.818,-0.817 l 0,0 6.834,0 c 0.45,0 0.818,0.368 0.818,0.817 l 0,0 c 0,0.45 -0.368,0.818 -0.818,0.818 l 0,0 -6.834,0 z m 44.12,-3.119 c -0.45,0 -0.818,-0.368 -0.818,-0.817 l 0,0 c 0,-0.45 0.368,-0.818 0.818,-0.818 l 0,0 11.987,0 c 0.45,0 0.817,0.368 0.817,0.818 l 0,0 c 0,0.449 -0.367,0.817 -0.817,0.817 l 0,0 -11.987,0 z m -15.051,0 c -0.449,0 -0.817,-0.368 -0.817,-0.817 l 0,0 c 0,-0.45 0.368,-0.818 0.817,-0.818 l 0,0 10.58,0 c 0.449,0 0.818,0.368 0.818,0.818 l 0,0 c 0,0.449 -0.369,0.817 -0.818,0.817 l 0,0 -10.58,0 z m -11.769,0 c -0.45,0 -0.818,-0.368 -0.818,-0.817 l 0,0 c 0,-0.45 0.368,-0.818 0.818,-0.818 l 0,0 5.916,0 c 0.45,0 0.817,0.368 0.817,0.818 l 0,0 c 0,0.449 -0.367,0.817 -0.817,0.817 l 0,0 -5.916,0 z m -17.3,0 c -0.45,0 -0.818,-0.368 -0.818,-0.817 l 0,0 c 0,-0.45 0.368,-0.818 0.818,-0.818 l 0,0 6.834,0 c 0.45,0 0.818,0.368 0.818,0.818 l 0,0 c 0,0.449 -0.368,0.817 -0.818,0.817 l 0,0 -6.834,0 z"
         id="path198"
         inkscape:connector-curvature="0" /></clipPath><clipPath
       clipPathUnits="userSpaceOnUse"
       id="clipPath204"><path
         d="m -32768,32767 65535,0 0,-65535 -65535,0 0,65535 z"
         id="path206"
         inkscape:connector-curvature="0" /></clipPath><linearGradient
       x1="0"
       y1="0"
       x2="1"
       y2="0"
       gradientUnits="userSpaceOnUse"
       gradientTransform="matrix(0,29.86697,29.86697,0,62.280125,56.211143)"
       spreadMethod="pad"
       id="linearGradient208"><stop
         style="stop-opacity:0.2;stop-color:#ffffff"
         offset="0"
         id="stop210" /><stop
         style="stop-opacity:1;stop-color:#ffffff"
         offset="1"
         id="stop212" /></linearGradient><mask
       maskUnits="userSpaceOnUse"
       x="0"
       y="0"
       width="1"
       height="1"
       id="mask214"><g
         id="g216"><g
           clip-path="url(#clipPath204)"
           id="g218"><g
             id="g220"><g
               id="g222"><path
                 d="m -32768,32767 65535,0 0,-65535 -65535,0 0,65535 z"
                 style="fill:url(#linearGradient208);stroke:none"
                 id="path224"
                 inkscape:connector-curvature="0" /></g></g></g></g></mask><linearGradient
       x1="0"
       y1="0"
       x2="1"
       y2="0"
       gradientUnits="userSpaceOnUse"
       gradientTransform="matrix(0,29.86697,29.86697,0,62.280125,56.211143)"
       spreadMethod="pad"
       id="linearGradient230"><stop
         style="stop-opacity:1;stop-color:#ffffff"
         offset="0"
         id="stop232" /><stop
         style="stop-opacity:1;stop-color:#ffffff"
         offset="1"
         id="stop234" /></linearGradient><clipPath
       clipPathUnits="userSpaceOnUse"
       id="clipPath242"><path
         d="m 0,146 124.56,0 0,-146 L 0,0 0,146 Z"
         id="path244"
         inkscape:connector-curvature="0" /></clipPath><radialGradient
       inkscape:collect="always"
       xlink:href="#linearGradient5199"
       id="radialGradient5207"
       cx="61.661854"
       cy="56.780312"
       fx="61.661854"
       fy="56.780312"
       r="59.858501"
       gradientTransform="matrix(1,0,0,1.1518832,0,-11.111926)"
       gradientUnits="userSpaceOnUse" /></defs><sodipodi:namedview
     pagecolor="#ffffff"
     bordercolor="#666666"
     borderopacity="1"
     objecttolerance="10"
     gridtolerance="10"
     guidetolerance="10"
     inkscape:pageopacity="0"
     inkscape:pageshadow="2"
     inkscape:window-width="1291"
     inkscape:window-height="858"
     id="namedview4"
     showgrid="false"
     inkscape:zoom="2.5863014"
     inkscape:cx="78.840071"
     inkscape:cy="73.757258"
     inkscape:window-x="222"
     inkscape:window-y="48"
     inkscape:window-maximized="0"
     inkscape:current-layer="layer4" /><g
     inkscape:groupmode="layer"
     id="layer4"
     inkscape:label="Background"
     style="display:inline"><g
       transform="matrix(1.25,0,0,-1.25,0,182.5)"
       clip-path="url(#clipPath16)"
       id="g14"><g
         id="g20"><g
           id="g22"><path
             inkscape:connector-curvature="0"
             id="path30"
             style="fill:url(#radialGradient5207);stroke:none;fill-opacity:1"
             d="m 2.422,38.688 0,68.945 59.858,34.478 59.859,-34.478 0,-68.945 L 62.28,4.211 2.422,38.688 Z" /></g></g><g
         id="g5177"
         transform="translate(5.8771186,3.4025423)"><g
           id="g4618"
           transform="translate(56.440121,70.020082)"><path
             d="m 0,0 c 0,-0.544 0.334,-0.986 0.745,-0.986 l 22.141,0 c 0.412,0 0.746,0.442 0.746,0.986 l 0,9.965 c 0,0.547 -0.334,0.986 -0.746,0.986 l -22.141,0 C 0.334,10.951 0,10.512 0,9.965 L 0,0 Z"
             style="fill:#ffffff;fill-opacity:1;fill-rule:nonzero;stroke:none"
             id="path4620"
             inkscape:connector-curvature="0" /></g><g
           id="g4622"
           transform="translate(31.147621,70.020082)"><path
             d="m 0,0 c 0,-0.544 0.334,-0.986 0.746,-0.986 l 22.143,0 c 0.409,0 0.742,0.442 0.742,0.986 l 0,9.965 c 0,0.547 -0.333,0.986 -0.742,0.986 l -22.143,0 C 0.334,10.951 0,10.512 0,9.965 L 0,0 Z"
             style="fill:#ffffff;fill-opacity:0.54941863;fill-rule:nonzero;stroke:none"
             id="path4624"
             inkscape:connector-curvature="0" /></g><g
           id="g4626"
           transform="translate(56.440121,55.806182)"><path
             d="m 0,0 c 0,-0.541 0.334,-0.983 0.745,-0.983 l 22.141,0 c 0.412,0 0.746,0.442 0.746,0.983 l 0,9.966 c 0,0.545 -0.334,0.989 -0.746,0.989 l -22.141,0 C 0.334,10.955 0,10.511 0,9.966 L 0,0 Z"
             style="fill:#ffffff;fill-opacity:0.54941863;fill-rule:nonzero;stroke:none"
             id="path4628"
             inkscape:connector-curvature="0" /></g><g
           id="g4630"
           transform="translate(31.147621,55.806182)"><path
             d="m 0,0 c 0,-0.541 0.334,-0.983 0.746,-0.983 l 22.143,0 c 0.409,0 0.742,0.442 0.742,0.983 l 0,9.966 c 0,0.545 -0.333,0.989 -0.742,0.989 l -22.143,0 C 0.334,10.955 0,10.511 0,9.966 L 0,0 Z"
             style="fill:#ffffff;fill-opacity:1;fill-rule:nonzero;stroke:none"
             id="path4632"
             inkscape:connector-curvature="0" /></g><g
           id="g4634"
           transform="translate(56.440121,41.505382)"><path
             d="m 0,0 c 0,-0.547 0.334,-0.985 0.745,-0.985 l 22.141,0 c 0.412,0 0.746,0.438 0.746,0.985 l 0,9.966 c 0,0.544 -0.334,0.982 -0.746,0.982 l -22.141,0 C 0.334,10.948 0,10.51 0,9.966 L 0,0 Z"
             style="fill:#ffffff;fill-opacity:0.54941863;fill-rule:nonzero;stroke:none"
             id="path4636"
             inkscape:connector-curvature="0" /></g><g
           id="g4638"
           transform="translate(31.147621,41.505382)"><path
             d="m 0,0 c 0,-0.547 0.334,-0.985 0.746,-0.985 l 22.143,0 c 0.409,0 0.742,0.438 0.742,0.985 l 0,9.966 c 0,0.544 -0.333,0.982 -0.742,0.982 l -22.143,0 C 0.334,10.948 0,10.51 0,9.966 L 0,0 Z"
             style="fill:#ffffff;fill-opacity:1;fill-rule:nonzero;stroke:none"
             id="path4640"
             inkscape:connector-curvature="0" /></g></g></g></g><g
     id="g10"
     inkscape:groupmode="layer"
     inkscape:label="Border"
     transform="matrix(1.25,0,0,-1.25,0,182.5)"
     style="display:inline"><g
       id="g32"
       transform="translate(0,109.0332)"
       inkscape:export-filename="/Users/Luke/Downloads/title.png"
       inkscape:export-xdpi="300"
       inkscape:export-ydpi="300"><path
         d="m 0,0 0,-71.745 62.28,-35.872 62.28,35.872 L 124.56,0 62.28,35.872 0,0 Z m 4.844,-68.945 0,66.145 57.436,33.082 57.436,-33.082 0,-66.145 -57.436,-33.082 -57.436,33.082 z"
         style="fill:#607419;fill-opacity:1;fill-rule:nonzero;stroke:none"
         id="path34"
         inkscape:connector-curvature="0" /></g></g><g
     inkscape:groupmode="layer"
     id="layer3"
     inkscape:label="Bioconductor"
     style="display:inline"><g
       transform="matrix(1.25,0,0,-1.25,0,182.5)"
       id="g238"><g
         id="g240"
         clip-path="url(#clipPath242)"><text
           transform="matrix(0.86677474,0.49869985,0.49869985,-0.86677474,61.7652,8.9448)"
           style="font-variant:normal;font-weight:300;font-stretch:normal;font-size:4.00000095px;font-family:'Aller Light';-inkscape-font-specification:Aller-Light;writing-mode:lr-tb;fill:#ffffff;fill-opacity:1;fill-rule:nonzero;stroke:none"
           id="text246"><tspan
             x="0 2.7680008 5.5360017 8.1840029"
             sodipodi:role="line"
             id="tspan248">www.intermine.org</tspan></text>
</g></g></g><g
     inkscape:groupmode="layer"
     id="layer2"
     inkscape:label="Logo"
     style="display:inline" /><g
     inkscape:groupmode="layer"
     id="layer1"
     inkscape:label="Title"
     style="display:inline"><text
       transform="scale(1.0000201,0.99997991)"
       style="font-variant:normal;font-weight:300;font-stretch:normal;font-size:21.79843712px;font-family:'Aller Light';-inkscape-font-specification:Aller-Light;writing-mode:lr-tb;fill:#ffffff;fill-opacity:1;fill-rule:nonzero;stroke:none"
       id="text36"
       x="23.769012"
       y="64.652802"><tspan
         sodipodi:role="line"
         id="tspan38"
         x="23.769012"
         y="64.652802">InterMineR</tspan></text>
</g></svg>