<?xml version="1.0" encoding="UTF-8" standalone="no"?>
<!-- Created with Inkscape (http://www.inkscape.org/) -->

<svg
   xmlns:dc="http://purl.org/dc/elements/1.1/"
   xmlns:cc="http://creativecommons.org/ns#"
   xmlns:rdf="http://www.w3.org/1999/02/22-rdf-syntax-ns#"
   xmlns:svg="http://www.w3.org/2000/svg"
   xmlns="http://www.w3.org/2000/svg"
   xmlns:xlink="http://www.w3.org/1999/xlink"
   xmlns:sodipodi="http://sodipodi.sourceforge.net/DTD/sodipodi-0.dtd"
   xmlns:inkscape="http://www.inkscape.org/namespaces/inkscape"
   id="svg2"
   version="1.1"
   inkscape:version="0.92.3 (2405546, 2018-03-11)"
   xml:space="preserve"
   width="41.526356mm"
   height="47.837666mm"
   viewBox="0 0 156.95001 180.80378"
   sodipodi:docname="OUTRIDER.svg"
   inkscape:export-filename="/data/ouga/home/ag_gagneur/mertes/bitmap.png"
   inkscape:export-xdpi="600.02155"
   inkscape:export-ydpi="600.02155"><metadata
     id="metadata8"><rdf:RDF><cc:Work
         rdf:about=""><dc:format>image/svg+xml</dc:format><dc:type
           rdf:resource="http://purl.org/dc/dcmitype/StillImage" /><dc:title></dc:title></cc:Work></rdf:RDF></metadata><defs
     id="defs6"><clipPath
       clipPathUnits="userSpaceOnUse"
       id="clipPath242-4-7-0-0-4-9"><path
         d="M 0,146 H 124.56 V 0 H 0 Z"
         id="path244-6-6-5-2-2-4"
         inkscape:connector-curvature="0" /></clipPath><linearGradient
       gradientTransform="translate(253.5539,-1156.1225)"
       inkscape:collect="always"
       xlink:href="#radialGradient1520"
       id="linearGradient1170-5-8"
       x1="98.990654"
       y1="883.59509"
       x2="98.990654"
       y2="845.95142"
       gradientUnits="userSpaceOnUse"
       spreadMethod="reflect" /><radialGradient
       fx="0"
       fy="0"
       cx="0"
       cy="0"
       r="1"
       gradientUnits="userSpaceOnUse"
       gradientTransform="matrix(64.567177,0,0,-64.564835,65.073593,36.61673)"
       spreadMethod="pad"
       id="radialGradient1520"><stop
         id="stop1516"
         offset="0"
         style="stop-opacity:1;stop-color:#ff0000" /><stop
         id="stop1518"
         offset="1"
         style="stop-opacity:1;stop-color:#ffff0a" /></radialGradient><clipPath
       clipPathUnits="userSpaceOnUse"
       id="clipPath16-8-15-3-2-2-4"><path
         d="m 2.422,38.688 v 68.945 l 59.858,34.478 59.859,-34.478 V 38.688 L 62.28,4.211 Z"
         id="path18-51-2-0-6-5-2"
         inkscape:connector-curvature="0" /></clipPath><radialGradient
       inkscape:collect="always"
       xlink:href="#radialGradient4413-7-7-1-9-0-0"
       id="radialGradient5307-11-3-1-4-7-3"
       cx="62.280499"
       cy="87.154686"
       fx="62.280499"
       fy="87.154686"
       r="60.358501"
       gradientTransform="matrix(1,0,0,1.402277,0,-32.224371)"
       gradientUnits="userSpaceOnUse" /><radialGradient
       id="radialGradient4413-7-7-1-9-0-0"
       spreadMethod="pad"
       gradientTransform="matrix(64.567177,0,0,-64.564835,65.073593,36.61673)"
       gradientUnits="userSpaceOnUse"
       r="1"
       cy="0"
       cx="0"
       fy="0"
       fx="0"><stop
         id="stop4599-9-1-3-9-3-9"
         offset="0"
         style="stop-opacity:1;stop-color:#18c8b1" /><stop
         id="stop4601-7-9-3-5-6-6"
         offset="1"
         style="stop-opacity:1;stop-color:#122fc4" /></radialGradient><linearGradient
       inkscape:collect="always"
       xlink:href="#radialGradient1520"
       id="linearGradient1681"
       gradientUnits="userSpaceOnUse"
       gradientTransform="translate(251.96291,-1155.36)"
       x1="98.990654"
       y1="883.59509"
       x2="98.990654"
       y2="845.95142"
       spreadMethod="reflect" /><linearGradient
       inkscape:collect="always"
       xlink:href="#radialGradient1520"
       id="linearGradient1683"
       gradientUnits="userSpaceOnUse"
       gradientTransform="translate(251.96291,-1155.36)"
       x1="98.990654"
       y1="883.59509"
       x2="98.990654"
       y2="845.95142"
       spreadMethod="reflect" /><linearGradient
       inkscape:collect="always"
       xlink:href="#radialGradient1520"
       id="linearGradient1685"
       gradientUnits="userSpaceOnUse"
       gradientTransform="translate(251.96291,-1155.36)"
       x1="98.990654"
       y1="883.59509"
       x2="98.990654"
       y2="845.95142"
       spreadMethod="reflect" /><linearGradient
       inkscape:collect="always"
       xlink:href="#radialGradient1520"
       id="linearGradient1687"
       gradientUnits="userSpaceOnUse"
       gradientTransform="translate(251.96291,-1155.36)"
       x1="98.990654"
       y1="883.59509"
       x2="98.990654"
       y2="845.95142"
       spreadMethod="reflect" /><linearGradient
       inkscape:collect="always"
       xlink:href="#radialGradient1520"
       id="linearGradient1834"
       gradientUnits="userSpaceOnUse"
       gradientTransform="translate(251.96291,-1155.36)"
       x1="98.990654"
       y1="883.59509"
       x2="98.990654"
       y2="845.95142"
       spreadMethod="reflect" /><linearGradient
       inkscape:collect="always"
       xlink:href="#radialGradient1520"
       id="linearGradient1842"
       x1="103.65646"
       y1="477.20673"
       x2="103.65646"
       y2="439.56305"
       gradientUnits="userSpaceOnUse"
       spreadMethod="reflect"
       gradientTransform="translate(247.29709,-748.97164)" /><linearGradient
       inkscape:collect="always"
       xlink:href="#radialGradient1520"
       id="linearGradient1856"
       gradientUnits="userSpaceOnUse"
       gradientTransform="translate(251.96291,-1155.36)"
       x1="98.990654"
       y1="883.59509"
       x2="98.990654"
       y2="845.95142"
       spreadMethod="reflect" /></defs><sodipodi:namedview
     pagecolor="#ffffff"
     bordercolor="#666666"
     borderopacity="1"
     objecttolerance="10"
     gridtolerance="10"
     guidetolerance="10"
     inkscape:pageopacity="0"
     inkscape:pageshadow="2"
     inkscape:window-width="2560"
     inkscape:window-height="1376"
     id="namedview4"
     showgrid="false"
     inkscape:zoom="4.0000001"
     inkscape:cx="-12.615492"
     inkscape:cy="69.791449"
     inkscape:window-x="1920"
     inkscape:window-y="27"
     inkscape:window-maximized="1"
     inkscape:current-layer="layer1"
     inkscape:snap-center="true"
     units="mm"
     inkscape:snap-global="true"
     inkscape:snap-object-midpoints="true"
     inkscape:snap-others="false"
     showguides="false"
     fit-margin-top="0"
     fit-margin-left="0"
     fit-margin-right="0"
     fit-margin-bottom="0" /><g
     inkscape:groupmode="layer"
     id="layer4"
     inkscape:label="Background"
     style="display:inline"
     transform="translate(-270.99066,703.48432)" /><g
     id="g10"
     inkscape:groupmode="layer"
     inkscape:label="Border"
     transform="matrix(1.25,0,0,-1.25,-270.99066,885.98433)"
     style="display:inline" /><g
     inkscape:groupmode="layer"
     id="layer3"
     inkscape:label="Bioconductor"
     style="display:inline"
     transform="translate(-270.99066,703.48432)">
</g><g
     inkscape:groupmode="layer"
     id="layer1"
     inkscape:label="Title"
     style="display:inline"
     transform="translate(-270.99066,703.48432)"><path
   d="m 271.61566,-657.92305 v 89.68125 l 77.85001,44.83999 77.85,-44.84 v -14.48085 -75.2004 l -77.85,-44.84 z"
   style="display:inline;fill:#ffffff;fill-opacity:1;fill-rule:nonzero;stroke:#ffffff;stroke-width:1.25;stroke-opacity:0"
   id="path34-1-8-2-5-6-3-3"
   inkscape:connector-curvature="0"
   sodipodi:nodetypes="cccccccc"
   inkscape:export-xdpi="600.02155"
   inkscape:export-ydpi="600.02155" /><g
   id="g4868"
   transform="matrix(0.9484652,0,0,0.91301241,34.616449,-51.297763)" /><text
   xml:space="preserve"
   style="font-style:normal;font-weight:normal;font-size:12px;line-height:0%;font-family:sans-serif;letter-spacing:0px;word-spacing:0px;display:inline;fill:#000000;fill-opacity:1;stroke:none;stroke-width:1px;stroke-linecap:butt;stroke-linejoin:miter;stroke-opacity:1"
   x="260.81277"
   y="-138.28409"
   id="text5333-9"><tspan
     sodipodi:role="line"
     id="tspan5335-7"
     x="260.81277"
     y="-138.28409"
     style="font-size:40px;line-height:1.25;stroke-width:1px"> </tspan></text>


<g
   style="display:inline"
   transform="matrix(1.25,0,0,-1.25,271.61566,-521.63151)"
   clip-path="url(#clipPath16-8-15-3-2-2-4)"
   id="g14-8-7-49-3-2-7"
   inkscape:export-xdpi="600.02155"
   inkscape:export-ydpi="600.02155"><g
     id="g20-6-3-7-5-9-7"><g
       id="g22-71-9-5-3-4-8"><path
         inkscape:connector-curvature="0"
         id="path30-4-5-5-8-9-9"
         style="opacity:0.8;fill:url(#radialGradient5307-11-3-1-4-7-3);fill-opacity:0.95294118;fill-rule:nonzero;stroke:#32a437;stroke-opacity:1"
         d="m 2.422,38.688 v 68.945 l 59.858,34.478 59.859,-34.478 V 38.688 L 62.28,4.211 Z" /></g></g></g><path
   d="m 271.61566,-657.92305 v 89.68125 l 77.85001,44.83999 77.85,-44.84 v -14.48085 -75.2004 l -77.85,-44.84 z m 6.055,86.18125 v -82.68126 l 71.79501,-41.3525 71.795,41.3525 v 25.49252 57.18873 l -71.795,41.35249 z"
   style="display:inline;fill:#391f9b;fill-opacity:0.85314684;fill-rule:nonzero;stroke:#1d5d69;stroke-width:1.25;stroke-opacity:0"
   id="path34-1-8-2-5-6-3"
   inkscape:connector-curvature="0"
   sodipodi:nodetypes="cccccccccccccccc"
   inkscape:export-xdpi="600.02155"
   inkscape:export-ydpi="600.02155" /><g
   style="display:inline"
   transform="matrix(1.25,0,0,-1.25,271.61566,-521.63151)"
   id="g238-2-4-3-4-0-0"
   inkscape:export-xdpi="600.02155"
   inkscape:export-ydpi="600.02155"><g
     id="g240-5-8-7-6-8-6"
     clip-path="url(#clipPath242-4-7-0-0-4-9)"><text
   transform="matrix(0.86677474,0.49869985,0.49869985,-0.86677474,61.7652,8.9448)"
   style="font-variant:normal;font-weight:300;font-stretch:normal;line-height:0%;font-family:'Aller Light';-inkscape-font-specification:Aller-Light;writing-mode:lr-tb;fill:#ffffff;fill-opacity:1;fill-rule:nonzero;stroke:none"
   id="text246-9-9-1-4-1-6"><tspan
     x="0 2.7680008 5.5360017 8.1840029 8.7640028 10.884004 11.736004 13.792004 15.412405 17.468405 19.516405 21.616405 23.676407 25.356407 26.472408 28.528408 29.408409 29.988409 32.044411 33.16441 0 2.7680008 5.5360017 8.1840029 8.7640028 10.884004 11.736004 13.792004 15.412405 17.468405 19.516405 21.616405 23.676407 25.356407 26.472408 28.528408 29.408409 29.988409 32.044411 33.16441"
     y="0"
     sodipodi:role="line"
     id="tspan248-8-6-1-2-0-4"
     style="font-size:4.00000095px;line-height:1.25">www.bioconductor.orgwww.bioconductor.org</tspan></text>


</g></g><text
   transform="scale(1.0000201,0.99997991)"
   style="font-variant:normal;font-weight:300;font-stretch:normal;font-size:12px;line-height:0%;font-family:'Aller Light';-inkscape-font-specification:Aller-Light;writing-mode:lr-tb;display:inline;fill:#ffffff;fill-opacity:1;fill-rule:nonzero;stroke:none;stroke-width:1"
   id="text36-57-3-0-6-3-7"
   x="292.28564"
   y="-567.66797"
   inkscape:export-xdpi="600.02155"
   inkscape:export-ydpi="600.02155"><tspan
     sodipodi:role="line"
     id="tspan38-16-7-4-4-2-9"
     x="292.28564"
     y="-567.66797"
     style="font-style:normal;font-variant:normal;font-weight:normal;font-stretch:normal;font-size:21.79843712px;line-height:1.25;font-family:'Aller Light';-inkscape-font-specification:'Aller Light, ';stroke-width:1">OUTRIDER</tspan></text>








</g><g
     inkscape:groupmode="layer"
     id="layer2"
     inkscape:label="Logo"
     style="display:inline"
     transform="translate(-270.99066,703.48432)" /><g
     inkscape:groupmode="layer"
     id="layer5"
     inkscape:label="horse"
     style="display:inline"
     transform="translate(-270.99066,-236.53537)"><path
       style="display:inline;fill:#000003;fill-opacity:1;stroke-width:0.84486699"
       d="m 347.22741,349.78082 c -0.15503,-0.083 -0.66775,-0.5041 -1.13936,-0.9353 -0.62247,-0.569 -0.99911,-0.8053 -1.37421,-0.8621 -0.28421,-0.043 -0.73887,-0.1115 -1.01034,-0.1523 -0.40253,-0.06 -0.85118,-0.4178 -2.4313,-1.937 -1.68348,-1.6186 -3.17632,-2.8808 -5.44428,-4.6033 -0.31945,-0.2426 -1.4607,-0.8837 -2.5361,-1.4246 -1.12725,-0.567 -2.05203,-1.1241 -2.18377,-1.3154 -0.12567,-0.1826 -0.27087,-0.7016 -0.32265,-1.1533 -0.0518,-0.4517 -0.13952,-1.2181 -0.19495,-1.7032 -0.17681,-1.5471 -1.48676,-3.7554 -3.74247,-6.3089 -0.46141,-0.5224 -1.15154,-1.3251 -1.53359,-1.7837 -0.38205,-0.4587 -0.90392,-0.9714 -1.15971,-1.1394 -0.70653,-0.464 -3.16474,-2.8147 -3.82458,-3.6572 -0.92993,-1.1875 -1.202,-1.5974 -1.69731,-2.5576 -0.67339,-1.3053 -0.8498,-2.0423 -0.72823,-3.0424 0.21509,-1.769 0.26182,-1.6531 -0.68523,-1.7001 -0.81286,-0.04 -0.84722,-0.027 -1.45655,0.5427 -1.00464,0.9402 -1.32791,1.7031 -2.2884,5.4006 -0.24232,0.9328 -0.52232,2.0652 -0.62224,2.5166 -0.22056,0.9962 -1.10318,2.4077 -1.46428,2.3417 -0.34092,-0.062 -0.3965,-1.1748 -0.0994,-1.9891 0.46662,-1.2789 0.63226,-2.0935 0.63226,-3.1093 0,-1.0546 -0.25872,-2.4734 -0.45102,-2.4734 -0.14726,0 -1.12565,1.3822 -1.76271,2.4902 -1.89295,3.2924 -2.952,5.592 -5.19629,6.5722 -0.57819,0.2524 -0.9454,0.3039 -2.17552,0.3047 -1.56749,8e-4 -2.16784,-0.1651 -2.08556,-0.5768 0.033,-0.1651 0.25085,-0.2524 0.78682,-0.3156 0.64656,-0.076 1.38365,-0.3416 2.70719,-0.975 0.19326,-0.092 0.37351,-0.2787 0.40056,-0.414 0.0408,-0.2042 -0.007,-0.227 -0.28089,-0.1346 -0.18156,0.061 -0.58379,0.11275 -0.89386,0.11475 -0.69294,0 -0.76409,-0.2966 -0.14096,-0.5964 1.10257,-0.5305 3.24212,-2.7377 3.68555,-3.1125 0.54777,-0.4629 1.64639,-1.9462 1.57554,-2.1271 -0.0445,-0.11375 -2.31665,2.0122 -3.77681,2.9226 -2.78901,2.19477 -4.7682,4.60648 -8.18946,5.43328 -1.79728,0.52883 -3.536,0.31659 -3.93333,0.11834 -1.00131,-0.47119 -1.99638,-1.29893 -0.70783,-1.59854 1.22523,-0.21939 2.70666,-0.68864 3.36308,-1.023 0.67696,-0.42607 1.27258,-0.87158 1.65172,-1.29349 0.93196,-0.9591 -1.35654,-1.26129 -2.61418,-1.88359 -1.35791,-0.672 -2.37258,-1.05686 -2.28438,-1.44855 0.0742,-0.13313 0.94406,-0.59478 2.06486,-0.58178 0.65896,0.008 1.72991,-0.0143 2.64233,0.0827 1.65102,0.1754 3.05386,-2.05664 5.54451,-2.40044 1.61817,-0.2233 2.82573,-1.8131 4.57378,-3.4244 1.5442,-1.4234 2.77026,-2.2936 4.08248,-2.8975 0.91598,-0.4216 1.21894,-0.4913 2.34047,-0.5385 1.4543,-0.061 2.35187,0.1322 3.86382,0.8329 0.93254,0.4322 2.26864,0.6291 3.02652,0.446 0.19449,-0.047 0.84622,-0.4074 1.4483,-0.8008 1.96452,-1.27232 3.66996,-2.2071 5.61525,-3.07492 1.6548,-0.7408 4.1173,-1.09978 5.17696,-1.10868 0.77327,-0.01 4.00417,0.2528 5.17218,0.4152 3.45844,0.4807 5.06457,0.4899 4.84513,0.028 -0.22793,-0.4801 -0.22469,-1.6479 0.005,-1.9861 0.37165,-0.546 1.01545,-0.788 1.87021,-0.7031 l 0.74925,0.074 0.18783,-3.0583 c 0.28881,-2.297 1.25698,-4.42061 2.13848,-5.39279 0.62729,-0.81608 2.62047,-2.43305 3.68582,-3.57971 0.61036,-1.0339 1.40798,-1.7384 2.43297,-2.1491 1.18323,-0.474 2.34554,-1.1737 2.5446,-1.5318 0.11254,-0.2024 0.1125,-0.3547 -1.2e-4,-0.5573 -0.0853,-0.1533 -0.14388,-0.4128 -0.13031,-0.5766 0.0137,-0.1638 0.0177,-0.4164 0.009,-0.5612 -0.0148,-0.2502 -0.0249,-0.2512 -0.19968,-0.021 -0.11316,0.1489 -0.31681,0.2243 -0.52854,0.1955 -0.44788,-0.061 -0.551,-0.6926 -0.17886,-1.0955 0.35336,-0.3827 1.28831,-0.7764 1.85212,-0.7799 0.64947,-0.01 0.92496,-0.1776 1.34713,-0.8479 0.59968,-0.9522 0.73416,-1.0642 1.51607,-1.2628 1.05494,-0.2679 3.16184,0.027 3.86147,0.541 0.26208,0.1924 0.68557,0.3881 0.94107,0.4349 0.72706,0.1332 1.22834,0.4289 1.52735,0.9009 0.47729,0.7535 0.33253,1.1452 -0.59304,1.6046 -0.20676,0.10263 -0.63488,0.418 -0.95138,0.7008 -0.48848,0.4365 -0.57546,0.5963 -0.57546,1.0573 0,0.4607 -0.10152,0.6475 -0.66925,1.2318 -0.83094,0.8551 -1.18925,1.0027 -1.76417,0.7266 -0.48444,-0.2326 -1.73207,-0.2779 -1.86701,-0.068 -0.0489,0.076 0.10703,0.6049 0.34628,1.1753 0.23926,0.5704 0.40265,1.1352 0.36311,1.2551 -0.0396,0.11988 -0.29931,0.336 -0.57725,0.4801 -0.75312,0.3904 -1.12145,0.8963 -1.32506,1.8199 -0.17404,0.7894 -0.16648,0.8599 0.15714,1.4652 0.4048,0.7572 0.77882,0.9031 2.05527,0.8019 1.03629,-0.082 1.65746,-0.3572 2.19034,-0.9698 0.45298,-0.5207 1.21245,-0.8035 1.8355,-0.6836 1.12111,0.2158 1.52954,0.3784 1.63408,0.6505 0.14843,0.3862 -0.053,1.5201 -0.4135,2.3266 -0.16298,0.3647 -0.26159,0.7932 -0.21914,0.9523 0.17866,0.6695 2.80296,4.157 3.33389,4.4305 0.34366,0.1771 1.02775,0.1677 1.45541,-0.02 0.29324,-0.1286 0.33575,-0.221 0.27298,-0.5933 -0.0891,-0.5285 0.0413,-0.6274 1.01025,-0.7665 3.03055,-0.34061 5.68582,-3.29152 7.09273,-3.3465 1.87844,-0.049 2.00178,-0.11375 2.00178,-1.0591 0,-0.3545 0.0896,-0.6612 0.23365,-0.7999 0.22276,-0.2144 0.40398,-0.214 1.12244,0 0.27038,0.081 0.29738,0.041 0.2819,-0.4254 -0.0238,-0.7149 0.263,-0.7278 1.25827,-0.057 0.44827,0.3023 0.87783,0.5496 0.95457,0.5496 0.32413,0 1.14135,0.7672 1.73938,1.6329 0.4904,0.7099 0.74291,0.9512 1.06747,1.0198 0.2338,0.049 0.76076,0.4039 1.171,0.7876 0.41024,0.3838 1.41776,1.2778 2.2389,1.9867 1.36341,1.1771 1.51249,1.3537 1.71738,2.0352 0.22914,0.7621 1.07577,2.363 1.32947,2.5139 0.22376,0.1331 1.77838,2.19 2.23636,2.9589 0.263,0.4416 0.60635,0.7979 0.92895,0.9642 0.67383,0.3473 0.99678,1.0428 0.75679,1.6299 -0.0927,0.2271 -0.28535,0.5389 -0.42785,0.6929 -0.1425,0.1541 -0.25907,0.376 -0.25907,0.4933 0,0.11725 -0.0897,0.4185 -0.1994,0.6696 l -0.1994,0.4565 -1.17482,0.023 c -0.72542,0.014 -1.32978,0.10125 -1.57995,0.2267 -0.22282,0.11188 -0.50823,0.1684 -0.63425,0.1256 -0.35396,-0.12 -0.72242,-0.4649 -0.72242,-0.6761 0,-0.10487 -0.31172,-0.5079 -0.69271,-0.8957 -0.51382,-0.523 -0.86872,-0.7531 -1.37422,-0.8911 -0.37482,-0.10225 -1.02166,-0.3593 -1.43742,-0.571 -0.68077,-0.3467 -0.82089,-0.3721 -1.40944,-0.2549 -0.6548,0.1303 -2.02976,0.10288 -3.61338,-0.072 -0.46512,-0.051 -0.94081,-0.092 -1.05708,-0.09 -0.11627,0 -0.99142,-0.087 -1.94476,-0.1977 -0.95334,-0.11075 -1.857,-0.1636 -2.00815,-0.1175 -0.78347,0.95453 -1.8418,1.7919 -2.71994,2.5922 -1.0974,1.0163 -2.23241,1.9935 -2.52225,2.1716 -0.68976,0.4236 -0.88853,0.9263 -0.99634,2.5197 -0.0873,1.2911 -0.34677,2.2864 -0.9832,3.7722 -0.29414,0.6867 -0.42632,0.9317 -0.915,1.696 -0.0954,0.1492 -0.40689,0.7095 -0.69215,1.245 -0.42344,0.795 -0.48672,1.0108 -0.34472,1.1755 0.26002,0.3016 1.2895,0.7324 2.51892,1.0541 1.77229,0.4638 5.11609,2.2064 5.70019,2.9707 0.41365,0.5413 0.51968,1.6362 0.54904,5.6694 0.0302,4.1566 -0.0551,4.7365 -0.84285,5.7267 -0.20777,0.2612 -0.74173,1.0113 -1.18658,1.667 -0.44485,0.6556 -0.95225,1.2445 -1.12754,1.3087 -0.17528,0.064 -0.40313,0.2145 -0.50635,0.3342 -0.10321,0.11975 -0.37094,0.2177 -0.59497,0.2177 -0.34123,0 -0.49044,-0.1251 -0.91945,-0.7707 -0.28166,-0.4238 -0.56226,-0.9846 -0.62353,-1.2461 -0.20248,-0.8642 0.41,-1.7248 1.45736,-2.0476 0.58473,-0.1803 0.80916,-0.4709 0.80972,-1.0485 1.3e-4,-0.2101 0.23804,-0.7483 0.52854,-1.1961 l 0.52818,-0.814 0.0445,-2.1872 c 0.0473,-2.3269 -0.13967,-3.4486 -0.64885,-3.8922 -0.13315,-0.116 -0.72816,-0.3983 -1.32226,-0.6273 -1.0663,-0.411 -1.11291,-0.4163 -3.62894,-0.4163 -2.90433,0 -2.8025,-0.053 -2.21637,1.1532 0.21291,0.4382 0.76604,1.0868 1.56205,1.8317 0.67783,0.6342 1.32167,1.3181 1.43078,1.5196 0.43851,0.8098 0.0872,2.0243 -0.79141,2.7359 -0.24111,0.1953 -0.89401,0.4831 -1.45087,0.6395 -2.51132,0.7054 -5.47105,1.6986 -6.43885,2.1606 -2.18144,1.0413 -2.48427,1.0202 -3.94519,-0.2749 -0.50318,-0.4461 -1.58141,-1.1893 -2.39607,-1.6515 -1.60486,-0.9106 -2.82015,-1.8991 -2.82015,-2.2938 0,-0.1364 0.12268,-0.3113 0.27262,-0.3885 0.33496,-0.1726 2.9658,-0.1865 3.42579,-0.018 0.18375,0.067 0.59522,0.4552 0.91439,0.8621 0.6971,0.8888 1.68688,1.5513 2.48406,1.6627 0.68931,0.096 4.03457,-0.684 5.32806,-1.2428 1.15274,-0.498 1.41466,-0.8108 1.36086,-1.6252 l -0.0436,-0.661 -1.63846,-0.814 c -0.90115,-0.4478 -1.91595,-1.034 -2.25511,-1.3028 -0.33917,-0.2689 -0.81231,-0.5857 -1.05143,-0.7042 -0.23911,-0.1185 -0.91423,-0.6465 -1.50025,-1.1733 -0.58602,-0.5268 -1.18319,-0.9592 -1.32704,-0.9608 -0.45321,-0.01 -1.3573,-0.4818 -2.27937,-1.2016 -0.72997,-0.5698 -0.98883,-0.6949 -1.43781,-0.6949 -0.30117,0 -0.91536,-0.097 -1.36488,-0.2153 -0.44952,-0.11837 -1.45155,-0.2695 -2.22676,-0.3358 -2.56825,-0.2195 -3.79077,-0.4609 -7.45176,-1.4714 -2.52602,-0.6973 -3.445,-0.8333 -3.52239,-0.5215 -0.18279,0.7368 -0.92308,2.6475 -1.32725,3.4259 -0.80557,1.5513 -1.44072,3.0868 -1.44072,3.4831 0,0.8809 0.0617,0.925 3.12495,2.2366 1.24317,0.5324 3.24761,1.1249 3.81918,1.1291 0.60935,0 2.51585,0.5341 3.06255,0.8509 0.89023,0.5158 2.16263,1.553 3.50123,2.854 1.61983,1.5744 1.65437,1.7812 0.36362,2.1777 -1.3902,0.4271 -2.59594,0.1263 -2.59594,-0.6476 0,-0.4942 -0.51913,-1.0262 -1.00137,-1.0262 -0.81792,0 -1.66827,-0.5404 -2.41814,-1.5367 -0.12599,-0.1674 -0.59916,-0.3257 -1.45919,-0.4882 -0.70001,-0.1322 -2.39119,-0.5068 -3.75819,-0.8323 -1.36701,-0.3255 -2.52219,-0.5564 -2.56708,-0.5132 -0.24286,0.2338 1.09977,1.8743 3.00211,3.6681 2.7219,2.5667 3.33801,3.002 4.67824,3.3055 1.56769,0.3549 2.75773,0.9428 3.70704,1.8315 1.01961,0.9545 1.03854,1.2685 0.10385,1.7222 -0.69173,0.3358 -1.97674,0.4116 -2.47191,0.1457 z m -47.07252,-27.71367 c 0,-0.1473 -0.5977,-0.1916 -1.32637,-0.1893 -0.98174,0 0.13227,0.32615 -0.80573,0.93741 -0.25315,0.16496 -0.63699,0.5907 -0.68013,0.85224 -0.002,0.41936 1.5889,-0.0539 1.79594,-0.11331 0.56577,-0.0916 0.66269,-1.30833 1.01629,-1.48704 z m 86.46662,-9.56913 c 0,-0.1474 -0.74093,-0.2757 -1.60325,-0.2777 -0.84869,0 -1.79368,-0.2298 -3.00845,-0.7258 -0.48217,-0.1969 -0.95855,-0.3579 -1.05863,-0.3579 -0.10009,0 -0.42812,0.2047 -0.72899,0.455 l -0.547,0.4551 0.61902,0.086 c 0.34046,0.047 1.03129,0.168 1.53517,0.2686 0.98373,0.1963 4.79213,0.2734 4.79213,0.097 z m -21.40136,-4.889 c 1.33044,-0.062 1.46123,-0.092 1.49866,-0.3435 0.0266,-0.1785 -0.11013,-0.3832 -0.3876,-0.5807 -0.44613,-0.3175 -0.53341,-0.669 -0.27951,-1.1256 0.12452,-0.224 0.0548,-0.3766 -0.42284,-0.9258 -0.84279,-1.14792 -1.27708,-1.77771 -1.70376,-2.50101 -0.22329,-0.39382 -0.54756,-0.91639 -0.70433,-1.24759 -0.15678,-0.3313 -0.38218,-0.6024 -0.50089,-0.6024 -0.26479,0 -1.41401,0.57274 -2.02864,1.15683 -0.72043,0.56975 -1.7648,1.36217 -2.68425,1.87593 -1.169,0.59422 -1.9042,0.83203 -3.26071,1.41124 -0.23934,0.2304 -0.009,0.6107 0.69666,1.1527 1.02775,0.7889 1.69506,0.6274 2.01487,-0.4875 0.11487,-0.4005 0.21981,-0.5002 0.59845,-0.5686 0.25253,-0.046 0.71006,-0.063 1.01673,-0.039 0.49325,0.039 0.56281,0.088 0.60298,0.4249 0.0379,0.3187 -0.0257,0.4071 -0.3876,0.5386 -0.30757,0.11175 -0.43301,0.2462 -0.43301,0.4642 0,0.3287 0.34951,0.49968 1.49999,0.90989 1.33161,0.29978 2.82641,0.47738 4.8648,0.48741 z"
       id="path4369-8-1-0-2-7-2"
       inkscape:connector-curvature="0"
       sodipodi:nodetypes="ccccccccccccccccscccscccssccccccccccccccccccscccccccccsccccccccscccccccccsccsccccscccsccsccccccccccccsscccsccccccccccscccccscccccccscccccccccccsccscscccccccscsccsccsscccscccccccccscccccssccscsscccscccccssccccsccsccccccccccccscccccccccscc"
       inkscape:export-xdpi="600.02155"
       inkscape:export-ydpi="600.02155" /></g><g
     inkscape:groupmode="layer"
     id="layer6"
     inkscape:label="points"
     style="display:inline"
     transform="translate(-270.99066,-236.53537)"><ellipse
       transform="scale(1,-1)"
       ry="2.2866745"
       rx="2.3754673"
       style="display:inline;opacity:1;fill:url(#linearGradient1681);fill-opacity:1;fill-rule:nonzero;stroke:#000000;stroke-width:4.51326418;stroke-linecap:butt;stroke-linejoin:miter;stroke-miterlimit:4;stroke-dasharray:4.51326443, 27.07958658;stroke-dashoffset:0;stroke-opacity:0"
       id="circle4395-8-1-7-1-4-2"
       cx="323.62717"
       cy="-310.75369"
       inkscape:export-xdpi="600.02155"
       inkscape:export-ydpi="600.02155" /><ellipse
       transform="scale(1,-1)"
       ry="2.2866745"
       rx="2.3754673"
       cy="-309.92209"
       cx="336.58423"
       id="circle4397-7-8-4-4-1-8"
       style="display:inline;opacity:1;fill:url(#linearGradient1683);fill-opacity:1;fill-rule:nonzero;stroke:#000000;stroke-width:4.51326418;stroke-linecap:butt;stroke-linejoin:miter;stroke-miterlimit:4;stroke-dasharray:4.51326443, 27.07958658;stroke-dashoffset:0;stroke-opacity:0"
       inkscape:export-xdpi="600.02155"
       inkscape:export-ydpi="600.02155" /><ellipse
       transform="scale(1,-1)"
       ry="2.2866745"
       rx="2.3754673"
       style="display:inline;opacity:1;fill:url(#linearGradient1685);fill-opacity:1;fill-rule:nonzero;stroke:#000000;stroke-width:4.51326418;stroke-linecap:butt;stroke-linejoin:miter;stroke-miterlimit:4;stroke-dasharray:4.51326443, 27.07958658;stroke-dashoffset:0;stroke-opacity:0"
       id="circle4399-5-3-14-3-1-6"
       cx="350.98099"
       cy="-309.64487"
       inkscape:export-xdpi="600.02155"
       inkscape:export-ydpi="600.02155" /><ellipse
       transform="scale(1,-1)"
       ry="2.2866745"
       rx="2.3754673"
       cy="-307.9819"
       cx="363.50616"
       id="circle4401-3-9-4-8-4-6"
       style="display:inline;opacity:1;fill:url(#linearGradient1687);fill-opacity:1;fill-rule:nonzero;stroke:#000000;stroke-width:4.51326418;stroke-linecap:butt;stroke-linejoin:miter;stroke-miterlimit:4;stroke-dasharray:4.51326443, 27.07958658;stroke-dashoffset:0;stroke-opacity:0"
       inkscape:export-xdpi="600.02155"
       inkscape:export-ydpi="600.02155" /><ellipse
       transform="scale(1,-1)"
       ry="2.2866745"
       rx="2.3754673"
       style="display:inline;opacity:1;fill:url(#linearGradient1834);fill-opacity:1;fill-rule:nonzero;stroke:#000000;stroke-width:4.51326418;stroke-linecap:butt;stroke-linejoin:miter;stroke-miterlimit:4;stroke-dasharray:4.51326443, 27.07958658;stroke-dashoffset:0;stroke-opacity:0"
       id="circle4403-2-7-3-3-8-9"
       cx="375.31158"
       cy="-301.74551"
       inkscape:export-xdpi="600.02155"
       inkscape:export-ydpi="600.02155" /><ellipse
       transform="scale(1,-1)"
       ry="2.2866745"
       rx="2.3754673"
       cy="-274.03989"
       cx="387.33911"
       id="circle4405-1-9-05-0-4-5"
       style="display:inline;opacity:1;fill:url(#linearGradient1842);fill-opacity:1;fill-rule:nonzero;stroke:#000000;stroke-width:4.51326418;stroke-linecap:butt;stroke-linejoin:miter;stroke-miterlimit:4;stroke-dasharray:4.51326443, 27.07958658;stroke-dashoffset:0;stroke-opacity:0"
       inkscape:export-xdpi="600.02155"
       inkscape:export-ydpi="600.02155" /><ellipse
       transform="scale(1,-1)"
       ry="2.2866745"
       rx="2.3754673"
       style="display:inline;opacity:1;fill:url(#linearGradient1170-5-8);fill-opacity:1;fill-rule:nonzero;stroke:#000000;stroke-width:4.51326418;stroke-linecap:butt;stroke-linejoin:miter;stroke-miterlimit:4;stroke-dasharray:4.51326443, 27.07958658;stroke-dashoffset:0;stroke-opacity:0"
       id="circle4403-2-7-7-1-3-7-4"
       cx="299.36612"
       cy="-320.84628"
       inkscape:export-xdpi="600.02155"
       inkscape:export-ydpi="600.02155" /><ellipse
       transform="scale(1,-1)"
       ry="2.2866745"
       rx="2.3754673"
       cy="-313.71713"
       cx="310.57239"
       id="circle4401-3-9-0-2-6-1-8"
       style="display:inline;opacity:1;fill:url(#linearGradient1856);fill-opacity:1;fill-rule:nonzero;stroke:#000000;stroke-width:4.51326418;stroke-linecap:butt;stroke-linejoin:miter;stroke-miterlimit:4;stroke-dasharray:4.51326443, 27.07958658;stroke-dashoffset:0;stroke-opacity:0"
       inkscape:export-xdpi="600.02155"
       inkscape:export-ydpi="600.02155" /></g></svg>