<?xml version="1.0" encoding="utf-8"?>
<!-- Generator: Adobe Illustrator 24.0.0, SVG Export Plug-In . SVG Version: 6.00 Build 0)  -->
<svg version="1.1"
	 id="svg2" xmlns:cc="http://creativecommons.org/ns#" xmlns:dc="http://purl.org/dc/elements/1.1/" xmlns:inkscape="http://www.inkscape.org/namespaces/inkscape" xmlns:rdf="http://www.w3.org/1999/02/22-rdf-syntax-ns#" xmlns:sodipodi="http://sodipodi.sourceforge.net/DTD/sodipodi-0.dtd" xmlns:svg="http://www.w3.org/2000/svg"
	 xmlns="http://www.w3.org/2000/svg" xmlns:xlink="http://www.w3.org/1999/xlink" x="0px" y="0px" viewBox="0 0 155.7 179.36"
	 style="enable-background:new 0 0 155.7 179.36;" xml:space="preserve">
<style type="text/css">
	.st0{clip-path:url(#SVGID_2_);}
	.st1{fill:#EE1F24;}
	.st2{fill:none;stroke:#000000;stroke-miterlimit:10;}
	.st3{fill:#E1E5E6;stroke:#000000;stroke-miterlimit:10;}
	.st4{fill:#2C449B;stroke:#000000;stroke-miterlimit:10;}
	.st5{fill:#F01C1F;stroke:#000000;stroke-width:0.5;stroke-miterlimit:10;}
	.st6{fill:#F7ED2E;stroke:#000000;stroke-width:0.5;stroke-miterlimit:10;}
	.st7{fill:#1A9947;stroke:#000000;stroke-width:0.5;stroke-miterlimit:10;}
	.st8{fill:#4B4B4B;stroke:#000000;stroke-width:0.5;stroke-miterlimit:10;}
	.st9{fill:#F7ED2E;stroke:#000000;stroke-width:0.5;stroke-linecap:round;stroke-linejoin:round;stroke-miterlimit:10;}
	.st10{fill:#1A9947;stroke:#000000;stroke-width:0.5;stroke-linecap:round;stroke-linejoin:round;stroke-miterlimit:10;}
	.st11{fill:#AAAAAA;}
	.st12{fill:#FFFFFF;}
	.st13{font-family:'Aller-Light';}
	.st14{font-size:5px;}
	.st15{fill:#AAAAAA;stroke:#000000;stroke-width:0.5;stroke-miterlimit:10;}
	.st16{fill:#333333;stroke:#000000;stroke-width:0.5;stroke-miterlimit:10;}
	.st17{fill:#FFCC01;stroke:#3A58A6;stroke-miterlimit:10;}
	.st18{font-family:'PokemonSolidNormal';}
	.st19{font-size:28px;}
	.st20{font-family:'PokemonGB';}
	.st21{font-size:6px;}
	.st22{fill:none;stroke:#000000;stroke-width:0.25;stroke-miterlimit:10;}
	.st23{fill:#F01C1F;stroke:#000000;stroke-width:0.25;stroke-miterlimit:10;}
	.st24{fill:none;stroke:#000000;stroke-width:0.5;stroke-miterlimit:10;}
	.st25{fill:#FFCC01;}
</style>
<sodipodi:namedview  bordercolor="#666666" borderopacity="1" gridtolerance="10" guidetolerance="10" id="namedview4" inkscape:current-layer="g10" inkscape:cx="50.566365" inkscape:cy="75.545513" inkscape:pageopacity="0" inkscape:pageshadow="2" inkscape:window-height="858" inkscape:window-maximized="0" inkscape:window-width="1291" inkscape:window-x="222" inkscape:window-y="48" inkscape:zoom="2.5863014" objecttolerance="10" pagecolor="#ffffff" showgrid="false">
	</sodipodi:namedview>
<g id="layer4" inkscape:groupmode="layer" inkscape:label="Background">
	<g>
		<defs>
			<polygon id="SVGID_1_" points="3.03,132.77 3.03,46.59 77.85,3.49 152.67,46.59 152.67,132.77 77.85,175.87 			"/>
		</defs>
		<use xlink:href="#SVGID_1_"  style="overflow:visible;fill:#EE1F24;"/>
		<clipPath id="SVGID_2_">
			<use xlink:href="#SVGID_1_"  style="overflow:visible;"/>
		</clipPath>
		<g id="g14" transform="matrix(1.25,0,0,-1.25,0,182.5)" class="st0">
			<g id="g20">
				<g id="g22">
					<path id="path30" inkscape:connector-curvature="0" class="st1" d="M2.42,39.78v68.94l59.86,34.48l59.86-34.48V39.78
						L62.28,5.31L2.42,39.78z"/>
				</g>
			</g>
		</g>
	</g>
</g>
<path class="st2" d="M6.05,50.07c6-0.03,11.99-0.02,17.99-0.03c6.85-0.01,13.69,0.07,20.53-0.05c2.76-0.05,5.58-0.3,8.25-0.81
	c4.23-0.82,8.11-2.23,11.64-4.17c6.16-3.4,12.43-6.68,18.65-10.02c2.83-1.52,5.63-3.06,8.45-4.59c1.64-0.89,3.46-1.44,5.55-1.44
	c11.82,0,4.55-0.01,16.37-0.01c1.03,0,2.05-0.01,3.07,0"/>
<circle class="st3" cx="48.44" cy="38.41" r="7.5"/>
<circle class="st4" cx="48.44" cy="38.41" r="5"/>
<circle class="st5" cx="60.97" cy="32.41" r="1.5"/>
<circle class="st6" cx="69.45" cy="32.41" r="1.5"/>
<circle class="st7" cx="77.93" cy="32.41" r="1.5"/>
<circle class="st8" cx="41.48" cy="131.23" r="8.21"/>
<polygon class="st8" points="108.91,128.23 108.91,122.23 114.91,122.23 114.91,128.23 120.91,128.23 120.91,134.23 114.91,134.23 
	114.91,140.23 108.91,140.23 108.91,134.23 102.91,134.23 102.91,128.23 "/>
<path class="st9" d="M58.51,129.23h12.91c0.66,0,1.19-0.53,1.19-1.19c0-0.66-0.53-1.19-1.19-1.19H58.51c-0.66,0-1.19,0.53-1.19,1.19
	C57.32,128.7,57.85,129.23,58.51,129.23z"/>
<path class="st10" d="M81.98,129.23h12.91c0.66,0,1.19-0.53,1.19-1.19c0-0.66-0.53-1.19-1.19-1.19H81.98
	c-0.66,0-1.19,0.53-1.19,1.19C80.8,128.7,81.33,129.23,81.98,129.23z"/>
<g id="g10" transform="matrix(1.25,0,0,-1.25,0,182.5)" inkscape:groupmode="layer" inkscape:label="Border">
	
		<g id="g32" transform="translate(0,109.0332)" inkscape:export-filename="/Users/Luke/Downloads/title.png" inkscape:export-xdpi="300" inkscape:export-ydpi="300">
		<path id="path34" inkscape:connector-curvature="0" class="st11" d="M0,1.09v-71.75l62.28-35.87l62.28,35.87V1.09L62.28,36.97
			L0,1.09z M4.84-67.85v66.14l57.44,33.08l57.44-33.08v-66.14l-57.44-33.08C62.28-100.93,4.84-67.85,4.84-67.85z"/>
	</g>
</g>
<g id="g240">
	<text transform="matrix(0.8668 -0.4987 0.4987 0.8668 77.2248 169.9869)" class="st12 st13 st14">w</text>
	<text transform="matrix(0.8668 -0.4987 0.4987 0.8668 80.2234 168.2617)" class="st12 st13 st14">w</text>
	<text transform="matrix(0.8668 -0.4987 0.4987 0.8668 83.2228 166.5359)" class="st12 st13 st14">w</text>
	<text transform="matrix(0.8668 -0.4987 0.4987 0.8668 86.0919 164.8852)" class="st12 st13 st14">.</text>
	<text transform="matrix(0.8668 -0.4987 0.4987 0.8668 86.72 164.5238)" class="st12 st13 st14">b</text>
	<text transform="matrix(0.8668 -0.4987 0.4987 0.8668 89.0169 163.2023)" class="st12 st13 st14">i</text>
	<text transform="matrix(0.8668 -0.4987 0.4987 0.8668 89.9404 162.671)" class="st12 st13 st14">o</text>
	<text transform="matrix(0.8668 -0.4987 0.4987 0.8668 92.1678 161.3895)" class="st12 st13 st14">c</text>
	<text transform="matrix(0.8668 -0.4987 0.4987 0.8668 93.9234 160.3794)" class="st12 st13 st14">o</text>
	<text transform="matrix(0.8668 -0.4987 0.4987 0.8668 96.1513 159.0976)" class="st12 st13 st14">n</text>
	<text transform="matrix(0.8668 -0.4987 0.4987 0.8668 98.3702 157.8209)" class="st12 st13 st14">d</text>
	<text transform="matrix(0.8668 -0.4987 0.4987 0.8668 100.6455 156.5118)" class="st12 st13 st14">u</text>
	<text transform="matrix(0.8668 -0.4987 0.4987 0.8668 102.8772 155.2278)" class="st12 st13 st14">c</text>
	<text transform="matrix(0.8668 -0.4987 0.4987 0.8668 104.6975 154.1805)" class="st12 st13 st14">t</text>
	<text transform="matrix(0.8668 -0.4987 0.4987 0.8668 105.9067 153.4848)" class="st12 st13 st14">o</text>
	<text transform="matrix(0.8668 -0.4987 0.4987 0.8668 108.1342 152.2032)" class="st12 st13 st14">r</text>
	<text transform="matrix(0.8668 -0.4987 0.4987 0.8668 109.0877 151.6546)" class="st12 st13 st14">.</text>
	<text transform="matrix(0.8668 -0.4987 0.4987 0.8668 109.7162 151.293)" class="st12 st13 st14">o</text>
	<text transform="matrix(0.8668 -0.4987 0.4987 0.8668 111.9436 150.0114)" class="st12 st13 st14">r</text>
	<text transform="matrix(0.8668 -0.4987 0.4987 0.8668 113.1571 149.3133)" class="st12 st13 st14">g</text>
	<text transform="matrix(0.8668 -0.4987 0.4987 0.8668 77.2248 169.9869)" class="st12 st13 st14">w</text>
	<text transform="matrix(0.8668 -0.4987 0.4987 0.8668 80.2234 168.2617)" class="st12 st13 st14">w</text>
	<text transform="matrix(0.8668 -0.4987 0.4987 0.8668 83.2228 166.5359)" class="st12 st13 st14">w</text>
	<text transform="matrix(0.8668 -0.4987 0.4987 0.8668 86.0919 164.8852)" class="st12 st13 st14">.</text>
	<text transform="matrix(0.8668 -0.4987 0.4987 0.8668 86.72 164.5238)" class="st12 st13 st14">b</text>
	<text transform="matrix(0.8668 -0.4987 0.4987 0.8668 89.0169 163.2023)" class="st12 st13 st14">i</text>
	<text transform="matrix(0.8668 -0.4987 0.4987 0.8668 89.9404 162.671)" class="st12 st13 st14">o</text>
	<text transform="matrix(0.8668 -0.4987 0.4987 0.8668 92.1678 161.3895)" class="st12 st13 st14">c</text>
	<text transform="matrix(0.8668 -0.4987 0.4987 0.8668 93.9234 160.3794)" class="st12 st13 st14">o</text>
	<text transform="matrix(0.8668 -0.4987 0.4987 0.8668 96.1513 159.0976)" class="st12 st13 st14">n</text>
	<text transform="matrix(0.8668 -0.4987 0.4987 0.8668 98.3702 157.8209)" class="st12 st13 st14">d</text>
	<text transform="matrix(0.8668 -0.4987 0.4987 0.8668 100.6455 156.5118)" class="st12 st13 st14">u</text>
	<text transform="matrix(0.8668 -0.4987 0.4987 0.8668 102.8772 155.2278)" class="st12 st13 st14">c</text>
	<text transform="matrix(0.8668 -0.4987 0.4987 0.8668 104.6975 154.1805)" class="st12 st13 st14">t</text>
	<text transform="matrix(0.8668 -0.4987 0.4987 0.8668 105.9067 153.4848)" class="st12 st13 st14">o</text>
	<text transform="matrix(0.8668 -0.4987 0.4987 0.8668 108.1342 152.2032)" class="st12 st13 st14">r</text>
	<text transform="matrix(0.8668 -0.4987 0.4987 0.8668 109.0877 151.6546)" class="st12 st13 st14">.</text>
	<text transform="matrix(0.8668 -0.4987 0.4987 0.8668 109.7162 151.293)" class="st12 st13 st14">o</text>
	<text transform="matrix(0.8668 -0.4987 0.4987 0.8668 111.9436 150.0114)" class="st12 st13 st14">r</text>
	<text transform="matrix(0.8668 -0.4987 0.4987 0.8668 113.1571 149.3133)" class="st12 st13 st14">g</text>
</g>
<polygon class="st15" points="20.69,55.8 20.69,112.09 26.69,117.31 135.01,117.31 135.01,55.8 "/>
<rect x="27.47" y="62.92" class="st16" width="100.76" height="47.27"/>
<g id="layer1_3_" inkscape:groupmode="layer" inkscape:label="Title">
	<text transform="matrix(1 0 0 1 32.9085 94.5319)" class="st17 st18 st19">celldex</text>
</g>
<text transform="matrix(1 0 0 1 47.8298 106.2395)" class="st12 st20 st21">loading...</text>
<g>
	<line class="st22" x1="122.15" y1="111.83" x2="128.23" y2="111.83"/>
	<line class="st22" x1="122.15" y1="113.01" x2="128.23" y2="113.01"/>
	<line class="st22" x1="122.15" y1="114.18" x2="128.23" y2="114.18"/>
	<line class="st22" x1="122.15" y1="115.36" x2="128.23" y2="115.36"/>
</g>
<circle class="st5" cx="30.91" cy="113.59" r="1.5"/>
<g>
	<circle class="st23" cx="74.27" cy="59.73" r="1"/>
	<circle class="st23" cx="81.43" cy="59.73" r="1"/>
</g>
<polygon class="st24" points="149.65,131.02 77.94,172.52 6.14,131.17 6.05,48.32 77.76,6.82 149.56,48.17 "/>
<polyline class="st25" points="47.17,87.62 47.09,88.62 47.09,89.16 47.31,90.82 50.18,87.84 "/>
<polyline class="st25" points="61.1,81.24 60.79,81.04 60.41,81.78 60.84,82.19 61.4,81.53 "/>
<polyline class="st25" points="62.33,91.16 61.42,90.05 61.4,92.07 61.88,91.64 62.13,91.38 "/>
<path class="st25" d="M75.25,84.88l-0.23,1.07c-0.26,1.18-0.13,2.6,0.25,4.1l0.37,1.07l3.3-6.67"/>
<path class="st25" d="M90.4,83.7l-0.26,0.54c-0.05,0.21-0.69,1.75-0.67,1.97l-0.04,4.85c0.01,0.21,0.37,1.45,1.18,2.14l0.04,0.02
	l1.64-7.78"/>
<polyline class="st25" points="67.47,71.94 67.22,72.04 66.76,74.39 67.44,74.24 68.59,73.98 "/>
</svg>
