<?xml version="1.0" encoding="UTF-8" standalone="no"?>
<!-- Created with Inkscape (http://www.inkscape.org/) -->

<svg
   xmlns:dc="http://purl.org/dc/elements/1.1/"
   xmlns:cc="http://creativecommons.org/ns#"
   xmlns:rdf="http://www.w3.org/1999/02/22-rdf-syntax-ns#"
   xmlns:svg="http://www.w3.org/2000/svg"
   xmlns="http://www.w3.org/2000/svg"
   xmlns:xlink="http://www.w3.org/1999/xlink"
   xmlns:sodipodi="http://sodipodi.sourceforge.net/DTD/sodipodi-0.dtd"
   xmlns:inkscape="http://www.inkscape.org/namespaces/inkscape"
   id="svg2"
   version="1.1"
   inkscape:version="0.92.3 (2405546, 2018-03-11)"
   xml:space="preserve"
   width="155.7"
   height="182.5"
   viewBox="0 0 155.7 182.5"
   sodipodi:docname="Structstrings.svg"
   inkscape:export-filename="D:\Github\BiocStickers\Structstrings\Structstrings.png"
   inkscape:export-xdpi="300"
   inkscape:export-ydpi="300"><metadata
     id="metadata8"><rdf:RDF><cc:Work
         rdf:about=""><dc:format>image/svg+xml</dc:format><dc:type
           rdf:resource="http://purl.org/dc/dcmitype/StillImage" /><dc:title></dc:title></cc:Work></rdf:RDF></metadata><defs
     id="defs6"><radialGradient
       id="radialGradient5018"
       spreadMethod="pad"
       gradientTransform="matrix(64.567177,0,0,-64.564835,65.073593,36.61673)"
       gradientUnits="userSpaceOnUse"
       r="1"
       cy="0"
       cx="0"
       fy="0"
       fx="0"><stop
         id="stop5014"
         offset="0"
         style="stop-opacity:0.94117647;stop-color:#7f498f" /><stop
         id="stop5016"
         offset="1"
         style="stop-opacity:0.94117647;stop-color:#674172" /></radialGradient><clipPath
       clipPathUnits="userSpaceOnUse"
       id="clipPath16"><path
         d="m 2.422,38.688 0,68.945 59.858,34.478 59.859,-34.478 0,-68.945 L 62.28,4.211 2.422,38.688 Z"
         id="path18"
         inkscape:connector-curvature="0" /></clipPath><radialGradient
       fx="0"
       fy="0"
       cx="0"
       cy="0"
       r="1"
       gradientUnits="userSpaceOnUse"
       gradientTransform="matrix(64.567177,0,0,-64.564835,65.073593,36.61673)"
       spreadMethod="pad"
       id="radialGradient24"><stop
         style="stop-opacity:0.94117647;stop-color:#743c84"
         offset="0"
         id="stop26" /><stop
         style="stop-opacity:0.94117647;stop-color:#674172"
         offset="1"
         id="stop28" /></radialGradient><clipPath
       clipPathUnits="userSpaceOnUse"
       id="clipPath44"><path
         d="m 0,146 124.56,0 0,-146 L 0,0 0,146 Z"
         id="path46"
         inkscape:connector-curvature="0" /></clipPath><clipPath
       clipPathUnits="userSpaceOnUse"
       id="clipPath196"><path
         d="m 79.288,86.078 c -1.013,0 -1.843,-0.83 -1.843,-1.843 l 0,0 c 0,-1.015 0.83,-1.844 1.843,-1.844 l 0,0 10.058,0 c 1.013,0 1.843,0.829 1.843,1.844 l 0,0 c 0,1.013 -0.83,1.843 -1.843,1.843 l 0,0 -10.058,0 z m -15.365,0 c -1.014,0 -1.844,-0.83 -1.844,-1.843 l 0,0 c 0,-1.015 0.83,-1.844 1.844,-1.844 l 0,0 8.964,0 c 1.015,0 1.845,0.829 1.845,1.844 l 0,0 c 0,1.013 -0.83,1.843 -1.845,1.843 l 0,0 -8.964,0 z m -17.551,0 c -1.014,0 -1.843,-0.83 -1.843,-1.843 l 0,0 c 0,-1.015 0.829,-1.844 1.843,-1.844 l 0,0 10.058,0 c 1.013,0 1.843,0.829 1.843,1.844 l 0,0 c 0,1.013 -0.83,1.843 -1.843,1.843 l 0,0 -10.058,0 z m -11.081,0 c -1.014,0 -1.844,-0.83 -1.844,-1.843 l 0,0 c 0,-1.015 0.83,-1.844 1.844,-1.844 l 0,0 4.681,0 c 1.014,0 1.844,0.829 1.844,1.844 l 0,0 c 0,1.013 -0.83,1.843 -1.844,1.843 l 0,0 -4.681,0 z m 42.971,-6.399 c -0.45,0 -0.817,-0.368 -0.817,-0.817 l 0,0 c 0,-0.449 0.367,-0.818 0.817,-0.818 l 0,0 11.987,0 c 0.45,0 0.817,0.369 0.817,0.818 l 0,0 c 0,0.449 -0.367,0.817 -0.817,0.817 l 0,0 -11.987,0 z m -15.038,0 c -0.449,0 -0.817,-0.368 -0.817,-0.817 l 0,0 c 0,-0.449 0.368,-0.818 0.817,-0.818 l 0,0 10.581,0 c 0.449,0 0.817,0.369 0.817,0.818 l 0,0 c 0,0.449 -0.368,0.817 -0.817,0.817 l 0,0 -10.581,0 z m -12.654,0 c -0.449,0 -0.817,-0.368 -0.817,-0.817 l 0,0 c 0,-0.449 0.368,-0.818 0.817,-0.818 l 0,0 6.836,0 c 0.449,0 0.817,0.369 0.817,0.818 l 0,0 c 0,0.449 -0.368,0.817 -0.817,0.817 l 0,0 -6.836,0 z m -16.382,0 c -0.449,0 -0.817,-0.368 -0.817,-0.817 l 0,0 c 0,-0.449 0.368,-0.818 0.817,-0.818 l 0,0 6.836,0 c 0.449,0 0.817,0.369 0.817,0.818 l 0,0 c 0,0.449 -0.368,0.817 -0.817,0.817 l 0,0 -6.836,0 z m 44.074,-3.12 c -0.45,0 -0.817,-0.367 -0.817,-0.817 l 0,0 c 0,-0.449 0.367,-0.817 0.817,-0.817 l 0,0 11.987,0 c 0.45,0 0.817,0.368 0.817,0.817 l 0,0 c 0,0.45 -0.367,0.817 -0.817,0.817 l 0,0 -11.987,0 z m -15.038,0 c -0.449,0 -0.817,-0.367 -0.817,-0.817 l 0,0 c 0,-0.449 0.368,-0.817 0.817,-0.817 l 0,0 10.581,0 c 0.449,0 0.817,0.368 0.817,0.817 l 0,0 c 0,0.45 -0.368,0.817 -0.817,0.817 l 0,0 -10.581,0 z m -17.878,0 c -0.45,0 -0.817,-0.367 -0.817,-0.817 l 0,0 c 0,-0.449 0.367,-0.817 0.817,-0.817 l 0,0 12.06,0 c 0.449,0 0.817,0.368 0.817,0.817 l 0,0 c 0,0.45 -0.368,0.817 -0.817,0.817 l 0,0 -12.06,0 z m -11.158,0 c -0.449,0 -0.817,-0.367 -0.817,-0.817 l 0,0 c 0,-0.449 0.368,-0.817 0.817,-0.817 l 0,0 6.836,0 c 0.449,0 0.817,0.368 0.817,0.817 l 0,0 c 0,0.45 -0.368,0.817 -0.817,0.817 l 0,0 -6.836,0 z m 44.074,-3.118 c -0.45,0 -0.817,-0.368 -0.817,-0.817 l 0,0 c 0,-0.45 0.367,-0.817 0.817,-0.817 l 0,0 11.987,0 c 0.45,0 0.817,0.367 0.817,0.817 l 0,0 c 0,0.449 -0.367,0.817 -0.817,0.817 l 0,0 -11.987,0 z m -15.038,0 c -0.449,0 -0.817,-0.368 -0.817,-0.817 l 0,0 c 0,-0.45 0.368,-0.817 0.817,-0.817 l 0,0 10.581,0 c 0.449,0 0.817,0.367 0.817,0.817 l 0,0 c 0,0.449 -0.368,0.817 -0.817,0.817 l 0,0 -10.581,0 z m -6.352,0 c -0.45,0 -0.817,-0.368 -0.817,-0.817 l 0,0 c 0,-0.45 0.367,-0.817 0.817,-0.817 l 0,0 0.534,0 c 0.449,0 0.817,0.367 0.817,0.817 l 0,0 c 0,0.449 -0.368,0.817 -0.817,0.817 l 0,0 -0.534,0 z m -22.684,0 c -0.449,0 -0.817,-0.368 -0.817,-0.817 l 0,0 c 0,-0.45 0.368,-0.817 0.817,-0.817 l 0,0 6.836,0 c 0.449,0 0.817,0.367 0.817,0.817 l 0,0 c 0,0.449 -0.368,0.817 -0.817,0.817 l 0,0 -6.836,0 z m 44.074,-3.119 c -0.45,0 -0.817,-0.368 -0.817,-0.818 l 0,0 c 0,-0.449 0.367,-0.817 0.817,-0.817 l 0,0 11.987,0 c 0.45,0 0.817,0.368 0.817,0.817 l 0,0 c 0,0.45 -0.367,0.818 -0.817,0.818 l 0,0 -11.987,0 z m -10.878,0 c -0.449,0 -0.817,-0.368 -0.817,-0.818 l 0,0 c 0,-0.449 0.368,-0.817 0.817,-0.817 l 0,0 6.421,0 c 0.449,0 0.817,0.368 0.817,0.817 l 0,0 c 0,0.45 -0.368,0.818 -0.817,0.818 l 0,0 -6.421,0 z m -12.68,0 c -0.45,0 -0.817,-0.368 -0.817,-0.818 l 0,0 c 0,-0.449 0.367,-0.817 0.817,-0.817 l 0,0 2.702,0 c 0.449,0 0.817,0.368 0.817,0.817 l 0,0 c 0,0.45 -0.368,0.818 -0.817,0.818 l 0,0 -2.702,0 z m -20.516,0 c -0.449,0 -0.817,-0.368 -0.817,-0.818 l 0,0 c 0,-0.449 0.368,-0.817 0.817,-0.817 l 0,0 6.836,0 c 0.449,0 0.817,0.368 0.817,0.817 l 0,0 c 0,0.45 -0.368,0.818 -0.817,0.818 l 0,0 -6.836,0 z m 44.197,-3.119 c -0.45,0 -0.818,-0.368 -0.818,-0.817 l 0,0 c 0,-0.45 0.368,-0.817 0.818,-0.817 l 0,0 11.987,0 c 0.45,0 0.817,0.367 0.817,0.817 l 0,0 c 0,0.449 -0.367,0.817 -0.817,0.817 l 0,0 -11.987,0 z m -15.051,0 c -0.449,0 -0.817,-0.368 -0.817,-0.817 l 0,0 c 0,-0.45 0.368,-0.817 0.817,-0.817 l 0,0 10.58,0 c 0.449,0 0.818,0.367 0.818,0.817 l 0,0 c 0,0.449 -0.369,0.817 -0.818,0.817 l 0,0 -10.58,0 z m -11.57,0 c -0.45,0 -0.817,-0.368 -0.817,-0.817 l 0,0 c 0,-0.45 0.367,-0.817 0.817,-0.817 l 0,0 5.717,0 c 0.45,0 0.817,0.367 0.817,0.817 l 0,0 c 0,0.449 -0.367,0.817 -0.817,0.817 l 0,0 -5.717,0 z m -17.499,0 c -0.45,0 -0.818,-0.368 -0.818,-0.817 l 0,0 c 0,-0.45 0.368,-0.817 0.818,-0.817 l 0,0 6.834,0 c 0.45,0 0.818,0.367 0.818,0.817 l 0,0 c 0,0.449 -0.368,0.817 -0.818,0.817 l 0,0 -6.834,0 z m 44.12,-3.119 c -0.45,0 -0.818,-0.369 -0.818,-0.818 l 0,0 c 0,-0.449 0.368,-0.817 0.818,-0.817 l 0,0 11.987,0 c 0.45,0 0.817,0.368 0.817,0.817 l 0,0 c 0,0.449 -0.367,0.818 -0.817,0.818 l 0,0 -11.987,0 z m -12.39,0 c -0.449,0 -0.817,-0.369 -0.817,-0.818 l 0,0 c 0,-0.449 0.368,-0.817 0.817,-0.817 l 0,0 7.919,0 c 0.449,0 0.818,0.368 0.818,0.817 l 0,0 c 0,0.449 -0.369,0.818 -0.818,0.818 l 0,0 -7.919,0 z m -8.781,0 c -0.449,0 -0.817,-0.369 -0.817,-0.818 l 0,0 c 0,-0.449 0.368,-0.817 0.817,-0.817 l 0,0 0.267,0 c 0.45,0 0.817,0.368 0.817,0.817 l 0,0 c 0,0.449 -0.367,0.818 -0.817,0.818 l 0,0 -0.267,0 z m -22.949,0 c -0.45,0 -0.818,-0.369 -0.818,-0.818 l 0,0 c 0,-0.449 0.368,-0.817 0.818,-0.817 l 0,0 6.834,0 c 0.45,0 0.818,0.368 0.818,0.817 l 0,0 c 0,0.449 -0.368,0.818 -0.818,0.818 l 0,0 -6.834,0 z m 44.12,-3.119 c -0.45,0 -0.818,-0.368 -0.818,-0.818 l 0,0 c 0,-0.449 0.368,-0.817 0.818,-0.817 l 0,0 11.987,0 c 0.45,0 0.817,0.368 0.817,0.817 l 0,0 c 0,0.45 -0.367,0.818 -0.817,0.818 l 0,0 -11.987,0 z m -14.507,0 c -0.45,0 -0.818,-0.368 -0.818,-0.818 l 0,0 c 0,-0.449 0.368,-0.817 0.818,-0.817 l 0,0 10.036,0 c 0.449,0 0.818,0.368 0.818,0.817 l 0,0 c 0,0.45 -0.369,0.818 -0.818,0.818 l 0,0 -10.036,0 z m -17.064,0 c -0.449,0 -0.817,-0.368 -0.817,-0.818 l 0,0 c 0,-0.449 0.368,-0.817 0.817,-0.817 l 0,0 10.667,0 c 0.45,0 0.817,0.368 0.817,0.817 l 0,0 c 0,0.45 -0.367,0.818 -0.817,0.818 l 0,0 -10.667,0 z m -12.549,0 c -0.45,0 -0.818,-0.368 -0.818,-0.818 l 0,0 c 0,-0.449 0.368,-0.817 0.818,-0.817 l 0,0 6.834,0 c 0.45,0 0.818,0.368 0.818,0.817 l 0,0 c 0,0.45 -0.368,0.818 -0.818,0.818 l 0,0 -6.834,0 z m 44.12,-3.119 c -0.45,0 -0.818,-0.368 -0.818,-0.817 l 0,0 c 0,-0.45 0.368,-0.818 0.818,-0.818 l 0,0 11.987,0 c 0.45,0 0.817,0.368 0.817,0.818 l 0,0 c 0,0.449 -0.367,0.817 -0.817,0.817 l 0,0 -11.987,0 z m -15.051,0 c -0.449,0 -0.817,-0.368 -0.817,-0.817 l 0,0 c 0,-0.45 0.368,-0.818 0.817,-0.818 l 0,0 10.58,0 c 0.449,0 0.818,0.368 0.818,0.818 l 0,0 c 0,0.449 -0.369,0.817 -0.818,0.817 l 0,0 -10.58,0 z m -11.769,0 c -0.45,0 -0.818,-0.368 -0.818,-0.817 l 0,0 c 0,-0.45 0.368,-0.818 0.818,-0.818 l 0,0 5.916,0 c 0.45,0 0.817,0.368 0.817,0.818 l 0,0 c 0,0.449 -0.367,0.817 -0.817,0.817 l 0,0 -5.916,0 z m -17.3,0 c -0.45,0 -0.818,-0.368 -0.818,-0.817 l 0,0 c 0,-0.45 0.368,-0.818 0.818,-0.818 l 0,0 6.834,0 c 0.45,0 0.818,0.368 0.818,0.818 l 0,0 c 0,0.449 -0.368,0.817 -0.818,0.817 l 0,0 -6.834,0 z"
         id="path198"
         inkscape:connector-curvature="0" /></clipPath><clipPath
       clipPathUnits="userSpaceOnUse"
       id="clipPath204"><path
         d="m -32768,32767 65535,0 0,-65535 -65535,0 0,65535 z"
         id="path206"
         inkscape:connector-curvature="0" /></clipPath><linearGradient
       x1="0"
       y1="0"
       x2="1"
       y2="0"
       gradientUnits="userSpaceOnUse"
       gradientTransform="matrix(0,29.86697,29.86697,0,62.280125,56.211143)"
       spreadMethod="pad"
       id="linearGradient208"><stop
         style="stop-opacity:0.2;stop-color:#ffffff"
         offset="0"
         id="stop210" /><stop
         style="stop-opacity:1;stop-color:#ffffff"
         offset="1"
         id="stop212" /></linearGradient><mask
       maskUnits="userSpaceOnUse"
       x="0"
       y="0"
       width="1"
       height="1"
       id="mask214"><g
         id="g216"><g
           clip-path="url(#clipPath204)"
           id="g218"><g
             id="g220"><g
               id="g222"><path
                 d="m -32768,32767 65535,0 0,-65535 -65535,0 0,65535 z"
                 style="fill:url(#linearGradient208);stroke:none"
                 id="path224"
                 inkscape:connector-curvature="0" /></g></g></g></g></mask><linearGradient
       x1="0"
       y1="0"
       x2="1"
       y2="0"
       gradientUnits="userSpaceOnUse"
       gradientTransform="matrix(0,29.86697,29.86697,0,62.280125,56.211143)"
       spreadMethod="pad"
       id="linearGradient230"><stop
         style="stop-opacity:1;stop-color:#ffffff"
         offset="0"
         id="stop232" /><stop
         style="stop-opacity:1;stop-color:#ffffff"
         offset="1"
         id="stop234" /></linearGradient><clipPath
       clipPathUnits="userSpaceOnUse"
       id="clipPath242"><path
         d="m 0,146 124.56,0 0,-146 L 0,0 0,146 Z"
         id="path244"
         inkscape:connector-curvature="0" /></clipPath><radialGradient
       inkscape:collect="always"
       xlink:href="#radialGradient24"
       id="radialGradient5010"
       cx="62.280499"
       cy="73.161003"
       fx="62.280499"
       fy="73.161003"
       r="59.858501"
       gradientTransform="matrix(1,0,0,1.1518832,0,-11.111926)"
       gradientUnits="userSpaceOnUse" /><radialGradient
       inkscape:collect="always"
       xlink:href="#radialGradient5018"
       id="radialGradient5012"
       gradientUnits="userSpaceOnUse"
       gradientTransform="matrix(1,0,0,1.1518832,0,-11.111926)"
       cx="68.466942"
       cy="53.826416"
       fx="68.466942"
       fy="53.826416"
       r="59.858501" /><radialGradient
       inkscape:collect="always"
       xlink:href="#radialGradient24"
       id="radialGradient10135"
       gradientUnits="userSpaceOnUse"
       gradientTransform="matrix(1,0,0,1.1518832,0,-11.111926)"
       cx="62.280499"
       cy="73.161003"
       fx="62.280499"
       fy="73.161003"
       r="59.858501" /></defs><sodipodi:namedview
     pagecolor="#ffffff"
     bordercolor="#666666"
     borderopacity="1"
     objecttolerance="10"
     gridtolerance="10"
     guidetolerance="10"
     inkscape:pageopacity="0"
     inkscape:pageshadow="2"
     inkscape:window-width="1920"
     inkscape:window-height="1017"
     id="namedview4"
     showgrid="false"
     inkscape:zoom="5.1726028"
     inkscape:cx="53.841962"
     inkscape:cy="82.006722"
     inkscape:window-x="-8"
     inkscape:window-y="562"
     inkscape:window-maximized="1"
     inkscape:current-layer="g10"
     units="mm"
     inkscape:pagecheckerboard="false" /><g
     inkscape:groupmode="layer"
     id="layer4"
     inkscape:label="Background"
     style="display:inline"><g
       id="g20"
       transform="matrix(1.25,0,0,-1.25,0,184.5)"
       style="fill:url(#radialGradient5010);fill-opacity:1"><g
         id="g22"
         style="fill:url(#radialGradient10135);fill-opacity:1"><path
           d="m 2.422,38.688 v 68.945 l 59.858,34.478 59.859,-34.478 V 38.688 L 62.28,4.211 Z"
           style="fill:url(#radialGradient5012);fill-opacity:1;stroke:none"
           id="path30"
           inkscape:connector-curvature="0" /></g></g></g><g
     id="g10"
     inkscape:groupmode="layer"
     inkscape:label="Border"
     transform="matrix(1.25,0,0,-1.25,0,182.5)"
     style="display:inline"><path
       sodipodi:type="star"
       style="opacity:0.98000004;fill:none;fill-opacity:0.94117647;stroke:#000000;stroke-width:1.18706846;stroke-linecap:round;stroke-linejoin:miter;stroke-miterlimit:4;stroke-dasharray:none;stroke-dashoffset:0;stroke-opacity:1;paint-order:normal"
       id="path9947"
       sodipodi:sides="6"
       sodipodi:cx="61.964619"
       sodipodi:cy="-73.225227"
       sodipodi:r1="70.438324"
       sodipodi:r2="61.001381"
       sodipodi:arg1="0.52359878"
       sodipodi:arg2="1.0471976"
       inkscape:flatsided="true"
       inkscape:rounded="0"
       inkscape:randomized="0"
       d="M 122.966,-38.006065 61.964618,-2.7869034 0.96324057,-38.006066 l 3.1e-7,-70.438324 61.00137812,-35.21916 61.001381,35.21916 z"
       transform="scale(1,-1)" /><flowRoot
       xml:space="preserve"
       style="font-style:normal;font-variant:normal;font-weight:normal;font-stretch:normal;font-size:3.33333325px;line-height:1.25;font-family:Arial;-inkscape-font-specification:Arial;letter-spacing:0px;word-spacing:0px;fill:#8f5d9c;fill-opacity:0.94117647;stroke:none"
       id="flowRoot9965"
       transform="matrix(1,0,0,-1,1.3165913,-2.2322542)"><flowRegion
         id="flowRegion9967"
         style="fill:#8f5d9c;fill-opacity:0.94117647"><use
           x="0"
           y="0"
           xlink:href="#path9947"
           id="use9969"
           width="100%"
           height="100%" /></flowRegion><flowPara
         id="flowPara9971"
         style="font-style:normal;font-variant:normal;font-weight:normal;font-stretch:normal;font-family:'Aller Light';-inkscape-font-specification:'Aller Light, ';fill:#8f5d9c;fill-opacity:0.94117647">)</flowPara><flowPara
         style="font-style:normal;font-variant:normal;font-weight:normal;font-stretch:normal;font-family:'Aller Light';-inkscape-font-specification:'Aller Light, ';fill:#8f5d9c;fill-opacity:0.94117647"
         id="flowPara9981">))))))).[[[[[[[..[[[...........]]].[[[[[.......]]]]]..</flowPara><flowPara
         style="font-style:normal;font-variant:normal;font-weight:normal;font-stretch:normal;font-family:'Aller Light';-inkscape-font-specification:'Aller Light, ';fill:#8f5d9c;fill-opacity:0.94117647"
         id="flowPara9993">...[[[[[.......]]]]]]]]]]]].{{{{{{{..{{{.........</flowPara><flowPara
         style="font-style:normal;font-variant:normal;font-weight:normal;font-stretch:normal;font-family:'Aller Light';-inkscape-font-specification:'Aller Light, ';fill:#8f5d9c;fill-opacity:0.94117647"
         id="flowPara10001">..}}}.{{{{{.......}}}}}.....{{{{.......}}}}}}}}}}}}.&lt;&lt;&lt;</flowPara><flowPara
         id="flowPara9973"
         style="font-style:normal;font-variant:normal;font-weight:normal;font-stretch:normal;font-family:'Aller Light';-inkscape-font-specification:'Aller Light, ';fill:#8f5d9c;fill-opacity:0.94117647">&lt;&lt;&lt;&lt;..&lt;&lt;&lt;..........&gt;&gt;&gt;.&lt;&lt;&lt;&lt;&lt;.......&gt;&gt;&gt;&gt;&gt;....&lt;&lt;&lt;&lt;&lt;.......&gt;&gt;&gt;&gt;&gt;&gt;&gt;&gt;&gt;&gt;&gt;&gt;.(((((((..(((..........))).(((((.......))))).....(((((.......)))))))))))).[[[[[</flowPara><flowPara
         style="font-style:normal;font-variant:normal;font-weight:normal;font-stretch:normal;font-family:'Aller Light';-inkscape-font-specification:'Aller Light, ';fill:#8f5d9c;fill-opacity:0.94117647"
         id="flowPara10009">[[..[[[...........]]].[[[[[.......]]]]].....[[[[[.......]]]]]]]]]]]].{{{{{.{..{{{.........}}}.{{{{.......}}}}}.....{{{{{.......}}}}}}.}}}}}.&lt;&lt;&lt;&lt;&lt;&lt;&lt;..&lt;&lt;&lt;...........&gt;&gt;&gt;.&lt;&lt;&lt;&lt;&lt;.......&gt;&gt;&gt;&gt;&gt;.....&lt;&lt;&lt;&lt;&lt;.......&gt;&gt;&gt;&gt;&gt;&gt;&gt;&gt;&gt;&gt;&gt;&gt;.(((((((..((((........)))).(((((.......))))).....(((((.......)))))))))))).[[[[[[[..[[[[.......]]]].[[[[[.......]]]]]....[[[[[..</flowPara><flowPara
         style="font-style:normal;font-variant:normal;font-weight:normal;font-stretch:normal;font-family:'Aller Light';-inkscape-font-specification:'Aller Light, ';fill:#8f5d9c;fill-opacity:0.94117647"
         id="flowPara10013">.....]]]]]]]]]]]].{{{{{{{..{{{............}}}.{{{{{.......}}}}}.....{{{{{.......}}}}<flowSpan
   style="font-style:normal;font-variant:normal;font-weight:normal;font-stretch:normal;font-family:Aller;-inkscape-font-specification:Aller;fill:#c6a8cd;fill-opacity:0.94117647"
   id="flowSpan10447">}</flowSpan><flowSpan
   style="-inkscape-font-specification:Aller;font-family:Aller;font-weight:normal;font-style:normal;font-stretch:normal;font-variant:normal;fill:#c6a8cd;fill-opacity:0.94117647"
   id="flowSpan10723">}}</flowSpan>}}}}}.&lt;&lt;&lt;&lt;&lt;&lt;&lt;..&lt;&lt;&lt;&lt;.......</flowPara><flowPara
         style="font-style:normal;font-variant:normal;font-weight:normal;font-stretch:normal;font-family:'Aller Light';-inkscape-font-specification:'Aller Light, ';fill:#8f5d9c;fill-opacity:0.94117647"
         id="flowPara10025">&gt;&gt;&gt;&gt;.&lt;&lt;&lt;&lt;&lt;.......&gt;&gt;&gt;&gt;&gt;....&lt;&lt;&lt;&lt;&lt;.......&gt;&gt;&gt;&gt;&gt;&gt;&gt;&gt;&gt;&gt;&gt;&gt;.((<flowSpan
   style="font-style:normal;font-variant:normal;font-weight:normal;font-stretch:normal;font-family:Aller;-inkscape-font-specification:Aller;fill:#c6a8cd;fill-opacity:0.94117647"
   id="flowSpan10445">(.(((..(((</flowSpan><flowSpan
   style="fill:#c6a8cd;fill-opacity:0.94117647"
   id="flowSpan10721">....</flowSpan>....))).(((((.......)))))..(((..).))..(((((.......)))))))).))).[[[[[.[..[[[[........]]]].[[[[[.......]]]]].....[[[[[.......]]<flowSpan
   style="font-style:normal;font-variant:normal;font-weight:normal;font-stretch:normal;font-family:Aller;-inkscape-font-specification:Aller;fill:#c6a8cd;fill-opacity:0.94117647"
   id="flowSpan10443">]]]]</flowSpan>.]]]]].{{{{<flowSpan
   style="font-style:normal;font-variant:normal;font-weight:normal;font-stretch:normal;font-family:Aller;-inkscape-font-specification:Aller;fill:#c6a8cd;fill-opacity:0.94117647"
   id="flowSpan10449">{{{..</flowSpan>{{{...........}}}.{{{{{.....</flowPara><flowPara
         style="font-style:normal;font-variant:normal;font-weight:normal;font-stretch:normal;font-family:'Aller Light';-inkscape-font-specification:'Aller Light, ';fill:#8f5d9c;fill-opacity:0.94117647"
         id="flowPara10033">..}}}}}.....{{{{{.......}}}}}}}}}}}}.&lt;&lt;&lt;&lt;&lt;&lt;&lt;..&lt;&lt;&lt;&lt;........&gt;<flowSpan
   style="font-style:normal;font-variant:normal;font-weight:normal;font-stretch:normal;font-family:Aller;-inkscape-font-specification:Aller;fill:#c6a8cd;fill-opacity:0.94117647"
   id="flowSpan10441">&gt;&gt;</flowSpan>&gt;.&lt;&lt;&lt;&lt;&lt;.......&gt;&gt;<flowSpan
   style="font-style:normal;font-variant:normal;font-weight:normal;font-stretch:normal;font-family:Aller;-inkscape-font-specification:Aller;fill:#c6a8cd;fill-opacity:0.94117647"
   id="flowSpan10701">&gt;&gt;</flowSpan>&gt;.....&lt;&lt;&lt;&lt;&lt;.......</flowPara><flowPara
         style="font-style:normal;font-variant:normal;font-weight:normal;font-stretch:normal;font-family:'Aller Light';-inkscape-font-specification:'Aller Light, ';fill:#8f5d9c;fill-opacity:0.94117647"
         id="flowPara10039">&gt;&gt;&gt;&gt;&gt;&gt;&gt;&gt;&gt;&gt;&gt;&gt;.(((((((..(((...........))).(((((.......))))).....(<flowSpan
   style="font-style:normal;font-variant:normal;font-weight:normal;font-stretch:normal;font-family:Aller;-inkscape-font-specification:Aller;fill:#c6a8cd;fill-opacity:0.94117647"
   id="flowSpan10439">((((</flowSpan>.......)))))))))))).[[[[[[[.<flowSpan
   style="fill:#c6a8cd;fill-opacity:0.94117647"
   id="flowSpan10453"><flowSpan
     style="fill:#8f5d9c;fill-opacity:0.94117647"
     id="flowSpan10727">.[[[[</flowSpan><flowSpan
     style="font-style:normal;font-variant:normal;font-weight:normal;font-stretch:normal;font-family:Aller;-inkscape-font-specification:Aller"
     id="flowSpan10705">......</flowSpan></flowSpan>..]]]].[[[[[.......]]</flowPara><flowPara
         style="font-style:normal;font-variant:normal;font-weight:normal;font-stretch:normal;font-family:'Aller Light';-inkscape-font-specification:'Aller Light, ';fill:#8f5d9c;fill-opacity:0.94117647"
         id="flowPara10043">]]]....[[[[[.......]]]]]]]]]]]].{{{{{{{..{{{{........}}}}.{{{{{<flowSpan
   style="font-style:normal;font-variant:normal;font-weight:normal;font-stretch:normal;font-family:Aller;-inkscape-font-specification:Aller;fill:#c6a8cd;fill-opacity:0.94117647"
   id="flowSpan10351">.......}}}}}....{{{{{.......}}}}}}}}}}}</flowSpan>}.&lt;&lt;&lt;&lt;&lt;&lt;</flowPara><flowPara
         style="font-style:normal;font-variant:normal;font-weight:normal;font-stretch:normal;font-family:'Aller Light';-inkscape-font-specification:'Aller Light, ';fill:#8f5d9c;fill-opacity:0.94117647"
         id="flowPara10049">.&lt;&lt;&lt;&lt;....&gt;&gt;&gt;&gt;.&lt;&lt;&lt;&lt;&lt;.......&gt;&gt;&gt;<flowSpan
   style="font-style:normal;font-variant:normal;font-weight:normal;font-stretch:normal;font-family:Aller;-inkscape-font-specification:Aller;fill:#c6a8cd;fill-opacity:0.94117647"
   id="flowSpan10507">&gt;</flowSpan>&gt;.....&lt;&lt;&lt;&lt;&lt;......<flowSpan
   style="font-style:normal;font-variant:normal;font-weight:normal;font-stretch:normal;font-family:Aller;-inkscape-font-specification:Aller;fill:#c6a8cd;fill-opacity:0.94117647"
   id="flowSpan10353">.&gt;</flowSpan>&gt;<flowSpan
   style="font-style:normal;font-variant:normal;font-weight:normal;font-stretch:normal;font-family:Aller;-inkscape-font-specification:Aller;fill:#c6a8cd;fill-opacity:0.94117647"
   id="flowSpan10411">&gt;&gt;</flowSpan>&gt;&gt;&gt;&gt;&gt;&gt;&gt;&gt;.(((((((<flowSpan
   style="font-style:normal;font-variant:normal;font-weight:normal;font-stretch:normal;font-family:Aller;-inkscape-font-specification:Aller;fill:#c6a8cd;fill-opacity:0.94117647"
   id="flowSpan10385">..((</flowSpan>((....<flowSpan
   style="font-style:normal;font-variant:normal;font-weight:normal;font-stretch:normal;font-family:Aller;-inkscape-font-specification:Aller;fill:#c6a8cd;fill-opacity:0.94117647"
   id="flowSpan10675">...</flowSpan>))))(((((.......)))</flowPara><flowPara
         style="font-style:normal;font-variant:normal;font-weight:normal;font-stretch:normal;font-family:'Aller Light';-inkscape-font-specification:'Aller Light, ';fill:#8f5d9c;fill-opacity:0.94117647"
         id="flowPara10055">)).....(((((.......)))))))))))).[[[[[[[..[[[..<flowSpan
   style="font-style:normal;font-variant:normal;font-weight:normal;font-stretch:normal;font-family:Aller;-inkscape-font-specification:Aller;fill:#c6a8cd;fill-opacity:0.94117647"
   id="flowSpan10501">...</flowSpan>......]]].[[[[[.......]]]<flowSpan
   style="font-style:normal;font-variant:normal;font-weight:normal;font-stretch:normal;font-family:Aller;-inkscape-font-specification:Aller;fill:#c6a8cd;fill-opacity:0.94117647"
   id="flowSpan10355">]]</flowSpan>.[[[...<flowSpan
   style="font-style:normal;font-variant:normal;font-weight:normal;font-stretch:normal;font-family:Aller;-inkscape-font-specification:Aller;fill:#c6a8cd;fill-opacity:0.94117647"
   id="flowSpan10409">.]]]</flowSpan>..[[[[[......]]]]]<flowSpan
   style="font-style:normal;font-variant:normal;font-weight:normal;font-stretch:normal;font-family:Aller;-inkscape-font-specification:Aller;fill:#c6a8cd;fill-opacity:0.94117647"
   id="flowSpan10387">]]]]</flowSpan>]]].{<flowSpan
   style="fill:#c6a8cd;fill-opacity:0.94117647"
   id="flowSpan10369"><flowSpan
     style="fill:#8f5d9c;fill-opacity:0.94117647"
     id="flowSpan10683">{{</flowSpan><flowSpan
     style="font-style:normal;font-variant:normal;font-weight:normal;font-stretch:normal;font-family:Aller;-inkscape-font-specification:Aller"
     id="flowSpan10671">{{</flowSpan></flowSpan>{{..{{{{.......}}</flowPara><flowPara
         style="font-style:normal;font-variant:normal;font-weight:normal;font-stretch:normal;font-family:'Aller Light';-inkscape-font-specification:'Aller Light, ';fill:#8f5d9c;fill-opacity:0.94117647"
         id="flowPara10057">}}.{{{{{.......}}}}}.....{{{{{.......}}<flowSpan
   style="font-style:normal;font-variant:normal;font-weight:normal;font-stretch:normal;font-family:Aller;-inkscape-font-specification:Aller;fill:#c6a8cd;fill-opacity:0.94117647"
   id="flowSpan10499">}</flowSpan>}}}}}}}}}.&lt;&lt;&lt;&lt;&lt;<flowSpan
   style="font-style:normal;font-variant:normal;font-weight:normal;font-stretch:normal;font-family:Aller;-inkscape-font-specification:Aller;fill:#c6a8cd;fill-opacity:0.94117647"
   id="flowSpan10357">&lt;</flowSpan>&lt;..&lt;&lt;&lt;<flowSpan
   style="font-style:normal;font-variant:normal;font-weight:normal;font-stretch:normal;font-family:Aller;-inkscape-font-specification:Aller;fill:#c6a8cd;fill-opacity:0.94117647"
   id="flowSpan10407">&lt;...</flowSpan>.....&gt;&gt;<flowSpan
   style="font-style:normal;font-variant:normal;font-weight:normal;font-stretch:normal;font-family:Aller;-inkscape-font-specification:Aller;fill:#c6a8cd;fill-opacity:0.94117647"
   id="flowSpan10389">&gt;&gt;.</flowSpan>&lt;&lt;&lt;&lt;&lt;..<flowSpan
   style="font-style:normal;font-variant:normal;font-weight:normal;font-stretch:normal;font-family:Aller;-inkscape-font-specification:Aller;fill:#c6a8cd;fill-opacity:0.94117647"
   id="flowSpan10665">...</flowSpan>..&gt;&gt;&gt;&gt;&gt;...&lt;&lt;</flowPara><flowPara
         style="font-style:normal;font-variant:normal;font-weight:normal;font-stretch:normal;font-family:'Aller Light';-inkscape-font-specification:'Aller Light, ';fill:#8f5d9c;fill-opacity:0.94117647"
         id="flowPara10061">&lt;&lt;&lt;.......&gt;&gt;&gt;&gt;&gt;&gt;&gt;&gt;&gt;&gt;&gt;&gt;.((((<flowSpan
   style="font-style:normal;font-variant:normal;font-weight:normal;font-stretch:normal;font-family:Aller;-inkscape-font-specification:Aller;fill:#c6a8cd;fill-opacity:0.94117647"
   id="flowSpan10503">(((</flowSpan>..(((..........))).(((((.<flowSpan
   style="font-style:normal;font-variant:normal;font-weight:normal;font-stretch:normal;font-family:Aller;-inkscape-font-specification:Aller;fill:#c6a8cd;fill-opacity:0.94117647"
   id="flowSpan10359">...</flowSpan>...)))))....((((<flowSpan
   style="font-style:normal;font-variant:normal;font-weight:normal;font-stretch:normal;font-family:Aller;-inkscape-font-specification:Aller;fill:#c6a8cd;fill-opacity:0.94117647"
   id="flowSpan10391">(.......))</flowSpan>)))))))))).[[[[<flowSpan
   style="font-style:normal;font-variant:normal;font-weight:normal;font-stretch:normal;font-family:Aller;-inkscape-font-specification:Aller;fill:#c6a8cd;fill-opacity:0.94117647"
   id="flowSpan10375">[[</flowSpan><flowSpan
   style="font-style:normal;font-variant:normal;font-weight:normal;font-stretch:normal;font-family:Aller;-inkscape-font-specification:Aller;fill:#c6a8cd;fill-opacity:0.94117647"
   id="flowSpan10661">[</flowSpan>..[[[..........]]].[[</flowPara><flowPara
         style="font-style:normal;font-variant:normal;font-weight:normal;font-stretch:normal;font-family:'Aller Light';-inkscape-font-specification:'Aller Light, ';fill:#8f5d9c;fill-opacity:0.94117647"
         id="flowPara10065">[.......]]]]]....[[[[[.......]]]]]]]]]]]].{{{<flowSpan
   style="font-style:normal;font-variant:normal;font-weight:normal;font-stretch:normal;font-family:Aller;-inkscape-font-specification:Aller;fill:#c6a8cd;fill-opacity:0.94117647"
   id="flowSpan10505">{{</flowSpan>{{..{{{{.......}}}}.<flowSpan
   style="font-style:normal;font-variant:normal;font-weight:normal;font-stretch:normal;font-family:Aller;-inkscape-font-specification:Aller;fill:#c6a8cd;fill-opacity:0.94117647"
   id="flowSpan10361">{{</flowSpan>{{{.......}}<flowSpan
   style="font-style:normal;font-variant:normal;font-weight:normal;font-stretch:normal;font-family:Aller;-inkscape-font-specification:Aller;fill:#c6a8cd;fill-opacity:0.94117647"
   id="flowSpan10393">}}}...{{{</flowSpan>{{.......}}}}}<flowSpan
   style="font-style:normal;font-variant:normal;font-weight:normal;font-stretch:normal;font-family:Aller;-inkscape-font-specification:Aller;fill:#c6a8cd;fill-opacity:0.94117647"
   id="flowSpan10377">}</flowSpan><flowSpan
   style="fill:#c6a8cd;fill-opacity:0.94117647"
   id="flowSpan10659">}</flowSpan>}}}}}.&lt;&lt;&lt;&lt;&lt;</flowPara><flowPara
         style="font-style:normal;font-variant:normal;font-weight:normal;font-stretch:normal;font-family:'Aller Light';-inkscape-font-specification:'Aller Light, ';fill:#8f5d9c;fill-opacity:0.94117647"
         id="flowPara10073">&lt;&lt;..&lt;&lt;&lt;...........&gt;&gt;&gt;.&lt;&lt;&lt;&lt;&lt;.<flowSpan
   style="fill:#c6a8cd;fill-opacity:0.94117647"
   id="flowSpan10487">.<flowSpan
   style="font-style:normal;font-variant:normal;font-weight:normal;font-stretch:normal;font-family:Aller;-inkscape-font-specification:Aller"
   id="flowSpan10525">.....&gt;&gt;</flowSpan></flowSpan>&gt;&gt;&gt;.....&lt;&lt;&lt;&lt;<flowSpan
   style="font-style:normal;font-variant:normal;font-weight:normal;font-stretch:normal;font-family:Aller;-inkscape-font-specification:Aller;fill:#c6a8cd;fill-opacity:0.94117647"
   id="flowSpan10363">&lt;.</flowSpan>......&gt;&gt;<flowSpan
   style="font-style:normal;font-variant:normal;font-weight:normal;font-stretch:normal;font-family:Aller;-inkscape-font-specification:Aller;fill:#c6a8cd;fill-opacity:0.94117647"
   id="flowSpan10405">&gt;&gt;</flowSpan>&gt;&gt;&gt;&gt;&gt;<flowSpan
   style="fill:#c6a8cd;fill-opacity:0.94117647;-inkscape-font-specification:Aller;font-family:Aller;font-weight:normal;font-style:normal;font-stretch:normal;font-variant:normal"
   id="flowSpan10395">&gt;&gt;</flowSpan>&gt;.(((((((..<flowSpan
   style="font-style:normal;font-variant:normal;font-weight:normal;font-stretch:normal;font-family:Aller;-inkscape-font-specification:Aller;fill:#c6a8cd;fill-opacity:0.94117647"
   id="flowSpan10655">((</flowSpan>(...........)))(((((</flowPara><flowPara
         style="font-style:normal;font-variant:normal;font-weight:normal;font-stretch:normal;font-family:'Aller Light';-inkscape-font-specification:'Aller Light, ';fill:#8f5d9c;fill-opacity:0.94117647"
         id="flowPara10077">....))))).(((....)))..(((((....<flowSpan
   style="font-style:normal;font-variant:normal;font-weight:normal;font-stretch:normal;font-family:Aller;-inkscape-font-specification:Aller;fill:#c6a8cd;fill-opacity:0.94117647"
   id="flowSpan10471">...))</flowSpan>)))))))<flowSpan
   style="font-style:normal;font-variant:normal;font-weight:normal;font-stretch:normal;font-family:Aller;-inkscape-font-specification:Aller;fill:#c6a8cd;fill-opacity:0.94117647"
   id="flowSpan10489">))</flowSpan>).[[[<flowSpan
   style="font-style:normal;font-variant:normal;font-weight:normal;font-stretch:normal;font-family:Aller;-inkscape-font-specification:Aller;fill:#c6a8cd;fill-opacity:0.94117647"
   id="flowSpan10485">[</flowSpan>[[[..[[[[........]]]].<flowSpan
   style="fill:#c6a8cd;fill-opacity:0.94117647"
   id="flowSpan10365"><flowSpan
   style="font-style:normal;font-variant:normal;font-weight:normal;font-stretch:normal;font-family:Aller;-inkscape-font-specification:Aller"
   id="flowSpan10603">[</flowSpan>[</flowSpan>[[[..<flowSpan
   style="fill:#c6a8cd;fill-opacity:0.94117647"
   id="flowSpan10403"><flowSpan
   style="font-style:normal;font-variant:normal;font-weight:normal;font-stretch:normal;font-family:Aller;-inkscape-font-specification:Aller"
   id="flowSpan10629">.....</flowSpan>]</flowSpan>]]]].....[[[[[.......<flowSpan
   style="fill:#c6a8cd;fill-opacity:0.94117647;-inkscape-font-specification:Aller;font-family:Aller;font-weight:normal;font-style:normal;font-stretch:normal;font-variant:normal"
   id="flowSpan10397">]]]]]</flowSpan>]]]]]<flowSpan
   style="font-style:normal;font-variant:normal;font-weight:normal;font-stretch:normal;font-family:Aller;-inkscape-font-specification:Aller;fill:#c6a8cd;fill-opacity:0.94117647"
   id="flowSpan10381">]]</flowSpan>.{{{{{{{.{{{{..</flowPara><flowPara
         style="font-style:normal;font-variant:normal;font-weight:normal;font-stretch:normal;font-family:'Aller Light';-inkscape-font-specification:'Aller Light, ';fill:#8f5d9c;fill-opacity:0.94117647"
         id="flowPara10079">.....}}}}.{{{{{.......}<flowSpan
   style="font-style:normal;font-variant:normal;font-weight:normal;font-stretch:normal;font-family:Aller;-inkscape-font-specification:Aller;fill:#c6a8cd;fill-opacity:0.94117647"
   id="flowSpan10473">}}}}</flowSpan>..<flowSpan
   style="font-style:normal;font-variant:normal;font-weight:normal;font-stretch:normal;font-family:Aller;-inkscape-font-specification:Aller;fill:#c6a8cd;fill-opacity:0.94117647"
   id="flowSpan10469">..{{{</flowSpan>{{<flowSpan
   style="font-style:normal;font-variant:normal;font-weight:normal;font-stretch:normal;font-family:Aller;-inkscape-font-specification:Aller;fill:#c6a8cd;fill-opacity:0.94117647"
   id="flowSpan10491">..</flowSpan>.....}<flowSpan
   style="font-style:normal;font-variant:normal;font-weight:normal;font-stretch:normal;font-family:Aller;-inkscape-font-specification:Aller;fill:#c6a8cd;fill-opacity:0.94117647"
   id="flowSpan10483">}</flowSpan>}}}}}}}}}}.&lt;&lt;<flowSpan
   style="font-style:normal;font-variant:normal;font-weight:normal;font-stretch:normal;font-family:Aller;-inkscape-font-specification:Aller;fill:#c6a8cd;fill-opacity:0.94117647"
   id="flowSpan10367">&lt;&lt;&lt;</flowSpan>&lt;&lt;..&lt;&lt;&lt;..........&gt;&gt;&gt;.&lt;<flowSpan
   style="font-style:normal;font-variant:normal;font-weight:normal;font-stretch:normal;font-family:Aller;-inkscape-font-specification:Aller;fill:#c6a8cd;fill-opacity:0.94117647"
   id="flowSpan10399">&lt;&lt;&lt;&lt;</flowSpan><flowSpan
   style="-inkscape-font-specification:Aller;font-family:Aller;font-weight:normal;font-style:normal;font-stretch:normal;font-variant:normal;fill:#c6a8cd;fill-opacity:0.94117647"
   id="flowSpan10747">.</flowSpan>......&gt;&gt;&gt;&gt;&gt;....</flowPara><flowPara
         style="font-style:normal;font-variant:normal;font-weight:normal;font-stretch:normal;font-family:'Aller Light';-inkscape-font-specification:'Aller Light, ';fill:#8f5d9c;fill-opacity:0.94117647"
         id="flowPara10081">&lt;&lt;&lt;&lt;&lt;.......&gt;<flowSpan
   style="font-style:normal;font-variant:normal;font-weight:normal;font-stretch:normal;font-family:Aller;-inkscape-font-specification:Aller;fill:#c6a8cd;fill-opacity:0.94117647"
   id="flowSpan10475">&gt;&gt;&gt;</flowSpan>&gt;&gt;&gt;&gt;&gt;<flowSpan
   style="font-style:normal;font-variant:normal;font-weight:normal;font-stretch:normal;font-family:Aller;-inkscape-font-specification:Aller;fill:#c6a8cd;fill-opacity:0.94117647"
   id="flowSpan10467">&gt;&gt;&gt;</flowSpan>.(((<flowSpan
   style="font-style:normal;font-variant:normal;font-weight:normal;font-stretch:normal;font-family:Aller;-inkscape-font-specification:Aller;fill:#c6a8cd;fill-opacity:0.94117647"
   id="flowSpan10481">((</flowSpan>((..((((........)))).(<flowSpan
   style="font-style:normal;font-variant:normal;font-weight:normal;font-stretch:normal;font-family:Aller;-inkscape-font-specification:Aller;fill:#c6a8cd;fill-opacity:0.94117647"
   id="flowSpan10349">((((.......)))))....(((((.......))))))))))))</flowSpan>.[[[[[..........]]].[[[[[.<flowSpan
   style="fill:#c6a8cd;fill-opacity:0.94117647"
   id="flowSpan10477">.<flowSpan
   style="font-style:normal;font-variant:normal;font-weight:normal;font-stretch:normal;font-family:Aller;-inkscape-font-specification:Aller"
   id="flowSpan10547">.....]]</flowSpan></flowSpan>]]].[[[[...]]]]..[[[<flowSpan
   style="font-style:normal;font-variant:normal;font-weight:normal;font-stretch:normal;font-family:Aller;-inkscape-font-specification:Aller;fill:#c6a8cd;fill-opacity:0.94117647"
   id="flowSpan10465">[[.......]</flowSpan>]]]]]]]]]]].{{{.{{{..{{{{.......}}}}.{{{{{.......}}}}}.....{{{{{...</flowPara><flowPara
         style="font-style:normal;font-variant:normal;font-weight:normal;font-stretch:normal;font-family:'Aller Light';-inkscape-font-specification:'Aller Light, ';fill:#8f5d9c;fill-opacity:0.94117647"
         id="flowPara10085">....}}}}}}}}.}}}.&lt;&lt;&lt;&lt;<flowSpan
   style="font-style:normal;font-variant:normal;font-weight:normal;font-stretch:normal;font-family:Aller;-inkscape-font-specification:Aller;fill:#c6a8cd;fill-opacity:0.94117647"
   id="flowSpan10463">&lt;&lt;&lt;</flowSpan>..&lt;&lt;&lt;...........&gt;&gt;&gt;.&lt;&lt;&lt;&lt;&lt;.......&gt;&gt;&gt;&gt;&gt;.&lt;&lt;&lt;....&gt;&gt;&gt;..&lt;&lt;&lt;&lt;&lt;.......&gt;&gt;&gt;<flowSpan
   style="font-style:normal;font-variant:normal;font-weight:normal;font-stretch:normal;font-family:Aller;-inkscape-font-specification:Aller;fill:#c6a8cd;fill-opacity:0.94117647"
   id="flowSpan10461">&gt;&gt;</flowSpan>&gt;&gt;&gt;&gt;&gt;&gt;&gt;.(((((((..((((........)))(((((.......))</flowPara><flowPara
         style="font-style:normal;font-variant:normal;font-weight:normal;font-stretch:normal;font-family:'Aller Light';-inkscape-font-specification:'Aller Light, ';fill:#8f5d9c;fill-opacity:0.94117647"
         id="flowPara10119">))).....(((((.......)))))<flowSpan
   style="font-style:normal;font-variant:normal;font-weight:normal;font-stretch:normal;font-family:Aller;-inkscape-font-specification:Aller;fill:#c6a8cd;fill-opacity:0.94117647"
   id="flowSpan10459">))))))</flowSpan>).[[[[[[[..[[[[.......]]]].[[[[[...</flowPara><flowPara
         style="font-style:normal;font-variant:normal;font-weight:normal;font-stretch:normal;font-family:'Aller Light';-inkscape-font-specification:'Aller Light, ';fill:#8f5d9c;fill-opacity:0.94117647"
         id="flowPara10133">....]]]]].....[[[[[...<flowSpan
   style="font-style:normal;font-variant:normal;font-weight:normal;font-stretch:normal;font-family:Aller;-inkscape-font-specification:Aller;fill:#c6a8cd;fill-opacity:0.94117647"
   id="flowSpan10457">....]]]</flowSpan>]]]]]]]]].{{{{{{{..{{{...........}}}<flowSpan
   style="font-style:normal;font-variant:normal;font-weight:normal;font-stretch:normal;font-family:Aller;-inkscape-font-specification:Aller;fill:#c6a8cd;fill-opacity:0.94117647"
   id="flowSpan10455">.{{{</flowSpan>...}}}</flowPara><flowPara
         style="font-style:normal;font-variant:normal;font-weight:normal;font-stretch:normal;font-family:Aller;-inkscape-font-specification:Aller;fill:#c6a8cd;fill-opacity:0.94117647"
         id="flowPara10157">8[[[....]]]]]]</flowPara></flowRoot><g
       id="g32"
       transform="translate(0,109.0332)"
       inkscape:export-filename="/Users/Luke/Downloads/title.png"
       inkscape:export-xdpi="300"
       inkscape:export-ydpi="300"><path
         d="m 0,0 0,-71.745 62.28,-35.872 62.28,35.872 L 124.56,0 62.28,35.872 0,0 Z m 4.844,-68.945 0,66.145 57.436,33.082 57.436,-33.082 0,-66.145 -57.436,-33.082 -57.436,33.082 z"
         style="fill:#b388bf;fill-opacity:1;fill-rule:nonzero;stroke:none"
         id="path34"
         inkscape:connector-curvature="0" /></g></g><g
     inkscape:groupmode="layer"
     id="layer3"
     inkscape:label="Bioconductor"
     style="display:inline"><g
       transform="matrix(1.25,0,0,-1.25,0,182.5)"
       id="g238"><g
         id="g240"
         clip-path="url(#clipPath242)"><text
   transform="matrix(0.86677474,0.49869985,0.49869985,-0.86677474,61.7652,8.9448)"
   style="font-variant:normal;font-weight:300;font-stretch:normal;line-height:0%;font-family:'Aller Light';-inkscape-font-specification:Aller-Light;writing-mode:lr-tb;fill:#ffffff;fill-opacity:1;fill-rule:nonzero;stroke:none"
   id="text246"><tspan
     x="0 2.7680008 5.5360017 8.1840029 8.7640028 10.884004 11.736004 13.792004 15.412405 17.468405 19.516405 21.616405 23.676407 25.356407 26.472408 28.528408 29.408409 29.988409 32.044411 33.16441 0 2.7680008 5.5360017 8.1840029 8.7640028 10.884004 11.736004 13.792004 15.412405 17.468405 19.516405 21.616405 23.676407 25.356407 26.472408 28.528408 29.408409 29.988409 32.044411 33.16441"
     y="0"
     sodipodi:role="line"
     id="tspan248"
     style="font-size:4.00000095px;line-height:1.25">www.bioconductor.orgwww.bioconductor.org</tspan></text>

</g></g></g><g
     inkscape:groupmode="layer"
     id="layer2"
     inkscape:label="Logo"
     style="display:inline" /><g
     inkscape:groupmode="layer"
     id="layer1"
     inkscape:label="Title"
     style="display:inline"><text
   transform="scale(1.0000201,0.99997991)"
   style="font-variant:normal;font-weight:300;font-stretch:normal;line-height:0%;font-family:'Aller Light';-inkscape-font-specification:Aller-Light;writing-mode:lr-tb;fill:#ffffff;fill-opacity:1;fill-rule:nonzero;stroke:none"
   id="text36"
   x="17.068033"
   y="68.652878"><tspan
     sodipodi:role="line"
     id="tspan38"
     x="17.068033"
     y="68.652878"
     style="font-size:21.79843712px;line-height:1.25">Structstrings</tspan></text>

</g></svg>