<?xml version="1.0" encoding="utf-8"?>
<!-- Generator: Adobe Illustrator 16.0.4, SVG Export Plug-In . SVG Version: 6.00 Build 0)  -->
<!DOCTYPE svg PUBLIC "-//W3C//DTD SVG 1.1//EN" "http://www.w3.org/Graphics/SVG/1.1/DTD/svg11.dtd">
<svg version="1.1"
	 id="svg2" xmlns:sodipodi="http://sodipodi.sourceforge.net/DTD/sodipodi-0.dtd" xmlns:dc="http://purl.org/dc/elements/1.1/" xmlns:svg="http://www.w3.org/2000/svg" xmlns:cc="http://creativecommons.org/ns#" xmlns:rdf="http://www.w3.org/1999/02/22-rdf-syntax-ns#" xmlns:inkscape="http://www.inkscape.org/namespaces/inkscape" inkscape:version="0.91 r13725" sodipodi:docname="inkscape_template.svg"
	 xmlns="http://www.w3.org/2000/svg" xmlns:xlink="http://www.w3.org/1999/xlink" x="0px" y="0px" width="155.699px"
	 height="182.5px" viewBox="0 0 155.699 182.5" enable-background="new 0 0 155.699 182.5" xml:space="preserve">
<sodipodi:namedview  bordercolor="#666666" inkscape:zoom="2.5863014" showgrid="false" borderopacity="1" inkscape:cx="50.566365" gridtolerance="10" guidetolerance="10" pagecolor="#ffffff" objecttolerance="10" inkscape:cy="75.545513" id="namedview4" inkscape:current-layer="g10" inkscape:window-maximized="0" inkscape:window-y="48" inkscape:window-x="222" inkscape:window-height="858" inkscape:window-width="1291" inkscape:pageshadow="2" inkscape:pageopacity="0">
	</sodipodi:namedview>
<g>
	<defs>
		<polygon id="SVGID_1_" points="3.028,134.141 3.028,47.959 77.85,4.861 152.674,47.959 152.674,134.141 77.85,177.236 		"/>
	</defs>
	<clipPath id="SVGID_2_">
		<use xlink:href="#SVGID_1_"  overflow="visible"/>
	</clipPath>
	<g id="g14" transform="matrix(1.25,0,0,-1.25,0,182.5)" clip-path="url(#SVGID_2_)">
		<g id="g20">
			<g id="g22">
				
					<radialGradient id="path30_1_" cx="-1282.7178" cy="-878.1548" r="0.9999" gradientTransform="matrix(80.709 0 0 -80.706 103591.9609 -70835.6797)" gradientUnits="userSpaceOnUse">
					<stop  offset="0" style="stop-color:#FEC255"/>
					<stop  offset="1" style="stop-color:#F6871F"/>
				</radialGradient>
				<path id="path30" inkscape:connector-curvature="0" fill="url(#path30_1_)" stroke="#FFFFFF" stroke-miterlimit="10" d="
					M2.422,38.687v68.945l59.858,34.478l59.859-34.478V38.687L62.28,4.211L2.422,38.687z"/>
			</g>
		</g>
	</g>
	<use xlink:href="#SVGID_1_"  overflow="visible" fill="none" stroke="#FFFFFF" stroke-miterlimit="10"/>
</g>
<g id="g32" transform="translate(0,109.0332)" inkscape:export-ydpi="300" inkscape:export-xdpi="300" inkscape:export-filename="/Users/Luke/Downloads/title.png">
	<path id="path34" inkscape:connector-curvature="0" fill="#FFDBB3" d="M0-62.825v89.681l77.85,44.84l77.85-44.84v-89.681
		l-77.85-44.84L0-62.825z M6.055,23.357v-82.681l71.795-41.353l71.795,41.353v82.681L77.85,64.709L6.055,23.357z"/>
</g>
<g id="g238" transform="matrix(1.25,0,0,-1.25,0,182.5)">
	<g>
		<defs>
			<rect id="SVGID_3_" x="-15.57" y="-18.25" width="155.699" height="182.5"/>
		</defs>
		<clipPath id="SVGID_4_">
			<use xlink:href="#SVGID_3_"  overflow="visible"/>
		</clipPath>
		<g id="g240" clip-path="url(#SVGID_4_)">
			
				<text transform="matrix(0.6934 0.399 0.399 -0.6934 61.7545 8.9874)" fill="#FFFFFF" font-family="'MyriadPro-Regular'" font-size="5">w</text>
			
				<text transform="matrix(0.6934 0.399 0.399 -0.6934 64.1533 10.3671)" fill="#FFFFFF" font-family="'MyriadPro-Regular'" font-size="5">w</text>
			
				<text transform="matrix(0.6934 0.399 0.399 -0.6934 66.5526 11.7484)" fill="#FFFFFF" font-family="'MyriadPro-Regular'" font-size="5">w</text>
			
				<text transform="matrix(0.6934 0.399 0.399 -0.6934 68.8486 13.0687)" fill="#FFFFFF" font-family="'ArialHebrew-Light'" font-size="5">.</text>
			
				<text transform="matrix(0.6934 0.399 0.399 -0.6934 69.351 13.3577)" fill="#FFFFFF" font-family="'MyriadPro-Regular'" font-size="5">b</text>
			
				<text transform="matrix(0.6934 0.399 0.399 -0.6934 71.1877 14.4148)" fill="#FFFFFF" font-family="'MyriadPro-Regular'" font-size="5">i</text>
			
				<text transform="matrix(0.6934 0.399 0.399 -0.6934 71.9276 14.8406)" fill="#FFFFFF" font-family="'MyriadPro-Regular'" font-size="5">o</text>
			
				<text transform="matrix(0.6934 0.399 0.399 -0.6934 73.7096 15.8655)" fill="#FFFFFF" font-family="'MyriadPro-Regular'" font-size="5">c</text>
			
				<text transform="matrix(0.6934 0.399 0.399 -0.6934 75.1135 16.6734)" fill="#FFFFFF" font-family="'MyriadPro-Regular'" font-size="5">o</text>
			
				<text transform="matrix(0.6934 0.399 0.399 -0.6934 76.8955 17.6992)" fill="#FFFFFF" font-family="'MyriadPro-Regular'" font-size="5">n</text>
			
				<text transform="matrix(0.6934 0.399 0.399 -0.6934 78.6705 18.7203)" fill="#FFFFFF" font-family="'MyriadPro-Regular'" font-size="5">d</text>
			
				<text transform="matrix(0.6934 0.399 0.399 -0.6934 80.4916 19.7672)" fill="#FFFFFF" font-family="'MyriadPro-Regular'" font-size="5">u</text>
			
				<text transform="matrix(0.6934 0.399 0.399 -0.6934 82.2767 20.7945)" fill="#FFFFFF" font-family="'MyriadPro-Regular'" font-size="5">c</text>
			
				<text transform="matrix(0.6934 0.399 0.399 -0.6934 83.7323 21.6328)" fill="#FFFFFF" font-family="'MyriadPro-Regular'" font-size="5">t</text>
			
				<text transform="matrix(0.6934 0.399 0.399 -0.6934 84.7002 22.189)" fill="#FFFFFF" font-family="'MyriadPro-Regular'" font-size="5">o</text>
			
				<text transform="matrix(0.6934 0.399 0.399 -0.6934 86.4814 23.214)" fill="#FFFFFF" font-family="'MyriadPro-Regular'" font-size="5">r</text>
			
				<text transform="matrix(0.6934 0.399 0.399 -0.6934 87.2455 23.6531)" fill="#FFFFFF" font-family="'ArialHebrew-Light'" font-size="5">.</text>
			
				<text transform="matrix(0.6934 0.399 0.399 -0.6934 87.7471 23.9421)" fill="#FFFFFF" font-family="'MyriadPro-Regular'" font-size="5">o</text>
			
				<text transform="matrix(0.6934 0.399 0.399 -0.6934 89.5299 24.9679)" fill="#FFFFFF" font-family="'MyriadPro-Regular'" font-size="5">r</text>
			
				<text transform="matrix(0.6934 0.399 0.399 -0.6934 90.5002 25.5265)" fill="#FFFFFF" font-family="'MyriadPro-Regular'" font-size="5">g</text>
			
				<text transform="matrix(0.6934 0.399 0.399 -0.6934 64.1533 10.3671)" fill="#FFFFFF" font-family="'MyriadPro-Regular'" font-size="5">w</text>
			
				<text transform="matrix(0.6934 0.399 0.399 -0.6934 66.5526 11.7484)" fill="#FFFFFF" font-family="'MyriadPro-Regular'" font-size="5">w</text>
			
				<text transform="matrix(0.6934 0.399 0.399 -0.6934 68.8486 13.0687)" fill="#FFFFFF" font-family="'ArialHebrew-Light'" font-size="5">.</text>
			
				<text transform="matrix(0.6934 0.399 0.399 -0.6934 69.351 13.3577)" fill="#FFFFFF" font-family="'MyriadPro-Regular'" font-size="5">b</text>
			
				<text transform="matrix(0.6934 0.399 0.399 -0.6934 71.1877 14.4148)" fill="#FFFFFF" font-family="'MyriadPro-Regular'" font-size="5">i</text>
			
				<text transform="matrix(0.6934 0.399 0.399 -0.6934 71.9276 14.8406)" fill="#FFFFFF" font-family="'MyriadPro-Regular'" font-size="5">o</text>
			
				<text transform="matrix(0.6934 0.399 0.399 -0.6934 73.7096 15.8655)" fill="#FFFFFF" font-family="'MyriadPro-Regular'" font-size="5">c</text>
			
				<text transform="matrix(0.6934 0.399 0.399 -0.6934 75.1135 16.6734)" fill="#FFFFFF" font-family="'MyriadPro-Regular'" font-size="5">o</text>
			
				<text transform="matrix(0.6934 0.399 0.399 -0.6934 78.6705 18.7203)" fill="#FFFFFF" font-family="'MyriadPro-Regular'" font-size="5">d</text>
			
				<text transform="matrix(0.6934 0.399 0.399 -0.6934 80.4916 19.7672)" fill="#FFFFFF" font-family="'MyriadPro-Regular'" font-size="5">u</text>
			
				<text transform="matrix(0.6934 0.399 0.399 -0.6934 82.2767 20.7945)" fill="#FFFFFF" font-family="'MyriadPro-Regular'" font-size="5">c</text>
			
				<text transform="matrix(0.6934 0.399 0.399 -0.6934 83.7323 21.6328)" fill="#FFFFFF" font-family="'MyriadPro-Regular'" font-size="5">t</text>
			
				<text transform="matrix(0.6934 0.399 0.399 -0.6934 84.7002 22.189)" fill="#FFFFFF" font-family="'MyriadPro-Regular'" font-size="5">o</text>
			
				<text transform="matrix(0.6934 0.399 0.399 -0.6934 86.4814 23.214)" fill="#FFFFFF" font-family="'MyriadPro-Regular'" font-size="5">r</text>
			
				<text transform="matrix(0.6934 0.399 0.399 -0.6934 87.2455 23.6531)" fill="#FFFFFF" font-family="'ArialHebrew-Light'" font-size="5">.</text>
			
				<text transform="matrix(0.6934 0.399 0.399 -0.6934 87.7471 23.9421)" fill="#FFFFFF" font-family="'MyriadPro-Regular'" font-size="5">o</text>
			
				<text transform="matrix(0.6934 0.399 0.399 -0.6934 89.5299 24.9679)" fill="#FFFFFF" font-family="'MyriadPro-Regular'" font-size="5">r</text>
			
				<text transform="matrix(0.6934 0.399 0.399 -0.6934 90.5002 25.5265)" fill="#FFFFFF" font-family="'MyriadPro-Regular'" font-size="5">g</text>
		</g>
	</g>
</g>
<text transform="matrix(1 0 0 1 37.7136 64.6525)" fill="#FFFFFF" font-family="'Aller'" font-size="21.7984">VULCAN</text>
<g>
	<circle fill="#FFFFFF" cx="26.068" cy="99.086" r="1.333"/>
	<circle fill="#FFFFFF" cx="48.068" cy="104.418" r="1.333"/>
	<circle fill="#FFFFFF" cx="58.068" cy="118.752" r="1.667"/>
	<circle fill="#FFFFFF" cx="75.401" cy="126.752" r="1"/>
	<circle fill="#FFFFFF" cx="104.234" cy="124.751" r="2.167"/>
	<circle fill="#FFFFFF" cx="101.402" cy="139.085" r="1.333"/>
	<circle fill="#FFFFFF" cx="80.068" cy="141.751" r="1.333"/>
	<line fill="none" stroke="#FFFFFF" stroke-miterlimit="10" x1="26.068" y1="99.086" x2="48.068" y2="104.418"/>
	<line fill="none" stroke="#FFFFFF" stroke-miterlimit="10" x1="48.068" y1="104.418" x2="58.068" y2="118.752"/>
	<line fill="none" stroke="#FFFFFF" stroke-miterlimit="10" x1="58.068" y1="118.752" x2="75.401" y2="126.752"/>
	<line fill="none" stroke="#FFFFFF" stroke-miterlimit="10" x1="75.401" y1="126.752" x2="104.235" y2="124.751"/>
	<line fill="none" stroke="#FFFFFF" stroke-miterlimit="10" x1="104.235" y1="124.751" x2="101.401" y2="139.085"/>
	<line fill="none" stroke="#FFFFFF" stroke-miterlimit="10" x1="101.401" y1="139.085" x2="80.069" y2="141.751"/>
	<line fill="none" stroke="#FFFFFF" stroke-miterlimit="10" x1="80.069" y1="141.751" x2="75.401" y2="126.752"/>
</g>
<g>
	<g>
		<circle fill="#FFFFFF" cx="112.319" cy="94.519" r="13.75"/>
	</g>
	<g>
		<path fill="#EFA750" d="M110.207,99.529C95.303,93.251,83.76,86.193,82.719,82.898c-0.299,0.15-0.51,0.345-0.612,0.59
			c-1.166,2.768,11.144,10.595,27.494,17.482s30.551,10.228,31.717,7.46c0.103-0.245,0.096-0.53-0.005-0.85
			C138.227,109.137,125.114,105.809,110.207,99.529z"/>
	</g>
	<path fill="#FFFFFF" d="M114.43,89.508c10.488,4.418,18.341,9.541,17.539,11.444c-0.802,1.902-9.953-0.137-20.441-4.555
		c-10.489-4.418-18.341-9.542-17.539-11.444C94.79,83.05,103.941,85.089,114.43,89.508c-16.351-6.888-30.551-10.228-31.717-7.46
		s11.145,10.594,27.494,17.482c16.352,6.888,30.551,10.228,31.717,7.46C143.09,104.223,130.781,96.396,114.43,89.508z"/>
</g>
<g opacity="0.3">
	<g opacity="0.5">
		<g>
			<line fill="none" stroke="#FFFFFF" stroke-miterlimit="10" x1="17.33" y1="135.084" x2="136.291" y2="135.084"/>
			<g>
				<polygon fill="#FFFFFF" points="135.867,136.53 138.371,135.084 135.867,133.638 				"/>
			</g>
		</g>
	</g>
	<path opacity="0.5" fill="none" stroke="#FFFFFF" stroke-width="0.5" stroke-miterlimit="10" d="M17.33,135.417
		c18.667-2.333,22.02-0.166,25.354-2.333s5.313-30.512,9.313-29.423s3.353,28.256,6.687,30.089s28.334,1.168,30.667,1.334
		c2.334,0.166,25.666,0.166,27.334-1.334c1.666-1.5,1.568-17.666,4.666-17.666c3,0,2.389,15.833,4.723,17.333
		s4.567,1.364,7.611,1.667"/>
</g>
<g opacity="0.15">
	<g>
		<line fill="none" stroke="#FFFFFF" stroke-miterlimit="10" x1="17.33" y1="135.084" x2="17.33" y2="102.569"/>
		<g>
			<polygon fill="#FFFFFF" points="18.825,103.008 17.33,100.417 15.834,103.008 			"/>
		</g>
	</g>
</g>
<line opacity="0.15" fill="none" stroke="#FFFFFF" stroke-miterlimit="10" x1="44.183" y1="133.583" x2="49.401" y2="133.583"/>
<line opacity="0.15" fill="none" stroke="#FFFFFF" stroke-miterlimit="10" x1="51.349" y1="133.583" x2="56.567" y2="133.583"/>
<line opacity="0.15" fill="none" stroke="#FFFFFF" stroke-miterlimit="10" x1="48.068" y1="131.282" x2="53.285" y2="131.282"/>
<line opacity="0.15" fill="none" stroke="#FFFFFF" stroke-miterlimit="10" x1="45.459" y1="128.981" x2="50.676" y2="128.981"/>
<line opacity="0.15" fill="none" stroke="#FFFFFF" stroke-miterlimit="10" x1="49.401" y1="126.68" x2="54.618" y2="126.68"/>
<line opacity="0.15" fill="none" stroke="#FFFFFF" stroke-miterlimit="10" x1="46.793" y1="124.379" x2="52.01" y2="124.379"/>
<line opacity="0.15" fill="none" stroke="#FFFFFF" stroke-miterlimit="10" x1="49.401" y1="122.078" x2="54.618" y2="122.078"/>
<line opacity="0.15" fill="none" stroke="#FFFFFF" stroke-miterlimit="10" x1="46.793" y1="119.776" x2="52.01" y2="119.776"/>
<line opacity="0.15" fill="none" stroke="#FFFFFF" stroke-miterlimit="10" x1="49.402" y1="117.476" x2="54.619" y2="117.476"/>
<line opacity="0.15" fill="none" stroke="#FFFFFF" stroke-miterlimit="10" x1="48.068" y1="115.175" x2="53.285" y2="115.175"/>
<line opacity="0.15" fill="none" stroke="#FFFFFF" stroke-miterlimit="10" x1="48.741" y1="112.873" x2="53.958" y2="112.873"/>
<line opacity="0.15" fill="none" stroke="#FFFFFF" stroke-miterlimit="10" x1="48.741" y1="110.572" x2="53.958" y2="110.572"/>
<line opacity="0.15" fill="none" stroke="#FFFFFF" stroke-miterlimit="10" x1="48.741" y1="108.272" x2="53.958" y2="108.272"/>
<line opacity="0.15" fill="none" stroke="#FFFFFF" stroke-miterlimit="10" x1="116.959" y1="133.583" x2="122.176" y2="133.583"/>
<line opacity="0.15" fill="none" stroke="#FFFFFF" stroke-miterlimit="10" x1="119.568" y1="131.417" x2="124.785" y2="131.417"/>
<line opacity="0.15" fill="none" stroke="#FFFFFF" stroke-miterlimit="10" x1="117.792" y1="129.251" x2="123.01" y2="129.251"/>
<line opacity="0.15" fill="none" stroke="#FFFFFF" stroke-miterlimit="10" x1="119.568" y1="127.084" x2="124.785" y2="127.084"/>
<line opacity="0.15" fill="none" stroke="#FFFFFF" stroke-miterlimit="10" x1="118.792" y1="124.918" x2="124.01" y2="124.918"/>
<line opacity="0.15" fill="none" stroke="#FFFFFF" stroke-miterlimit="10" x1="118.791" y1="122.752" x2="124.009" y2="122.752"/>
</svg>
