<?xml version="1.0" encoding="UTF-8"?><svg id="Layer_2" xmlns="http://www.w3.org/2000/svg" xmlns:xlink="http://www.w3.org/1999/xlink" viewBox="0 0 600 600"><defs><style>.cls-1{stroke:#353447;}.cls-1,.cls-2,.cls-3,.cls-4,.cls-5,.cls-6,.cls-7,.cls-8,.cls-9,.cls-10,.cls-11,.cls-12,.cls-13{stroke-miterlimit:10;}.cls-1,.cls-2,.cls-3,.cls-4,.cls-5,.cls-6,.cls-7,.cls-8,.cls-9,.cls-11,.cls-13{fill:none;}.cls-1,.cls-2,.cls-4,.cls-12{stroke-width:1.13px;}.cls-2{stroke:#455e57;}.cls-3{stroke:#16732a;stroke-width:.56px;}.cls-4{stroke:#fdc65f;}.cls-14{clip-path:url(#clippath);}.cls-5,.cls-6,.cls-7{stroke-width:.85px;}.cls-5,.cls-9{stroke:#e7a034;}.cls-6,.cls-8,.cls-12{stroke:#d38a17;}.cls-7{stroke:#bc7920;}.cls-15{fill:#f3a93e;}.cls-16{fill:#f9c36e;}.cls-17{fill:#00440f;}.cls-18{fill:#f5ce65;}.cls-19,.cls-12{fill:#e7a034;}.cls-20{fill:#e3f7ff;}.cls-21{fill:#edb158;}.cls-22{fill:#fdc65f;}.cls-23{fill:#7d966c;}.cls-24{fill:#8aca25;}.cls-25{fill:#a25c14;}.cls-26{fill:#9eb183;}.cls-27{fill:#9e474d;}.cls-28{fill:#8f928e;}.cls-29{fill:#333;}.cls-30{fill:#304a43;}.cls-31{fill:#af494c;}.cls-32{fill:#d8a55b;}.cls-33{fill:#bc7920;}.cls-34{fill:#a9928a;}.cls-35{fill:#d38a17;}.cls-36{fill:#d4d3d2;}.cls-37{fill:#d69241;}.cls-38{fill:#dbe3ed;}.cls-39{fill:#d8954c;}.cls-40{fill:#c8c7c2;}.cls-41{fill:#e0993b;}.cls-42{fill:#16732a;}.cls-43{fill:#232323;}.cls-44{fill:#0e0c16;}.cls-45{fill:#1b1b26;}.cls-46{fill:#6f6c67;}.cls-47{fill:#87817b;}.cls-48{fill:#292738;}.cls-49{fill:#353447;}.cls-50{fill:#2e423c;}.cls-51{fill:#3792ad;}.cls-52{fill:#83a16f;}.cls-53{fill:#455e57;}.cls-8{stroke-width:2.29px;}.cls-9{stroke-width:3.38px;}.cls-54{opacity:.5;}.cls-10{font-size:50.88px;stroke-width:.75px;}.cls-10,.cls-11{stroke:#000;}.cls-10,.cls-55{font-family:Aller-Light, Aller;}.cls-11{stroke-width:.87px;}.cls-13{stroke:#83a16f;stroke-width:16px;}.cls-55{font-size:25.89px;}</style><clipPath id="clippath"><polygon class="cls-13" points="57.3 156.77 57.3 437.02 300 577.15 542.7 437.02 542.7 156.77 300 16.64 57.3 156.77"/></clipPath></defs><g><g class="cls-14"><rect class="cls-20" x="-21.88" y="-40.7" width="727.26" height="554.86"/><rect class="cls-47" x="237.5" y="533.86" width="122.31" height="46.9"/><g id="building"><g id="R_side_of_building"><g id="small_side_roof"><g id="roof"><path class="cls-23" d="M472.4,292.22s38.87,6.45,34.88,44.27l-26.45-2.94-15.55-41.33h7.11"/><path class="cls-23" d="M446.57,293.4s-38.87,6.45-34.88,44.27l26.45-2.94,15.55-41.33h-7.11"/><path class="cls-26" d="M468.42,290.89s18.86-3.98,16.59,38.96l-10.05-.38-6.54-38.58Z"/><path class="cls-26" d="M454.91,290.56s-18.86-3.98-16.59,38.96l10.05-.38,6.54-38.58Z"/><path class="cls-52" d="M455.19,290.65s-15.83-3.51-12.23,38.77l37.25,.47s5.12-40-13.84-39.15l-11.19-.09Z"/></g><g id="roof_topping"><ellipse class="cls-53" cx="461.28" cy="279.2" rx="1.33" ry="2.64"/><path class="cls-52" d="M473.21,292.32c0,4.89-5.36,8.85-11.97,8.85s-11.97-3.96-11.97-8.85,5.31-12.66,11.92-12.66,12.02,7.77,12.02,12.66Z"/><path class="cls-53" d="M442.5,290.65l1.06,2.73c.26,.67,.91,1.12,1.63,1.11l31.79-.23c.64,0,1.22-.35,1.53-.91l1.49-2.7h-37.5Z"/></g></g><rect class="cls-27" x="488.56" y="364.96" width="31.1" height="192.59"/><rect class="cls-31" x="415.28" y="365.14" width="57.23" height="192.76"/><g id="building_base"><polygon class="cls-36" points="473.35 557.71 415.32 557.93 415.17 503.01 474.1 503.08 473.35 557.71"/><polygon class="cls-36" points="521.78 573.85 489.25 572.86 488.5 502.83 520.04 510.78 521.78 573.85"/></g><g id="fence_at_top"><g id="side_fence_posts"><line class="cls-6" x1="490.88" y1="322.53" x2="490.88" y2="330.47"/><line class="cls-6" x1="507.54" y1="329.84" x2="507.54" y2="337.78"/><line class="cls-6" x1="505.33" y1="329.88" x2="505.33" y2="337.83"/><line class="cls-6" x1="493.51" y1="323.32" x2="493.51" y2="331.26"/><line class="cls-6" x1="498.28" y1="325.16" x2="498.28" y2="333.11"/><line class="cls-6" x1="496.06" y1="325.21" x2="496.06" y2="333.16"/></g><g id="front_fence_posts"><line class="cls-5" x1="441.51" y1="319.83" x2="441.51" y2="333.3"/><line class="cls-5" x1="444.97" y1="319.95" x2="444.97" y2="333.42"/><line class="cls-5" x1="448.43" y1="320.07" x2="448.43" y2="333.55"/><line class="cls-5" x1="451.88" y1="320.32" x2="451.88" y2="333.79"/><line class="cls-5" x1="465.72" y1="320.38" x2="465.72" y2="333.86"/><line class="cls-5" x1="462.26" y1="320.38" x2="462.26" y2="333.86"/><line class="cls-5" x1="458.8" y1="320.45" x2="458.8" y2="333.92"/><line class="cls-5" x1="455.34" y1="320.45" x2="455.34" y2="333.92"/><line class="cls-5" x1="413.45" y1="319.36" x2="413.45" y2="332.83"/><line class="cls-5" x1="416.91" y1="319.48" x2="416.91" y2="332.96"/><line class="cls-5" x1="420.37" y1="319.61" x2="420.37" y2="333.08"/><line class="cls-5" x1="423.82" y1="319.86" x2="423.82" y2="333.33"/><line class="cls-5" x1="430.74" y1="319.98" x2="430.74" y2="333.45"/><line class="cls-5" x1="427.28" y1="319.98" x2="427.28" y2="333.45"/></g><polygon class="cls-39" points="487.94 328.21 511.47 338.57 510.4 346.38 486.84 337.72 487.94 328.21"/><polygon class="cls-39" points="499.92 326.96 500.05 336.46 503.52 337.83 503.59 328.21 499.92 326.96"/><polygon class="cls-35" points="488.38 319.64 510.04 331 509.55 332.74 487.45 321.56 488.38 319.64"/><polygon class="cls-19" points="408.84 328.39 480.18 329.51 480.8 337.58 409.18 338.37 408.84 328.39"/><polygon class="cls-19" points="432.38 319.08 432.38 333.11 439.83 329.26 439.83 319.83 432.38 319.08"/><polygon class="cls-19" points="467.52 319.95 467.52 332.74 473.6 330.88 476.33 319.95 467.52 319.95"/><polygon class="cls-19" points="411.77 318.58 476.33 318.58 476.33 320.57 406.93 320.57 411.77 318.58"/></g><g id="top_flat_bit"><polygon class="cls-19" points="472.45 339.82 414.44 339.72 415.19 362.07 471.99 362.07 472.45 339.82"/><polygon class="cls-37" points="471.83 339.82 481.49 338.88 481.39 361.98 471.74 362.07 471.83 339.82"/><polygon class="cls-19" points="481.49 338.88 526.65 355.83 526.62 376.44 481.39 361.98 481.49 338.88"/></g><g id="column"><circle class="cls-21" cx="516.81" cy="328.52" r="7.2"/><polygon class="cls-19" points="517.67 328.8 523.59 334.32 523.36 349.74 517.44 347.63 517.67 328.8"/><polygon class="cls-37" points="517.67 328.8 508.56 331.44 508.56 348.88 517.44 347.63 517.67 328.8"/></g><g id="column-2"><circle class="cls-21" cx="480.73" cy="312.02" r="8.62"/><polygon class="cls-19" points="481.77 312.35 488.84 318.96 488.56 337.39 481.49 334.88 481.77 312.35"/><polygon class="cls-37" points="481.77 312.35 471.8 315.51 471.8 335.72 481.49 334.88 481.77 312.35"/></g><g id="door_window"><path class="cls-29" d="M463.6,506.43c-.81-10.78-9.8-19.28-20.79-19.28h0c-10.99,0-19.99,8.5-20.79,19.28h0v.12c-.03,.48-.06,.97-.06,1.46v30.24c0,.49,.02,.97,.06,1.46v19.77h41.66v-53.05h-.07Z"/><path class="cls-9" d="M464.1,506.31c-.81-10.78-9.8-19.28-20.79-19.28h0c-10.99,0-19.99,8.5-20.79,19.28h0v.12c-.03,.48-.06,.97-.06,1.46v30.24c0,.49,.02,.97,.06,1.46v19.77h41.66v-53.05h-.07Z"/></g><g id="window"><path class="cls-29" d="M463.6,393.94c-.81-10.78-9.8-19.28-20.79-19.28h0c-10.99,0-19.99,8.5-20.79,19.28h0v.12c-.03,.48-.06,.97-.06,1.46v30.24c0,.49,.02,.97,.06,1.46v19.77h41.66v-53.05h-.07Z"/><path class="cls-9" d="M464.1,393.82c-.81-10.78-9.8-19.28-20.79-19.28h0c-10.99,0-19.99,8.5-20.79,19.28h0v.12c-.03,.48-.06,.97-.06,1.46v30.24c0,.49,.02,.97,.06,1.46v19.77h41.66v-53.05h-.07Z"/></g><g id="very_top_bracing"><polygon class="cls-16" points="471.81 342.47 412.58 342.61 412.58 336.51 471.85 336.46 471.81 342.47"/><polygon class="cls-32" points="481.49 341.49 471.81 342.47 471.8 335.72 481.61 334.85 481.49 341.49"/><polygon class="cls-21" points="481.49 334.88 526.82 351 526.63 356.59 481.42 341.47 481.49 334.88"/></g><g id="first_column"><polygon class="cls-32" points="481.58 366.26 470.59 367.38 470.59 361.14 481.49 359.65 481.58 366.26"/><polyline class="cls-19" points="491.85 369.67 492.01 557.58 481.3 557.71 481.49 366.2"/><polygon class="cls-37" points="470.96 367.38 481.49 366.2 481.39 557.58 470.69 557.71 470.96 367.38"/></g><polyline id="second_column" class="cls-19" points="528.11 381.84 528.19 557.58 517.48 557.71 517.66 378.32"/><g id="front_flagstones"><rect class="cls-16" x="418.26" y="342.33" width="4.19" height="2.79"/><rect class="cls-16" x="426.04" y="342.33" width="4.19" height="2.79"/><rect class="cls-16" x="433.81" y="342.33" width="4.19" height="2.79"/><rect class="cls-16" x="441.59" y="342.33" width="4.19" height="2.79"/><rect class="cls-16" x="449.36" y="342.33" width="4.19" height="2.79"/><rect class="cls-16" x="457.14" y="342.33" width="4.19" height="2.79"/><rect class="cls-16" x="464.91" y="342.33" width="4.19" height="2.79"/><polygon class="cls-32" points="478.31 344.63 474.12 345.1 474.12 342.31 478.31 341.84 478.31 344.63"/></g><g id="side_flagstone"><polygon class="cls-21" points="487.26 346.09 483.07 344.69 483.07 341.89 487.26 343.29 487.26 346.09"/><polygon class="cls-21" points="495.24 348.91 491.05 347.51 491.05 344.72 495.24 346.12 495.24 348.91"/><polygon class="cls-21" points="503.15 351.52 498.96 350.12 498.96 347.33 503.15 348.72 503.15 351.52"/><polygon class="cls-21" points="510.97 354.12 506.78 352.73 506.78 349.93 510.97 351.33 510.97 354.12"/><polygon class="cls-21" points="518.52 356.64 514.33 355.24 514.33 352.45 518.52 353.84 518.52 356.64"/><polygon class="cls-21" points="526.62 359.43 522.43 358.04 522.43 355.24 526.62 356.64 526.62 359.43"/></g><g id="front_bracing"><rect class="cls-19" x="429.9" y="367.38" width="4.84" height="122.82"/><rect class="cls-19" x="451.13" y="367.47" width="4.84" height="122.69"/><rect class="cls-19" x="431.27" y="383.64" width="23.71" height="4.47"/><rect class="cls-19" x="414.54" y="402.44" width="56.43" height="11.81"/><rect class="cls-19" x="414.54" y="451.17" width="56.43" height="6.1"/><rect class="cls-16" x="414.54" y="361.28" width="56.43" height="6.1"/></g><g id="window-2"><path class="cls-43" d="M514.01,404.11c-.37-10.92-4.48-20.91-9.51-22.74h0c-5.03-1.83-9.14,5.17-9.51,15.82h0s0,.12,0,.12c-.02,.48-.03,.96-.03,1.45v30.24c0,.49,.01,.98,.03,1.47v19.77l19.05,6.93v-53.05h-.03Z"/><path class="cls-8" d="M514.23,404.08c-.37-10.92-4.48-20.91-9.51-22.74h0c-5.03-1.83-9.14,5.17-9.51,15.82h0s0,.12,0,.12c-.02,.48-.03,.96-.03,1.45v30.24c0,.49,.01,.98,.03,1.47v19.77l19.05,6.93v-53.05h-.03Z"/></g><g id="side_bracing"><polygon class="cls-35" points="500.81 503.7 498.59 502.9 498.59 371.94 500.81 372.74 500.81 503.7"/><polygon class="cls-35" points="510.52 499.06 508.3 498.25 508.3 375.08 510.52 375.94 510.52 499.06"/><polygon class="cls-35" points="510.06 396.85 499.22 392.9 499.22 388.43 510.06 392.38 510.06 396.85"/><path class="cls-35" d="M517.68,415.58l-25.79-9.96c-.03,4.59,0,7.85,0,12.51l25.73,9.22c.03-3.38,0-8.38,.06-11.76Z"/><polygon class="cls-35" points="491.82 453.45 517.74 463.29 517.55 469.12 491.92 460.06 491.82 453.45"/><polygon class="cls-21" points="481.49 359.65 528.29 376.01 528.11 381.84 481.58 366.26 481.49 359.65"/></g><g><line class="cls-7" x1="470.99" y1="369.47" x2="481.46" y2="368.5"/><line class="cls-7" x1="470.99" y1="375.42" x2="481.46" y2="374.44"/><line class="cls-7" x1="470.99" y1="381.36" x2="481.46" y2="380.38"/><line class="cls-7" x1="470.99" y1="387.3" x2="481.46" y2="386.32"/><line class="cls-7" x1="470.99" y1="393.25" x2="481.46" y2="392.27"/><line class="cls-7" x1="470.99" y1="399.19" x2="481.46" y2="398.21"/><line class="cls-7" x1="470.99" y1="405.13" x2="481.46" y2="404.15"/><line class="cls-7" x1="470.99" y1="411.07" x2="481.46" y2="410.1"/><line class="cls-7" x1="470.99" y1="417.02" x2="481.46" y2="416.04"/><line class="cls-7" x1="470.99" y1="422.96" x2="481.46" y2="421.98"/><line class="cls-7" x1="470.99" y1="428.9" x2="481.46" y2="427.93"/><line class="cls-7" x1="470.99" y1="434.85" x2="481.46" y2="433.87"/><line class="cls-7" x1="470.99" y1="440.79" x2="481.46" y2="439.81"/><line class="cls-7" x1="470.99" y1="446.73" x2="481.46" y2="445.75"/><line class="cls-7" x1="470.99" y1="452.68" x2="481.46" y2="451.7"/><line class="cls-7" x1="470.99" y1="458.62" x2="481.46" y2="457.64"/><line class="cls-7" x1="470.99" y1="464.56" x2="481.46" y2="463.58"/><line class="cls-7" x1="470.99" y1="470.5" x2="481.46" y2="469.53"/><line class="cls-7" x1="470.99" y1="476.45" x2="481.46" y2="475.47"/><line class="cls-7" x1="470.99" y1="482.39" x2="481.46" y2="481.41"/><line class="cls-7" x1="470.99" y1="488.33" x2="481.46" y2="487.36"/><line class="cls-7" x1="470.99" y1="494.28" x2="481.46" y2="493.3"/><line class="cls-7" x1="470.99" y1="500.22" x2="481.46" y2="499.24"/><line class="cls-7" x1="470.99" y1="506.16" x2="481.46" y2="505.18"/><line class="cls-7" x1="470.99" y1="512.1" x2="481.46" y2="511.13"/><line class="cls-7" x1="470.99" y1="518.05" x2="481.46" y2="517.07"/><line class="cls-7" x1="470.99" y1="523.99" x2="481.46" y2="523.01"/><line class="cls-7" x1="470.99" y1="529.93" x2="481.46" y2="528.96"/><line class="cls-7" x1="470.99" y1="535.88" x2="481.46" y2="534.9"/><line class="cls-7" x1="470.99" y1="541.82" x2="481.46" y2="540.84"/><line class="cls-7" x1="470.99" y1="547.76" x2="481.46" y2="546.79"/></g><g><line class="cls-6" x1="517.68" y1="380.22" x2="527.99" y2="383.54"/><line class="cls-6" x1="517.67" y1="386.29" x2="528" y2="389.52"/><line class="cls-6" x1="517.67" y1="392.35" x2="528" y2="395.51"/><line class="cls-6" x1="517.66" y1="398.42" x2="528.01" y2="401.49"/><line class="cls-6" x1="517.65" y1="404.48" x2="528.01" y2="407.47"/><line class="cls-6" x1="517.65" y1="410.55" x2="528.02" y2="413.45"/><line class="cls-6" x1="517.64" y1="416.61" x2="528.03" y2="419.43"/><line class="cls-6" x1="517.63" y1="422.68" x2="528.03" y2="425.41"/><line class="cls-6" x1="517.63" y1="428.75" x2="528.04" y2="431.4"/><line class="cls-6" x1="517.62" y1="434.81" x2="528.05" y2="437.38"/><line class="cls-6" x1="517.61" y1="440.88" x2="528.05" y2="443.36"/><line class="cls-6" x1="517.61" y1="446.94" x2="528.06" y2="449.34"/><line class="cls-6" x1="517.6" y1="453.01" x2="528.07" y2="455.32"/><line class="cls-6" x1="517.59" y1="459.07" x2="528.07" y2="461.3"/><line class="cls-6" x1="517.59" y1="465.14" x2="528.08" y2="467.29"/><line class="cls-6" x1="517.58" y1="471.21" x2="528.09" y2="473.27"/><line class="cls-6" x1="517.57" y1="477.27" x2="528.09" y2="479.25"/><line class="cls-6" x1="517.57" y1="483.34" x2="528.1" y2="485.23"/><line class="cls-6" x1="517.56" y1="489.4" x2="528.11" y2="491.21"/><line class="cls-6" x1="517.55" y1="495.47" x2="528.11" y2="497.19"/><line class="cls-6" x1="517.55" y1="501.53" x2="528.12" y2="503.18"/><line class="cls-6" x1="517.54" y1="507.6" x2="528.13" y2="509.16"/><line class="cls-6" x1="517.53" y1="513.67" x2="528.13" y2="515.14"/><line class="cls-6" x1="517.53" y1="519.73" x2="528.14" y2="521.12"/><line class="cls-6" x1="517.52" y1="525.8" x2="528.14" y2="527.1"/><line class="cls-6" x1="517.51" y1="531.86" x2="528.15" y2="533.08"/><line class="cls-6" x1="517.51" y1="537.93" x2="528.16" y2="539.07"/><line class="cls-6" x1="517.5" y1="543.99" x2="528.16" y2="545.05"/><line class="cls-6" x1="517.49" y1="550.06" x2="528.17" y2="551.03"/></g><g><line class="cls-6" x1="481.31" y1="368.5" x2="491.76" y2="371.87"/><line class="cls-6" x1="481.31" y1="374.44" x2="491.77" y2="377.73"/><line class="cls-6" x1="481.32" y1="380.39" x2="491.78" y2="383.59"/><line class="cls-6" x1="481.32" y1="386.33" x2="491.79" y2="389.46"/><line class="cls-6" x1="481.33" y1="392.27" x2="491.79" y2="395.32"/><line class="cls-6" x1="481.33" y1="398.21" x2="491.8" y2="401.18"/><line class="cls-6" x1="481.34" y1="404.16" x2="491.81" y2="407.04"/><line class="cls-6" x1="481.34" y1="410.1" x2="491.81" y2="412.91"/><line class="cls-6" x1="481.35" y1="416.04" x2="491.82" y2="418.77"/><line class="cls-6" x1="481.35" y1="421.99" x2="491.83" y2="424.63"/><line class="cls-6" x1="481.36" y1="427.93" x2="491.84" y2="430.49"/><line class="cls-6" x1="481.37" y1="433.87" x2="491.84" y2="436.36"/><line class="cls-6" x1="481.37" y1="439.81" x2="491.85" y2="442.22"/><line class="cls-6" x1="481.38" y1="445.76" x2="491.86" y2="448.08"/><line class="cls-6" x1="481.38" y1="451.7" x2="491.86" y2="453.94"/><line class="cls-6" x1="481.39" y1="457.64" x2="491.87" y2="459.8"/><line class="cls-6" x1="481.39" y1="463.59" x2="491.88" y2="465.67"/><line class="cls-6" x1="481.4" y1="469.53" x2="491.88" y2="471.53"/><line class="cls-6" x1="481.4" y1="475.47" x2="491.89" y2="477.39"/><line class="cls-6" x1="481.41" y1="481.41" x2="491.9" y2="483.25"/><line class="cls-6" x1="481.41" y1="487.36" x2="491.91" y2="489.12"/><line class="cls-6" x1="481.42" y1="493.3" x2="491.91" y2="494.98"/><line class="cls-6" x1="481.42" y1="499.24" x2="491.92" y2="500.84"/><line class="cls-6" x1="481.43" y1="505.19" x2="491.93" y2="506.7"/><line class="cls-6" x1="481.43" y1="511.13" x2="491.93" y2="512.57"/><line class="cls-6" x1="481.44" y1="517.07" x2="491.94" y2="518.43"/><line class="cls-6" x1="481.44" y1="523.01" x2="491.95" y2="524.29"/><line class="cls-6" x1="481.45" y1="528.96" x2="491.95" y2="530.15"/><line class="cls-6" x1="481.45" y1="534.9" x2="491.96" y2="536.02"/><line class="cls-6" x1="481.46" y1="540.84" x2="491.97" y2="541.88"/><line class="cls-6" x1="481.46" y1="546.79" x2="491.98" y2="547.74"/></g></g><g id="R_side_of_building-2"><g id="small_side_roof-2"><g id="roof-2"><path class="cls-23" d="M127.6,292.22s-38.87,6.45-34.88,44.27l26.45-2.94,15.55-41.33h-7.11"/><path class="cls-23" d="M153.43,293.4s38.87,6.45,34.88,44.27l-26.45-2.94-15.55-41.33h7.11"/><path class="cls-26" d="M131.58,290.89s-18.86-3.98-16.59,38.96l10.05-.38,6.54-38.58Z"/><path class="cls-26" d="M145.09,290.56s18.86-3.98,16.59,38.96l-10.05-.38-6.54-38.58Z"/><path class="cls-52" d="M144.81,290.65s15.83-3.51,12.23,38.77l-37.25,.47s-5.12-40,13.84-39.15l11.19-.09Z"/></g><g id="roof_topping-2"><ellipse class="cls-53" cx="138.72" cy="279.2" rx="1.33" ry="2.64"/><path class="cls-52" d="M126.79,292.32c0,4.89,5.36,8.85,11.97,8.85,6.61,0,11.97-3.96,11.97-8.85s-5.31-12.66-11.92-12.66-12.02,7.77-12.02,12.66Z"/><path class="cls-53" d="M157.5,290.65l-1.06,2.73c-.26,.67-.91,1.12-1.63,1.11l-31.79-.23c-.64,0-1.22-.35-1.53-.91l-1.49-2.7h37.5Z"/></g></g><rect class="cls-27" x="80.33" y="364.96" width="31.1" height="192.59" transform="translate(191.77 922.51) rotate(-180)"/><rect class="cls-31" x="127.49" y="365.14" width="57.23" height="192.76" transform="translate(312.21 923.05) rotate(-180)"/><g id="building_base-2"><polygon class="cls-36" points="126.65 557.71 184.68 557.93 184.83 503.01 125.9 503.08 126.65 557.71"/><polygon class="cls-36" points="78.22 573.85 110.75 572.86 111.5 502.83 79.96 510.78 78.22 573.85"/></g><g id="fence_at_top-2"><g id="side_fence_posts-2"><line class="cls-6" x1="109.12" y1="322.53" x2="109.12" y2="330.47"/><line class="cls-6" x1="92.46" y1="329.84" x2="92.46" y2="337.78"/><line class="cls-6" x1="94.67" y1="329.88" x2="94.67" y2="337.83"/><line class="cls-6" x1="106.49" y1="323.32" x2="106.49" y2="331.26"/><line class="cls-6" x1="101.72" y1="325.16" x2="101.72" y2="333.11"/><line class="cls-6" x1="103.94" y1="325.21" x2="103.94" y2="333.16"/></g><g id="front_fence_posts-2"><line class="cls-5" x1="158.49" y1="319.83" x2="158.49" y2="333.3"/><line class="cls-5" x1="155.03" y1="319.95" x2="155.03" y2="333.42"/><line class="cls-5" x1="151.57" y1="320.07" x2="151.57" y2="333.55"/><line class="cls-5" x1="148.12" y1="320.32" x2="148.12" y2="333.79"/><line class="cls-5" x1="134.28" y1="320.38" x2="134.28" y2="333.86"/><line class="cls-5" x1="137.74" y1="320.38" x2="137.74" y2="333.86"/><line class="cls-5" x1="141.2" y1="320.45" x2="141.2" y2="333.92"/><line class="cls-5" x1="144.66" y1="320.45" x2="144.66" y2="333.92"/><line class="cls-5" x1="186.55" y1="319.36" x2="186.55" y2="332.83"/><line class="cls-5" x1="183.09" y1="319.48" x2="183.09" y2="332.96"/><line class="cls-5" x1="179.63" y1="319.61" x2="179.63" y2="333.08"/><line class="cls-5" x1="176.18" y1="319.86" x2="176.18" y2="333.33"/><line class="cls-5" x1="169.26" y1="319.98" x2="169.26" y2="333.45"/><line class="cls-5" x1="172.72" y1="319.98" x2="172.72" y2="333.45"/></g><polygon class="cls-39" points="112.06 328.21 88.53 338.57 89.6 346.38 113.16 337.72 112.06 328.21"/><polygon class="cls-39" points="100.08 326.96 99.95 336.46 96.48 337.83 96.41 328.21 100.08 326.96"/><polygon class="cls-35" points="111.62 319.64 89.96 331 90.45 332.74 112.55 321.56 111.62 319.64"/><polygon class="cls-19" points="191.16 328.39 119.82 329.51 119.2 337.58 190.82 338.37 191.16 328.39"/><polygon class="cls-19" points="167.62 319.08 167.62 333.11 160.17 329.26 160.17 319.83 167.62 319.08"/><polygon class="cls-19" points="132.48 319.95 132.48 332.74 126.4 330.88 123.67 319.95 132.48 319.95"/><polygon class="cls-19" points="188.23 318.58 123.67 318.58 123.67 320.57 193.07 320.57 188.23 318.58"/></g><g id="top_flat_bit-2"><polygon class="cls-19" points="127.55 339.82 185.56 339.72 184.81 362.07 128.01 362.07 127.55 339.82"/><polygon class="cls-37" points="128.17 339.82 118.51 338.88 118.61 361.98 128.26 362.07 128.17 339.82"/><polygon class="cls-19" points="118.51 338.88 73.35 355.83 73.38 376.44 118.61 361.98 118.51 338.88"/></g><g id="column-3"><circle class="cls-21" cx="83.19" cy="328.52" r="7.2"/><polygon class="cls-19" points="82.33 328.8 76.41 334.32 76.64 349.74 82.56 347.63 82.33 328.8"/><polygon class="cls-37" points="82.33 328.8 91.44 331.44 91.44 348.88 82.56 347.63 82.33 328.8"/></g><g id="column-4"><circle class="cls-21" cx="119.27" cy="312.02" r="8.62"/><polygon class="cls-19" points="118.23 312.35 111.16 318.96 111.44 337.39 118.51 334.88 118.23 312.35"/><polygon class="cls-37" points="118.23 312.35 128.2 315.51 128.2 335.72 118.51 334.88 118.23 312.35"/></g><g id="door_window-2"><path class="cls-29" d="M136.4,506.43c.81-10.78,9.8-19.28,20.79-19.28h0c10.99,0,19.99,8.5,20.79,19.28h0v.12c.03,.48,.06,.97,.06,1.46v30.24c0,.49-.02,.97-.06,1.46v19.77h-41.66v-21.23s0-30.24,0-30.24v-1.58h.07Z"/><path class="cls-9" d="M135.9,506.31c.81-10.78,9.8-19.28,20.79-19.28h0c10.99,0,19.99,8.5,20.79,19.28h0v.12c.03,.48,.06,.97,.06,1.46v30.24c0,.49-.02,.97-.06,1.46v19.77h-41.66v-21.23s0-30.24,0-30.24v-1.58h.07Z"/></g><g id="window-3"><path class="cls-29" d="M136.4,393.94c.81-10.78,9.8-19.28,20.79-19.28h0c10.99,0,19.99,8.5,20.79,19.28h0v.12c.03,.48,.06,.97,.06,1.46v30.24c0,.49-.02,.97-.06,1.46v19.77h-41.66v-21.23s0-30.24,0-30.24v-1.58h.07Z"/><path class="cls-9" d="M135.9,393.82c.81-10.78,9.8-19.28,20.79-19.28h0c10.99,0,19.99,8.5,20.79,19.28h0v.12c.03,.48,.06,.97,.06,1.46v30.24c0,.49-.02,.97-.06,1.46v19.77h-41.66v-21.23s0-30.24,0-30.24v-1.58h.07Z"/></g><g id="very_top_bracing-2"><polygon class="cls-16" points="128.19 342.47 187.42 342.61 187.42 336.51 128.15 336.46 128.19 342.47"/><polygon class="cls-32" points="118.51 341.49 128.19 342.47 128.2 335.72 118.39 334.85 118.51 341.49"/><polygon class="cls-21" points="118.51 334.88 73.18 351 73.37 356.59 118.58 341.47 118.51 334.88"/></g><g id="first_column-2"><polygon class="cls-32" points="118.42 366.26 129.41 367.38 129.41 361.14 118.51 359.65 118.42 366.26"/><polyline class="cls-19" points="108.15 369.67 107.99 557.58 118.7 557.71 118.51 366.2"/><polygon class="cls-37" points="129.04 367.38 118.51 366.2 118.61 557.58 129.31 557.71 129.04 367.38"/></g><polyline id="second_column-2" class="cls-19" points="71.89 381.84 71.81 557.58 82.52 557.71 82.34 378.32"/><g id="front_flagstones-2"><rect class="cls-16" x="177.55" y="342.33" width="4.19" height="2.79" transform="translate(359.29 687.45) rotate(-180)"/><rect class="cls-16" x="169.77" y="342.33" width="4.19" height="2.79" transform="translate(343.74 687.45) rotate(-180)"/><rect class="cls-16" x="162" y="342.33" width="4.19" height="2.79" transform="translate(328.19 687.45) rotate(-180)"/><rect class="cls-16" x="154.22" y="342.33" width="4.19" height="2.79" transform="translate(312.64 687.45) rotate(-180)"/><rect class="cls-16" x="146.45" y="342.33" width="4.19" height="2.79" transform="translate(297.09 687.45) rotate(-180)"/><rect class="cls-16" x="138.67" y="342.33" width="4.19" height="2.79" transform="translate(281.54 687.45) rotate(-180)"/><rect class="cls-16" x="130.9" y="342.33" width="4.19" height="2.79" transform="translate(265.99 687.45) rotate(-180)"/><polygon class="cls-32" points="121.69 344.63 125.88 345.1 125.88 342.31 121.69 341.84 121.69 344.63"/></g><g id="side_flagstone-2"><polygon class="cls-21" points="112.74 346.09 116.93 344.69 116.93 341.89 112.74 343.29 112.74 346.09"/><polygon class="cls-21" points="104.76 348.91 108.95 347.51 108.95 344.72 104.76 346.12 104.76 348.91"/><polygon class="cls-21" points="96.85 351.52 101.04 350.12 101.04 347.33 96.85 348.72 96.85 351.52"/><polygon class="cls-21" points="89.03 354.12 93.22 352.73 93.22 349.93 89.03 351.33 89.03 354.12"/><polygon class="cls-21" points="81.48 356.64 85.67 355.24 85.67 352.45 81.48 353.84 81.48 356.64"/><polygon class="cls-21" points="73.38 359.43 77.57 358.04 77.57 355.24 73.38 356.64 73.38 359.43"/></g><g id="front_bracing-2"><rect class="cls-19" x="165.26" y="367.38" width="4.84" height="122.82" transform="translate(335.36 857.58) rotate(-180)"/><rect class="cls-19" x="144.03" y="367.47" width="4.84" height="122.69" transform="translate(292.9 857.63) rotate(-180)"/><rect class="cls-19" x="145.02" y="383.64" width="23.71" height="4.47" transform="translate(313.76 771.75) rotate(-180)"/><rect class="cls-19" x="129.04" y="402.44" width="56.43" height="11.81" transform="translate(314.5 816.68) rotate(-180)"/><rect class="cls-19" x="129.04" y="451.17" width="56.43" height="6.1" transform="translate(314.5 908.43) rotate(-180)"/><rect class="cls-16" x="129.04" y="361.28" width="56.43" height="6.1" transform="translate(314.5 728.66) rotate(-180)"/></g><g id="window-4"><path class="cls-43" d="M85.99,404.11c.37-10.92,4.48-20.91,9.51-22.74h0c5.03-1.83,9.14,5.17,9.51,15.82h0s0,.12,0,.12c.02,.48,.03,.96,.03,1.45v30.24c0,.49-.01,.98-.03,1.47v19.77s-19.05,6.93-19.05,6.93v-21.23s0-30.24,0-30.24v-1.58h.03Z"/><path class="cls-8" d="M85.77,404.08c.37-10.92,4.48-20.91,9.51-22.74h0c5.03-1.83,9.14,5.17,9.51,15.82h0s0,.12,0,.12c.02,.48,.03,.96,.03,1.45v30.24c0,.49-.01,.98-.03,1.47v19.77s-19.05,6.93-19.05,6.93v-21.23s0-30.24,0-30.24v-1.58h.03Z"/></g><g id="side_bracing-2"><polygon class="cls-35" points="99.19 503.7 101.41 502.9 101.41 371.94 99.19 372.74 99.19 503.7"/><polygon class="cls-35" points="89.48 499.06 91.7 498.25 91.7 375.08 89.48 375.94 89.48 499.06"/><polygon class="cls-35" points="89.94 396.85 100.78 392.9 100.78 388.43 89.94 392.38 89.94 396.85"/><path class="cls-35" d="M82.32,415.58l25.79-9.96c.03,4.59,0,7.85,0,12.51l-25.73,9.22c-.03-3.38,0-8.38-.06-11.76Z"/><polygon class="cls-35" points="108.18 453.45 82.26 463.29 82.45 469.12 108.08 460.06 108.18 453.45"/><polygon class="cls-21" points="118.51 359.65 71.71 376.01 71.89 381.84 118.42 366.26 118.51 359.65"/></g><g><line class="cls-7" x1="129.01" y1="369.47" x2="118.54" y2="368.5"/><line class="cls-7" x1="129.01" y1="375.42" x2="118.54" y2="374.44"/><line class="cls-7" x1="129.01" y1="381.36" x2="118.54" y2="380.38"/><line class="cls-7" x1="129.01" y1="387.3" x2="118.54" y2="386.32"/><line class="cls-7" x1="129.01" y1="393.25" x2="118.54" y2="392.27"/><line class="cls-7" x1="129.01" y1="399.19" x2="118.54" y2="398.21"/><line class="cls-7" x1="129.01" y1="405.13" x2="118.54" y2="404.15"/><line class="cls-7" x1="129.01" y1="411.07" x2="118.54" y2="410.1"/><line class="cls-7" x1="129.01" y1="417.02" x2="118.54" y2="416.04"/><line class="cls-7" x1="129.01" y1="422.96" x2="118.54" y2="421.98"/><line class="cls-7" x1="129.01" y1="428.9" x2="118.54" y2="427.93"/><line class="cls-7" x1="129.01" y1="434.85" x2="118.54" y2="433.87"/><line class="cls-7" x1="129.01" y1="440.79" x2="118.54" y2="439.81"/><line class="cls-7" x1="129.01" y1="446.73" x2="118.54" y2="445.75"/><line class="cls-7" x1="129.01" y1="452.68" x2="118.54" y2="451.7"/><line class="cls-7" x1="129.01" y1="458.62" x2="118.54" y2="457.64"/><line class="cls-7" x1="129.01" y1="464.56" x2="118.54" y2="463.58"/><line class="cls-7" x1="129.01" y1="470.5" x2="118.54" y2="469.53"/><line class="cls-7" x1="129.01" y1="476.45" x2="118.54" y2="475.47"/><line class="cls-7" x1="129.01" y1="482.39" x2="118.54" y2="481.41"/><line class="cls-7" x1="129.01" y1="488.33" x2="118.54" y2="487.36"/><line class="cls-7" x1="129.01" y1="494.28" x2="118.54" y2="493.3"/><line class="cls-7" x1="129.01" y1="500.22" x2="118.54" y2="499.24"/><line class="cls-7" x1="129.01" y1="506.16" x2="118.54" y2="505.18"/><line class="cls-7" x1="129.01" y1="512.1" x2="118.54" y2="511.13"/><line class="cls-7" x1="129.01" y1="518.05" x2="118.54" y2="517.07"/><line class="cls-7" x1="129.01" y1="523.99" x2="118.54" y2="523.01"/><line class="cls-7" x1="129.01" y1="529.93" x2="118.54" y2="528.96"/><line class="cls-7" x1="129.01" y1="535.88" x2="118.54" y2="534.9"/><line class="cls-7" x1="129.01" y1="541.82" x2="118.54" y2="540.84"/><line class="cls-7" x1="129.01" y1="547.76" x2="118.54" y2="546.79"/></g><g><line class="cls-6" x1="82.32" y1="380.22" x2="72.01" y2="383.54"/><line class="cls-6" x1="82.33" y1="386.29" x2="72" y2="389.52"/><line class="cls-6" x1="82.33" y1="392.35" x2="72" y2="395.51"/><line class="cls-6" x1="82.34" y1="398.42" x2="71.99" y2="401.49"/><line class="cls-6" x1="82.35" y1="404.48" x2="71.99" y2="407.47"/><line class="cls-6" x1="82.35" y1="410.55" x2="71.98" y2="413.45"/><line class="cls-6" x1="82.36" y1="416.61" x2="71.97" y2="419.43"/><line class="cls-6" x1="82.37" y1="422.68" x2="71.97" y2="425.41"/><line class="cls-6" x1="82.37" y1="428.75" x2="71.96" y2="431.4"/><line class="cls-6" x1="82.38" y1="434.81" x2="71.95" y2="437.38"/><line class="cls-6" x1="82.39" y1="440.88" x2="71.95" y2="443.36"/><line class="cls-6" x1="82.39" y1="446.94" x2="71.94" y2="449.34"/><line class="cls-6" x1="82.4" y1="453.01" x2="71.93" y2="455.32"/><line class="cls-6" x1="82.41" y1="459.07" x2="71.93" y2="461.3"/><line class="cls-6" x1="82.41" y1="465.14" x2="71.92" y2="467.29"/><line class="cls-6" x1="82.42" y1="471.21" x2="71.91" y2="473.27"/><line class="cls-6" x1="82.43" y1="477.27" x2="71.91" y2="479.25"/><line class="cls-6" x1="82.43" y1="483.34" x2="71.9" y2="485.23"/><line class="cls-6" x1="82.44" y1="489.4" x2="71.89" y2="491.21"/><line class="cls-6" x1="82.45" y1="495.47" x2="71.89" y2="497.19"/><line class="cls-6" x1="82.45" y1="501.53" x2="71.88" y2="503.18"/><line class="cls-6" x1="82.46" y1="507.6" x2="71.87" y2="509.16"/><line class="cls-6" x1="82.47" y1="513.67" x2="71.87" y2="515.14"/><line class="cls-6" x1="82.47" y1="519.73" x2="71.86" y2="521.12"/><line class="cls-6" x1="82.48" y1="525.8" x2="71.86" y2="527.1"/><line class="cls-6" x1="82.49" y1="531.86" x2="71.85" y2="533.08"/><line class="cls-6" x1="82.49" y1="537.93" x2="71.84" y2="539.07"/><line class="cls-6" x1="82.5" y1="543.99" x2="71.84" y2="545.05"/><line class="cls-6" x1="82.51" y1="550.06" x2="71.83" y2="551.03"/></g><g><line class="cls-6" x1="118.69" y1="368.5" x2="108.24" y2="371.87"/><line class="cls-6" x1="118.69" y1="374.44" x2="108.23" y2="377.73"/><line class="cls-6" x1="118.68" y1="380.39" x2="108.22" y2="383.59"/><line class="cls-6" x1="118.68" y1="386.33" x2="108.21" y2="389.46"/><line class="cls-6" x1="118.67" y1="392.27" x2="108.21" y2="395.32"/><line class="cls-6" x1="118.67" y1="398.21" x2="108.2" y2="401.18"/><line class="cls-6" x1="118.66" y1="404.16" x2="108.19" y2="407.04"/><line class="cls-6" x1="118.66" y1="410.1" x2="108.19" y2="412.91"/><line class="cls-6" x1="118.65" y1="416.04" x2="108.18" y2="418.77"/><line class="cls-6" x1="118.65" y1="421.99" x2="108.17" y2="424.63"/><line class="cls-6" x1="118.64" y1="427.93" x2="108.16" y2="430.49"/><line class="cls-6" x1="118.63" y1="433.87" x2="108.16" y2="436.36"/><line class="cls-6" x1="118.63" y1="439.81" x2="108.15" y2="442.22"/><line class="cls-6" x1="118.62" y1="445.76" x2="108.14" y2="448.08"/><line class="cls-6" x1="118.62" y1="451.7" x2="108.14" y2="453.94"/><line class="cls-6" x1="118.61" y1="457.64" x2="108.13" y2="459.8"/><line class="cls-6" x1="118.61" y1="463.59" x2="108.12" y2="465.67"/><line class="cls-6" x1="118.6" y1="469.53" x2="108.12" y2="471.53"/><line class="cls-6" x1="118.6" y1="475.47" x2="108.11" y2="477.39"/><line class="cls-6" x1="118.59" y1="481.41" x2="108.1" y2="483.25"/><line class="cls-6" x1="118.59" y1="487.36" x2="108.09" y2="489.12"/><line class="cls-6" x1="118.58" y1="493.3" x2="108.09" y2="494.98"/><line class="cls-6" x1="118.58" y1="499.24" x2="108.08" y2="500.84"/><line class="cls-6" x1="118.57" y1="505.19" x2="108.07" y2="506.7"/><line class="cls-6" x1="118.57" y1="511.13" x2="108.07" y2="512.57"/><line class="cls-6" x1="118.56" y1="517.07" x2="108.06" y2="518.43"/><line class="cls-6" x1="118.56" y1="523.01" x2="108.05" y2="524.29"/><line class="cls-6" x1="118.55" y1="528.96" x2="108.05" y2="530.15"/><line class="cls-6" x1="118.55" y1="534.9" x2="108.04" y2="536.02"/><line class="cls-6" x1="118.54" y1="540.84" x2="108.03" y2="541.88"/><line class="cls-6" x1="118.54" y1="546.79" x2="108.02" y2="547.74"/></g></g><g id="front_of_building"><g id="bulk_of_building"><rect class="cls-19" x="218.71" y="329.94" width="161.65" height="28.44"/><rect class="cls-19" x="221.72" y="395.1" width="157.81" height="15.58" transform="translate(1.77 -1.31) rotate(.25)"/><path class="cls-22" d="M221.69,410.34l1.28,98.25,12.12-.02c-.29-24.83,4.85-34.34,4.85-34.34l121.14,.13c6.03,10.85,4.1,33.98,4.1,33.98l12.69,.06,.42-97.38-156.61-.69Z"/><g><line class="cls-5" x1="223.3" y1="409.72" x2="378" y2="409.72"/><line class="cls-5" x1="223.3" y1="415.53" x2="378" y2="415.53"/><line class="cls-5" x1="223.3" y1="421.34" x2="378" y2="421.34"/><line class="cls-5" x1="223.3" y1="427.15" x2="378" y2="427.15"/><line class="cls-5" x1="223.3" y1="432.96" x2="378" y2="432.96"/><line class="cls-5" x1="223.3" y1="438.77" x2="378" y2="438.77"/><line class="cls-5" x1="223.3" y1="444.58" x2="378" y2="444.58"/><line class="cls-5" x1="223.3" y1="450.39" x2="378" y2="450.39"/><line class="cls-5" x1="223.3" y1="456.2" x2="378" y2="456.2"/><line class="cls-5" x1="223.3" y1="462.01" x2="378" y2="462.01"/><line class="cls-5" x1="223.3" y1="467.82" x2="378" y2="467.82"/><line class="cls-5" x1="223.3" y1="473.63" x2="378" y2="473.63"/><line class="cls-5" x1="223.3" y1="479.44" x2="378" y2="479.44"/><line class="cls-5" x1="223.3" y1="485.25" x2="378" y2="485.25"/><line class="cls-5" x1="223.3" y1="491.06" x2="378" y2="491.06"/><line class="cls-5" x1="223.3" y1="496.87" x2="378" y2="496.87"/></g><circle class="cls-35" cx="237.45" cy="423.99" r="8.64"/><circle class="cls-35" cx="363.68" cy="424.55" r="8.64"/><polygon class="cls-35" points="379.68 395.41 222.11 394.77 222.48 356.37 379.24 357.32 379.68 395.41"/></g><g id="top_tower"><g id="g12"><path id="path14" class="cls-51" d="M364.62,84.71c-.65-2.07-2.85-3.21-4.91-2.57-2.06,.65-3.21,2.85-2.56,4.91,.65,2.06,2.85,3.21,4.91,2.57,2.07-.65,3.21-2.85,2.57-4.91"/><path id="path16" class="cls-51" d="M368.43,70.17c.27-1.12-.42-2.25-1.54-2.53-1.12-.27-2.25,.41-2.53,1.54-.27,1.12,.41,2.25,1.54,2.53,1.12,.27,2.25-.42,2.53-1.54"/><path id="path18" class="cls-24" d="M315.12,92.19c-.7-2.25,.55-4.64,2.79-5.34,2.25-.7,4.64,.55,5.34,2.79,.71,2.25-.54,4.64-2.79,5.34-2.25,.71-4.64-.55-5.35-2.79"/><path id="path20" class="cls-51" d="M314.8,85.71c-.3-.94-1.29-1.46-2.23-1.17-.94,.3-1.46,1.29-1.17,2.23,.3,.94,1.3,1.46,2.24,1.17,.94-.3,1.46-1.3,1.17-2.24"/><path id="path22" class="cls-51" d="M358.82,94.39c-.56-1.77-2.45-2.76-4.22-2.2-1.77,.56-2.76,2.45-2.2,4.22,.56,1.77,2.45,2.76,4.22,2.2,1.77-.56,2.76-2.44,2.2-4.22"/><path id="path24" class="cls-51" d="M350.82,100.43c.38-1.56-.58-3.14-2.14-3.52-1.57-.38-3.14,.58-3.52,2.14-.38,1.56,.58,3.14,2.14,3.52,1.57,.38,3.14-.58,3.52-2.14"/><path id="path26" class="cls-24" d="M366.37,89.84c-.26-.83,.2-1.71,1.03-1.97,.83-.26,1.71,.2,1.97,1.03,.26,.83-.2,1.71-1.03,1.97-.83,.26-1.71-.2-1.97-1.03"/><path id="path28" class="cls-24" d="M351.82,82.26c-.26-.83,.2-1.71,1.03-1.97,.83-.26,1.71,.2,1.97,1.03,.26,.83-.2,1.71-1.03,1.97-.83,.26-1.71-.2-1.97-1.03"/><path id="path30" class="cls-24" d="M345.21,79.92c-.37-1.18,.29-2.44,1.47-2.81,1.18-.37,2.44,.29,2.81,1.47,.37,1.18-.28,2.44-1.47,2.81-1.18,.37-2.44-.29-2.81-1.47"/><path id="path32" class="cls-24" d="M338.62,78.87c-1.21-1.07-1.32-2.91-.26-4.12,1.07-1.21,2.91-1.32,4.12-.26,1.21,1.07,1.32,2.91,.26,4.12-1.06,1.21-2.91,1.32-4.12,.26"/><path id="path34" class="cls-24" d="M329.25,77.74c-.5-1.59,.38-3.28,1.97-3.78,1.59-.5,3.28,.38,3.78,1.97,.5,1.59-.38,3.28-1.98,3.78-1.59,.5-3.28-.38-3.78-1.97"/><path id="path36" class="cls-24" d="M325.89,85.04l.17-.1c1.73-1.08,2.31-3.35,1.29-5.04-.98-1.64-3.1-2.17-4.82-1.22l-.16,.1c-1.73,1.08-2.31,3.34-1.29,5.04,.98,1.64,3.09,2.18,4.81,1.22"/><path id="path38" class="cls-24" d="M309.94,100.76c-.59-1.89,.46-3.91,2.35-4.5,1.89-.59,3.91,.46,4.5,2.35,.59,1.89-.46,3.91-2.35,4.5-1.89,.59-3.91-.46-4.5-2.35"/><path id="path40" class="cls-24" d="M303.06,104.18c-.43-1.37,.33-2.83,1.7-3.26,1.37-.43,2.83,.33,3.26,1.7,.43,1.37-.33,2.83-1.7,3.26-1.37,.43-2.83-.33-3.26-1.7"/><path id="path42" class="cls-51" d="M309.07,83.48c-.45-1.42-1.96-2.21-3.38-1.76-1.42,.45-2.21,1.96-1.76,3.38,.45,1.42,1.96,2.21,3.38,1.76,1.42-.45,2.21-1.96,1.76-3.37"/><path id="path44" class="cls-51" d="M301.98,86.02c-.5-1.6-2.2-2.48-3.8-1.98-1.6,.5-2.48,2.2-1.98,3.8,.5,1.6,2.2,2.49,3.8,1.98,1.6-.5,2.48-2.2,1.98-3.8"/><path id="path46" class="cls-51" d="M366.82,75.8c-.52-1.66-2.29-2.59-3.96-2.07-1.66,.52-2.59,2.29-2.07,3.96,.52,1.66,2.29,2.59,3.96,2.06,1.66-.52,2.59-2.29,2.06-3.96"/><path id="path48" class="cls-51" d="M342.53,98.09c-.37-1.18-1.63-1.84-2.81-1.47-1.18,.37-1.84,1.63-1.47,2.81,.37,1.18,1.63,1.84,2.81,1.47,1.18-.37,1.84-1.63,1.47-2.81"/><path id="path50" class="cls-51" d="M335.42,96.08c-.3-.95-1.3-1.47-2.25-1.17-.95,.3-1.47,1.3-1.18,2.25,.3,.94,1.3,1.47,2.25,1.17,.95-.3,1.47-1.3,1.17-2.25"/><path id="path52" class="cls-51" d="M328.97,92.8c-.22-.71-.98-1.1-1.69-.88-.71,.22-1.1,.98-.88,1.69,.22,.71,.98,1.1,1.69,.88,.71-.22,1.1-.98,.88-1.69"/><path id="path54" class="cls-51" d="M291.81,102.04l3.51,1.82,13.7,69.28c1.31,7.41-5.7,15.31-11.97,16.55-1.89,.37-3.8,.67-5.53-.14-2.77-1.3-3.74-4.19-4.28-7.35-1.27-7.59,5.51-15.01,11.97-16.55,1.57-.38,3.17-.59,5.22,.08,.4,.13-12.62-63.68-12.62-63.68"/><path id="path56" class="cls-51" d="M296.67,92.61c-.57-1.83-2.52-2.84-4.35-2.27-1.83,.57-2.85,2.52-2.27,4.35,.57,1.82,2.52,2.84,4.35,2.27,1.83-.58,2.84-2.52,2.27-4.35"/><path id="path58" class="cls-24" d="M371.62,90.76c-.37-1.18,.29-2.44,1.47-2.81,1.18-.37,2.44,.29,2.81,1.47,.37,1.18-.29,2.44-1.47,2.81-1.18,.37-2.44-.29-2.81-1.47"/></g><polygon class="cls-45" points="283.02 188.03 285.86 190.5 287.77 183.94 283.02 188.03"/><path class="cls-45" d="M311.05,183.94c.19,.37,2.1,6.84,2.1,6.84l3.31-2.75-5.4-4.1Z"/><polygon class="cls-48" points="292.89 181.98 292.8 207.77 285.16 206.28 285.54 184.68 292.89 181.98"/><polygon class="cls-49" points="292.89 181.98 306.77 181.98 306.77 212.99 292.8 207.77 292.89 181.98"/><polygon class="cls-48" points="306.77 181.98 313.47 186.08 313.47 207.22 306.77 212.99 306.77 181.98"/><polygon class="cls-44" points="282.65 182.82 283.02 188.03 292.89 181.98 306.77 181.98 316.45 188.03 316.36 182.26 307.6 176.95 292.24 177.23 282.65 182.82"/></g><g id="roof-3"><path class="cls-23" d="M320.48,204.7s76.36,12.66,68.53,86.97l-51.96-5.77-30.54-81.2h13.97"/><path class="cls-23" d="M269.74,207.03s-76.36,12.66-68.53,86.97l51.96-5.77,30.54-81.2h-13.97"/><path class="cls-26" d="M312.66,202.09s37.06-7.82,32.59,76.54l-19.74-.74-12.85-75.8Z"/><path class="cls-26" d="M286.13,201.44s-37.06-7.82-32.59,76.54l19.74-.74,12.85-75.8Z"/><path class="cls-52" d="M286.68,201.63s-31.1-6.89-24.02,76.17l73.19,.93s10.06-78.59-27.19-76.92l-21.98-.19Z"/><polygon class="cls-53" points="200.6 277.91 200.86 275.31 253.06 257.16 261.41 256.47 336.75 257.08 345.98 257.99 389.33 276.36 389.43 278.47 345.27 260.13 336.63 259.33 261.49 258.72 253.54 259.39 200.6 277.91"/></g><g id="top_window"><path class="cls-46" d="M313.07,242.17c0-6.51-5.68-11.48-12.85-11.48s-12.44,4.82-12.93,10.93l-.05,.93v26.32s25.83,0,25.83,0v-24.86c.07-.5,0-1.32,0-1.84Z"/><circle class="cls-49" cx="300.22" cy="243.9" r="6.15"/><path class="cls-1" d="M287.24,268.11v-25.58s.12-11.36,12.97-11.86c0,0,12.29-.31,12.91,12.79v25.14"/></g><g id="roof_circles" class="cls-54"><g id="front_circles"><circle class="cls-2" cx="269.28" cy="263.05" r="3.11"/><circle class="cls-2" cx="330.99" cy="263.64" r="3.11"/><circle class="cls-2" cx="280.69" cy="263.09" r="3.11"/><circle class="cls-2" cx="293.95" cy="263.09" r="3.11"/><circle class="cls-2" cx="305.03" cy="263.18" r="3.11"/><circle class="cls-2" cx="319.41" cy="263.3" r="3.11"/></g><g id="L_circles"><ellipse class="cls-2" cx="224.29" cy="274.24" rx="2.37" ry="2.89"/><ellipse class="cls-2" cx="232.12" cy="271.54" rx="2.37" ry="2.89"/><ellipse class="cls-2" cx="240.08" cy="268.8" rx="2.37" ry="2.89"/><ellipse class="cls-2" cx="247.81" cy="266.24" rx="2.37" ry="2.89"/><ellipse class="cls-2" cx="216.8" cy="276.81" rx="2.37" ry="2.89"/><ellipse class="cls-2" cx="209.21" cy="279.51" rx="2.37" ry="2.89"/></g><g id="R_circles"><ellipse class="cls-2" cx="371.45" cy="275.21" rx="2.71" ry="2.23" transform="translate(74.71 629.7) rotate(-86.6)"/><ellipse class="cls-2" cx="364.27" cy="272.24" rx="2.71" ry="2.23" transform="translate(70.91 619.74) rotate(-86.6)"/><ellipse class="cls-2" cx="356.96" cy="269.23" rx="2.71" ry="2.23" transform="translate(67.05 609.6) rotate(-86.6)"/><ellipse class="cls-2" cx="349.86" cy="266.4" rx="2.71" ry="2.23" transform="translate(63.19 599.85) rotate(-86.6)"/><ellipse class="cls-2" cx="378.33" cy="278.03" rx="2.71" ry="2.23" transform="translate(78.37 639.22) rotate(-86.6)"/><ellipse class="cls-2" cx="385.3" cy="280.98" rx="2.71" ry="2.23" transform="translate(81.97 648.95) rotate(-86.6)"/></g></g><g id="band_before_roof"><polygon class="cls-53" points="262.04 267.68 342.49 268.67 342.99 283.57 263.16 283.57 262.04 267.68"/><polygon class="cls-53" points="344.6 268.55 390.17 286.92 388.18 298.72 344.23 285.43 344.6 268.55"/><polygon class="cls-53" points="200.71 287.05 256.08 267.93 257.94 289.53 197.23 302.94 200.71 287.05"/></g><rect id="door" class="cls-29" x="235.08" y="497.87" width="130.09" height="55.96"/><polygon class="cls-41" points="348.95 277.98 388.93 293.13 388.56 329.51 341.62 310.39 348.95 277.98"/><polygon class="cls-41" points="250.62 279.85 201.33 297.23 205.67 329.88 258.19 314.61 250.62 279.85"/><rect class="cls-41" x="247.97" y="277.86" width="103.86" height="37.75"/><rect class="cls-35" x="187.42" y="314.86" width="225.05" height="26.07"/><rect id="column_in_front_of_door" class="cls-17" x="299.13" y="498.84" width="2.7" height="55.18" transform="translate(-1.47 .84) rotate(-.16)"/><g id="window_above_door"><path class="cls-40" d="M239.95,474.57s9.18-44.75,60.81-43.31c51.63,1.43,60.33,43.44,60.33,43.44l-121.14-.13Z"/><g id="window_pane_lines"><path class="cls-3" d="M241.24,469.99c39.32,.33,79.53,.33,118.54,.01"/><path class="cls-3" d="M250.7,439.98c32.88-.1,66.71-.1,99.18,.03"/><line class="cls-3" x1="241.15" y1="460.12" x2="360.53" y2="460.12"/><line class="cls-3" x1="241.89" y1="450.44" x2="361.27" y2="450.44"/><path class="cls-3" d="M252.73,439.32c0,12.27,0,24.55,0,36.82"/><path class="cls-3" d="M246.52,441.33v34.81"/><line class="cls-3" x1="269.24" y1="433.43" x2="269.24" y2="475.39"/><line class="cls-3" x1="263.03" y1="433.43" x2="263.03" y2="475.39"/><line class="cls-3" x1="286.75" y1="433.06" x2="286.75" y2="475.02"/><line class="cls-3" x1="280.54" y1="433.06" x2="280.54" y2="475.02"/><line class="cls-3" x1="303.76" y1="432.19" x2="303.76" y2="474.15"/><line class="cls-3" x1="297.55" y1="432.19" x2="297.55" y2="474.15"/><line class="cls-3" x1="321.39" y1="432.56" x2="321.39" y2="474.53"/><line class="cls-3" x1="315.18" y1="432.56" x2="315.18" y2="474.53"/><line class="cls-3" x1="338.52" y1="433.06" x2="338.52" y2="475.02"/><line class="cls-3" x1="332.31" y1="433.06" x2="332.31" y2="475.02"/><path class="cls-3" d="M355.9,446.1v29.42"/><path class="cls-3" d="M349.69,440.11v35.41"/></g><g id="columns"><rect class="cls-22" x="256.28" y="447.38" width="2.1" height="27.08" transform="translate(2.02 -1.12) rotate(.25)"/><rect class="cls-22" x="273.76" y="435.2" width="2.1" height="39.14" transform="translate(1.99 -1.2) rotate(.25)"/><rect class="cls-22" x="291.15" y="431.07" width="2.1" height="43.56" transform="translate(1.98 -1.27) rotate(.25)"/><rect class="cls-22" x="308.43" y="429.69" width="2.1" height="44.86" transform="translate(1.98 -1.35) rotate(.25)"/><rect class="cls-22" x="325.64" y="434.35" width="2.1" height="40.41" transform="translate(1.99 -1.43) rotate(.25)"/><rect class="cls-22" x="343.14" y="447.17" width="2.1" height="27.47" transform="translate(2.02 -1.5) rotate(.25)"/></g></g><g id="arch_above_door"><path class="cls-15" d="M371.91,458.96c-20.89-43.11-67.72-43.18-70.52-43.32-52.33-1.16-71.69,42.7-72.82,42.03l14.74,8.39s13.86-32.43,56.48-34.31c0,0,38.96-1.56,57.77,35.14l14.35-7.93Z"/><polygon class="cls-35" points="296.21 414.41 296.26 432.49 298.16 432.54 298.19 432.98 304.05 433.01 304.05 432.53 305.88 432.66 306.49 414.5 296.21 414.41"/><path class="cls-35" d="M318.01,434.83l4.94,1.83,6.07-16.47s-4.78-2.16-6.1-2.37l-4.9,17.01Z"/><path class="cls-35" d="M334,441.71l4.08,3,10.47-14.51s-4.51-3.59-5.82-4.01l-8.73,15.51Z"/><path class="cls-35" d="M347.29,452.69l3.04,3.81,14.55-11.09s-4.25-4.95-4.61-5.11-12.98,12.39-12.98,12.39Z"/><polyline class="cls-35" points="251.08 455.2 254.32 451.86 241.53 439.66 237.37 444.19 251.14 455.32"/><polygon class="cls-35" points="264.06 443.69 268.3 440.95 259.06 425.26 253.58 428.79 264.06 443.69"/><polygon class="cls-35" points="279.15 436.07 283.85 434.68 280.13 416.45 273.2 418.74 279.15 436.07"/></g><g id="signs_and_clocks_above_door"><rect class="cls-17" x="235.23" y="481.49" width="130.13" height="17.58" transform="translate(2.15 -1.31) rotate(.25)"/><g id="clocks"><circle class="cls-38" cx="243.1" cy="487.14" r="3.26"/><circle class="cls-38" cx="257.62" cy="487.34" r="3.26"/><circle class="cls-38" cx="272.13" cy="487.4" r="3.26"/><circle class="cls-38" cx="286.58" cy="487.46" r="3.26"/><circle class="cls-38" cx="300.63" cy="487.52" r="3.26"/><circle class="cls-38" cx="315.14" cy="487.59" r="3.26"/><circle class="cls-38" cx="329.39" cy="487.65" r="3.26"/><circle class="cls-38" cx="343.5" cy="487.51" r="3.26"/><circle class="cls-38" cx="357.55" cy="487.37" r="3.26"/></g><g id="signs"><rect class="cls-18" x="250.73" y="489.99" width="13.45" height="7.26" transform="translate(2.16 -1.12) rotate(.25)"/><rect class="cls-18" x="236.28" y="489.93" width="13.45" height="7.26" transform="translate(2.16 -1.06) rotate(.25)"/><rect class="cls-18" x="265.18" y="490.05" width="13.45" height="7.26" transform="translate(2.16 -1.19) rotate(.25)"/><rect class="cls-18" x="279.63" y="490.12" width="13.45" height="7.26" transform="translate(2.16 -1.25) rotate(.25)"/><rect class="cls-18" x="294.07" y="490.18" width="13.45" height="7.26" transform="translate(2.16 -1.31) rotate(.25)"/><rect class="cls-18" x="308.32" y="490.24" width="13.45" height="7.26" transform="translate(2.16 -1.37) rotate(.25)"/><rect class="cls-18" x="322.63" y="490.3" width="13.45" height="7.26" transform="translate(2.16 -1.44) rotate(.25)"/><rect class="cls-18" x="337.08" y="490.37" width="13.45" height="7.26" transform="translate(2.17 -1.5) rotate(.25)"/><rect class="cls-18" x="351.2" y="490.43" width="13.45" height="7.26" transform="translate(2.17 -1.56) rotate(.25)"/></g><rect class="cls-42" x="237.88" y="474.4" width="126.43" height="7.09" transform="translate(2.09 -1.31) rotate(.25)"/></g><g id="columns_either_side_of_doors"><g id="column-5"><rect class="cls-12" x="185.19" y="332.79" width="37.95" height="176.26"/><rect class="cls-35" x="182.72" y="332.18" width="40.97" height="5.84"/></g><g id="column-6"><rect class="cls-12" x="377.92" y="332.44" width="37.95" height="175.73"/><rect class="cls-35" x="377.22" y="331.84" width="40.97" height="5.84"/></g><g><line class="cls-6" x1="185.68" y1="342.42" x2="223.05" y2="342.42"/><line class="cls-6" x1="185.68" y1="348.49" x2="223.05" y2="348.49"/><line class="cls-6" x1="185.68" y1="354.56" x2="223.05" y2="354.56"/><line class="cls-6" x1="185.68" y1="360.63" x2="223.05" y2="360.63"/><line class="cls-6" x1="185.68" y1="366.7" x2="223.05" y2="366.7"/><line class="cls-6" x1="185.68" y1="372.77" x2="223.05" y2="372.77"/><line class="cls-6" x1="185.68" y1="378.84" x2="223.05" y2="378.84"/><line class="cls-6" x1="185.68" y1="384.91" x2="223.05" y2="384.91"/><line class="cls-6" x1="185.68" y1="390.98" x2="223.05" y2="390.98"/><line class="cls-6" x1="185.68" y1="397.05" x2="223.05" y2="397.05"/><line class="cls-6" x1="185.68" y1="403.12" x2="223.05" y2="403.12"/><line class="cls-6" x1="185.68" y1="409.19" x2="223.05" y2="409.19"/><line class="cls-6" x1="185.68" y1="415.25" x2="223.05" y2="415.25"/><line class="cls-6" x1="185.68" y1="421.32" x2="223.05" y2="421.32"/><line class="cls-6" x1="185.68" y1="427.39" x2="223.05" y2="427.39"/><line class="cls-6" x1="185.68" y1="433.46" x2="223.05" y2="433.46"/><line class="cls-6" x1="185.68" y1="439.53" x2="223.05" y2="439.53"/><line class="cls-6" x1="185.68" y1="445.6" x2="223.05" y2="445.6"/><line class="cls-6" x1="185.68" y1="451.67" x2="223.05" y2="451.67"/><line class="cls-6" x1="185.68" y1="457.74" x2="223.05" y2="457.74"/><line class="cls-6" x1="185.68" y1="463.81" x2="223.05" y2="463.81"/><line class="cls-6" x1="185.68" y1="469.88" x2="223.05" y2="469.88"/><line class="cls-6" x1="185.68" y1="475.95" x2="223.05" y2="475.95"/><line class="cls-6" x1="185.68" y1="482.02" x2="223.05" y2="482.02"/><line class="cls-6" x1="185.68" y1="488.09" x2="223.05" y2="488.09"/><line class="cls-6" x1="185.68" y1="494.16" x2="223.05" y2="494.16"/><line class="cls-6" x1="185.68" y1="500.23" x2="223.05" y2="500.23"/></g><g><line class="cls-6" x1="378.62" y1="342.42" x2="415.99" y2="342.42"/><line class="cls-6" x1="378.62" y1="348.49" x2="415.99" y2="348.49"/><line class="cls-6" x1="378.62" y1="354.56" x2="415.99" y2="354.56"/><line class="cls-6" x1="378.62" y1="360.63" x2="415.99" y2="360.63"/><line class="cls-6" x1="378.62" y1="366.7" x2="415.99" y2="366.7"/><line class="cls-6" x1="378.62" y1="372.77" x2="415.99" y2="372.77"/><line class="cls-6" x1="378.62" y1="378.84" x2="415.99" y2="378.84"/><line class="cls-6" x1="378.62" y1="384.91" x2="415.99" y2="384.91"/><line class="cls-6" x1="378.62" y1="390.98" x2="415.99" y2="390.98"/><line class="cls-6" x1="378.62" y1="397.05" x2="415.99" y2="397.05"/><line class="cls-6" x1="378.62" y1="403.12" x2="415.99" y2="403.12"/><line class="cls-6" x1="378.62" y1="409.19" x2="415.99" y2="409.19"/><line class="cls-6" x1="378.62" y1="415.25" x2="415.99" y2="415.25"/><line class="cls-6" x1="378.62" y1="421.32" x2="415.99" y2="421.32"/><line class="cls-6" x1="378.62" y1="427.39" x2="415.99" y2="427.39"/><line class="cls-6" x1="378.62" y1="433.46" x2="415.99" y2="433.46"/><line class="cls-6" x1="378.62" y1="439.53" x2="415.99" y2="439.53"/><line class="cls-6" x1="378.62" y1="445.6" x2="415.99" y2="445.6"/><line class="cls-6" x1="378.62" y1="451.67" x2="415.99" y2="451.67"/><line class="cls-6" x1="378.62" y1="457.74" x2="415.99" y2="457.74"/><line class="cls-6" x1="378.62" y1="463.81" x2="415.99" y2="463.81"/><line class="cls-6" x1="378.62" y1="469.88" x2="415.99" y2="469.88"/><line class="cls-6" x1="378.62" y1="475.95" x2="415.99" y2="475.95"/><line class="cls-6" x1="378.62" y1="482.02" x2="415.99" y2="482.02"/><line class="cls-6" x1="378.62" y1="488.09" x2="415.99" y2="488.09"/><line class="cls-6" x1="378.62" y1="494.16" x2="415.99" y2="494.16"/><line class="cls-6" x1="378.62" y1="500.23" x2="415.99" y2="500.23"/></g></g><g id="columns_where_the_windows_are"><g id="columns-2"><g id="column-7"><polygon class="cls-46" points="263.8 388.66 262.96 389.8 263.03 392.78 273.59 392.88 273.61 390.03 272.34 388.83 272 358.42 264.55 358.57 263.8 388.66"/><path class="cls-34" d="M272.24,356.8v-.04s-7.54-.06-7.54-.06v.03c-.97,.12-1.44,1.48-1.24,2.26,.19,.72,1.2,1.59,2.07,1.58s1.3-.96,1.3-1.71c0-.03-.01-.07-.01-.1h3.47c-.01,.06-.03,.12-.03,.18,0,.74,.44,1.7,1.31,1.7s1.87-.88,2.06-1.59c.21-.81-.32-2.26-1.39-2.26Z"/></g><g id="column-8"><polygon class="cls-46" points="230.66 388.53 229.82 389.67 229.89 392.65 240.45 392.75 240.47 389.9 239.19 388.7 238.86 358.3 231.41 358.45 230.66 388.53"/><path class="cls-34" d="M239.1,356.68v-.04s-7.54-.06-7.54-.06v.03c-.97,.12-1.44,1.48-1.24,2.26,.19,.72,1.2,1.59,2.07,1.58s1.3-.96,1.3-1.71c0-.03-.01-.07-.01-.1h3.47c-.01,.06-.03,.12-.03,.18,0,.74,.44,1.7,1.31,1.7s1.87-.88,2.06-1.59c.21-.81-.32-2.26-1.39-2.26Z"/></g><g id="column-9"><polygon class="cls-46" points="296.09 388.54 295.25 389.68 295.33 392.66 305.88 392.76 305.9 389.91 304.63 388.71 304.29 358.31 296.84 358.46 296.09 388.54"/><path class="cls-34" d="M304.54,356.69v-.04s-7.54-.06-7.54-.06v.03c-.97,.12-1.44,1.48-1.24,2.26,.19,.72,1.2,1.59,2.07,1.58s1.3-.96,1.3-1.71c0-.03-.01-.07-.01-.1h3.47c-.01,.06-.03,.12-.03,.18,0,.74,.44,1.7,1.31,1.7s1.87-.88,2.06-1.59c.21-.81-.32-2.26-1.39-2.26Z"/></g><g id="column-10"><polygon class="cls-46" points="328.99 388.52 328.16 389.65 328.23 392.64 338.78 392.74 338.81 389.88 337.53 388.69 337.2 358.28 329.75 358.43 328.99 388.52"/><path class="cls-34" d="M337.44,356.66v-.04s-7.54-.06-7.54-.06v.03c-.97,.12-1.44,1.48-1.24,2.26,.19,.72,1.2,1.59,2.07,1.58s1.3-.96,1.3-1.71c0-.03-.01-.07-.01-.1h3.47c-.01,.06-.03,.12-.03,.18,0,.74,.44,1.7,1.31,1.7s1.87-.88,2.06-1.59c.21-.81-.32-2.26-1.39-2.26Z"/></g><g id="column-11"><polygon class="cls-46" points="361.28 388.49 360.44 389.63 360.51 392.61 371.06 392.71 371.09 389.86 369.81 388.66 369.48 358.25 362.03 358.4 361.28 388.49"/><path class="cls-34" d="M369.72,356.64v-.04s-7.54-.06-7.54-.06v.03c-.97,.12-1.44,1.48-1.24,2.26,.19,.72,1.2,1.59,2.07,1.58s1.3-.96,1.3-1.71c0-.03-.01-.07-.01-.1h3.47c-.01,.06-.03,.12-.03,.18,0,.74,.44,1.7,1.31,1.7s1.87-.88,2.06-1.59c.21-.81-.32-2.26-1.39-2.26Z"/></g></g><g id="windows"><g id="window-5"><rect class="cls-28" x="276.31" y="360.19" width="16.73" height="23.75" transform="translate(-1.04 .8) rotate(-.16)"/><path class="cls-29" d="M275.93,359.87l.07,24.89,17.24-.05-.07-24.89-17.24,.05Zm16.56,1.3l.02,6.44-15.86,.04-.02-6.44,15.86-.04Zm-15.8,21.37l-.03-11.47,7.16-.02,.06,11.63h1.54s-.06-11.63-.06-11.63l7.16-.02,.03,11.47-15.86,.04Z"/></g><g id="window-6"><rect class="cls-28" x="308.72" y="360.1" width="16.73" height="23.75" transform="translate(-1.04 .89) rotate(-.16)"/><path class="cls-29" d="M308.34,359.78l.07,24.89,17.24-.05-.07-24.89-17.24,.05Zm16.56,1.3l.02,6.44-15.86,.04-.02-6.44,15.86-.04Zm-15.8,21.37l-.03-11.47,7.16-.02,.06,11.63h1.54s-.06-11.63-.06-11.63l7.16-.02,.03,11.47-15.86,.04Z"/></g><g id="window-7"><rect class="cls-28" x="341.03" y="360.56" width="16.73" height="23.75" transform="translate(-1.04 .98) rotate(-.16)"/><path class="cls-29" d="M340.65,360.24l.07,24.89,17.24-.05-.07-24.89-17.24,.05Zm16.56,1.3l.02,6.44-15.86,.04-.02-6.44,15.86-.04Zm-15.8,21.37l-.03-11.47,7.16-.02,.06,11.63h1.54s-.06-11.63-.06-11.63l7.16-.02,.03,11.47-15.86,.04Z"/></g><g id="window-8"><rect class="cls-28" x="243.63" y="360.28" width="16.73" height="23.75" transform="translate(-1.04 .7) rotate(-.16)"/><path class="cls-29" d="M243.25,359.96l.07,24.89,17.24-.05-.07-24.89-17.24,.05Zm16.56,1.3l.02,6.44-15.86,.04-.02-6.44,15.86-.04Zm-15.8,21.37l-.03-11.47,7.16-.02,.06,11.63h1.54s-.06-11.63-.06-11.63l7.16-.02,.03,11.47-15.86,.04Z"/></g></g><rect class="cls-25" x="222.57" y="392.63" width="155.71" height="2.93"/></g><g id="small_towers"><g id="smaller_tower"><polygon class="cls-19" points="263.03 303.5 247.2 308.15 248.1 277.71 263.68 275.75 263.03 303.5"/><circle class="cls-19" cx="256.5" cy="270.46" r="7.81"/><polygon class="cls-30" points="248.1 277.71 248.04 275.59 263.75 273.55 263.68 275.75 248.1 277.71"/><polygon class="cls-35" points="263.68 275.75 265.27 277.85 265.13 298.24 263.17 298.01 263.68 275.75"/><polygon class="cls-50" points="263.75 273.55 265.34 275.24 265.27 277.85 263.68 275.75 263.75 273.55"/></g><g id="smaller_tower-2"><polygon class="cls-19" points="336.94 303.5 352.77 308.15 351.87 277.71 336.29 275.75 336.94 303.5"/><circle class="cls-19" cx="343.48" cy="270.46" r="7.81"/><polygon class="cls-30" points="351.87 277.71 351.94 275.59 336.23 273.55 336.29 275.75 351.87 277.71"/><polygon class="cls-35" points="336.29 275.75 334.71 277.85 334.85 298.24 336.8 298.01 336.29 275.75"/><polygon class="cls-50" points="336.23 273.55 334.64 275.24 334.71 277.85 336.29 275.75 336.23 273.55"/></g></g><g id="triangle_roof_above_door"><polygon class="cls-19" points="300.56 281.54 184.83 332.73 416.29 332.73 300.56 281.54"/><polygon class="cls-35" points="300.34 288.33 199.37 332.82 401.3 332.82 300.34 288.33"/><polyline class="cls-4" points="416.19 333.19 300.47 282 184.74 333.19"/><g id="flagstones"><rect class="cls-19" x="185" y="332.92" width="7.45" height="4.1"/><rect class="cls-19" x="198.14" y="332.92" width="7.45" height="4.1"/><rect class="cls-19" x="211.29" y="332.92" width="7.45" height="4.1"/><rect class="cls-19" x="224.44" y="332.92" width="7.45" height="4.1"/><rect class="cls-19" x="237.58" y="332.92" width="7.45" height="4.1"/><rect class="cls-19" x="250.73" y="332.92" width="7.45" height="4.1"/><rect class="cls-19" x="263.88" y="332.92" width="7.45" height="4.1"/><rect class="cls-19" x="277.02" y="332.92" width="7.45" height="4.1"/><rect class="cls-19" x="290.17" y="332.92" width="7.45" height="4.1"/><rect class="cls-19" x="316.46" y="332.92" width="7.45" height="4.1"/><rect class="cls-19" x="329.61" y="332.92" width="7.45" height="4.1"/><rect class="cls-19" x="342.75" y="332.92" width="7.45" height="4.1"/><rect class="cls-19" x="355.9" y="332.92" width="7.45" height="4.1"/><rect class="cls-19" x="369.04" y="332.92" width="7.45" height="4.1"/><rect class="cls-19" x="382.19" y="332.92" width="7.45" height="4.1"/><rect class="cls-19" x="395.34" y="332.92" width="7.45" height="4.1"/><rect class="cls-19" x="303.31" y="332.92" width="7.45" height="4.1"/><rect class="cls-19" x="408.48" y="332.92" width="7.45" height="4.1"/></g><g id="upper_flagstones"><rect class="cls-19" x="283.49" y="294.1" width="7.45" height="3.32" transform="translate(-93.94 138.65) rotate(-23.44)"/><rect class="cls-19" x="270.98" y="299.65" width="7.45" height="3.32" transform="translate(-97.18 134.13) rotate(-23.44)"/><rect class="cls-19" x="257.98" y="305.46" width="7.45" height="3.32" transform="translate(-100.56 129.43) rotate(-23.44)"/><rect class="cls-19" x="244.48" y="311.42" width="7.45" height="3.32" transform="translate(-104.05 124.56) rotate(-23.44)"/><rect class="cls-19" x="231.58" y="316.91" width="7.45" height="3.32" transform="translate(-107.3 119.88) rotate(-23.44)"/><rect class="cls-19" x="217.89" y="322.92" width="7.45" height="3.32" transform="translate(-110.82 114.93) rotate(-23.44)"/><path class="cls-19" d="M300.32,288.05c-1.37,.71-2.35,1.17-3.58,1.78v3.2l3.65-1.4,3.8,1.4v-3.07l-3.87-1.9Z"/><rect class="cls-19" x="310.18" y="294.32" width="7.45" height="3.32" transform="translate(484.18 692.4) rotate(-156.56)"/><rect class="cls-19" x="322.69" y="299.88" width="7.45" height="3.32" transform="translate(505.95 708.03) rotate(-156.56)"/><rect class="cls-19" x="335.69" y="305.68" width="7.45" height="3.32" transform="translate(528.58 724.33) rotate(-156.56)"/><rect class="cls-19" x="349.19" y="311.64" width="7.45" height="3.32" transform="translate(552.1 741.13) rotate(-156.56)"/><rect class="cls-19" x="362.09" y="317.13" width="7.45" height="3.32" transform="translate(574.65 756.79) rotate(-156.56)"/><rect class="cls-19" x="375.78" y="323.14" width="7.45" height="3.32" transform="translate(598.5 773.75) rotate(-156.56)"/></g><rect class="cls-19" x="185.19" y="332.79" width="230.75" height="1.44"/></g><g id="big_clock"><circle class="cls-22" cx="300.56" cy="330.69" r="17.23"/><circle class="cls-35" cx="300.56" cy="330.81" r="16.06"/><circle class="cls-38" cx="300.56" cy="330.69" r="13.08"/><circle class="cls-11" cx="300.45" cy="330.8" r="9.74"/><polyline class="cls-11" points="300.03 324.54 300.03 332.61 304.87 330.5"/></g><g id="base_of_building"><rect class="cls-36" x="183.08" y="503.41" width="52.71" height="51.19" transform="translate(-1.48 .59) rotate(-.16)"/><rect class="cls-36" x="363.05" y="503.03" width="55.14" height="54.92" transform="translate(-1.48 1.09) rotate(-.16)"/></g><g id="bigger_towers"><g id="tower_thing"><path class="cls-19" d="M219.45,291.39c0-6.17-6-11.11-13.54-11.11s-13.47,4.87-13.63,10.92h-.02v23.75h27.19v-22.14c-.01-.46,0-.96,0-1.41Z"/><circle class="cls-33" cx="204.68" cy="308.4" r="5.46"/><path class="cls-30" d="M192.26,293.47s11.45-6.82,27.19,.72v3.72s-14.67-7.08-27.24-.56l.05-3.89Z"/></g><g id="tower_thing-2"><path class="cls-19" d="M380.69,291.39c0-6.17,6-11.11,13.54-11.11s13.47,4.87,13.63,10.92h.02v23.75h-27.19v-22.14c.01-.46,0-.96,0-1.41Z"/><circle class="cls-33" cx="395.46" cy="308.4" r="5.46"/><path class="cls-30" d="M407.88,293.47s-11.45-6.82-27.19,.72v3.72s14.67-7.08,27.24-.56l-.05-3.89Z"/></g></g></g></g></g><polygon class="cls-13" points="57.3 156.77 57.3 437.02 300 577.15 542.7 437.02 542.7 156.77 300 16.64 57.3 156.77"/></g><text class="cls-55" transform="translate(348.31 190.42)"><tspan x="0" y="0">Melbourne</tspan></text><text class="cls-10" transform="translate(130.08 162.98)"><tspan x="0" y="0">BioC Asia 2022</tspan></text></svg>