<?xml version="1.0" encoding="UTF-8" standalone="no"?>
<!-- Created with Inkscape (http://www.inkscape.org/) -->

<svg
   id="svg2"
   version="1.1"
   inkscape:version="1.1 (c4e8f9e, 2021-05-24)"
   xml:space="preserve"
   width="155.7"
   height="182.5"
   viewBox="0 0 155.7 182.5"
   sodipodi:docname="DifferentialRegulation 2.svg"
   inkscape:export-filename="/Users/simone/Desktop/R packages/DifferentialRegulation R package/DifferentialRegulation sticker/DifferentialRegulation/DifferentialRegulation 2.png"
   inkscape:export-xdpi="300"
   inkscape:export-ydpi="300"
   xmlns:inkscape="http://www.inkscape.org/namespaces/inkscape"
   xmlns:sodipodi="http://sodipodi.sourceforge.net/DTD/sodipodi-0.dtd"
   xmlns="http://www.w3.org/2000/svg"
   xmlns:svg="http://www.w3.org/2000/svg"
   xmlns:rdf="http://www.w3.org/1999/02/22-rdf-syntax-ns#"
   xmlns:cc="http://creativecommons.org/ns#"
   xmlns:dc="http://purl.org/dc/elements/1.1/"><metadata
     id="metadata8"><rdf:RDF><cc:Work
         rdf:about=""><dc:format>image/svg+xml</dc:format><dc:type
           rdf:resource="http://purl.org/dc/dcmitype/StillImage" /></cc:Work></rdf:RDF></metadata><defs
     id="defs6"><marker
       style="overflow:visible"
       id="Tail"
       refX="0.0"
       refY="0.0"
       orient="auto"
       inkscape:stockid="Tail"
       inkscape:isstock="true"><g
         transform="scale(-1.2)"
         id="g3420"><path
           style="fill:none;fill-rule:evenodd;stroke:context-stroke;stroke-width:0.8;stroke-linecap:round"
           d="M -3.8048674,-3.9585227 L 0.54352094,0"
           id="path3408" /><path
           style="fill:none;fill-rule:evenodd;stroke:context-stroke;stroke-width:0.8;stroke-linecap:round"
           d="M -1.2866832,-3.9585227 L 3.0617053,0"
           id="path3410" /><path
           style="fill:none;fill-rule:evenodd;stroke:context-stroke;stroke-width:0.8;stroke-linecap:round"
           d="M 1.3053582,-3.9585227 L 5.6537466,0"
           id="path3412" /><path
           style="fill:none;fill-rule:evenodd;stroke:context-stroke;stroke-width:0.8;stroke-linecap:round"
           d="M -3.8048674,4.1775838 L 0.54352094,0.21974226"
           id="path3414" /><path
           style="fill:none;fill-rule:evenodd;stroke:context-stroke;stroke-width:0.8;stroke-linecap:round"
           d="M -1.2866832,4.1775838 L 3.0617053,0.21974226"
           id="path3416" /><path
           style="fill:none;fill-rule:evenodd;stroke:context-stroke;stroke-width:0.8;stroke-linecap:round"
           d="M 1.3053582,4.1775838 L 5.6537466,0.21974226"
           id="path3418" /></g></marker><marker
       style="overflow:visible"
       id="Arrow2Mstart"
       refX="0.0"
       refY="0.0"
       orient="auto"
       inkscape:stockid="Arrow2Mstart"
       inkscape:isstock="true"><path
         transform="scale(0.6) translate(0,0)"
         d="M 8.7185878,4.0337352 L -2.2072895,0.016013256 L 8.7185884,-4.0017078 C 6.9730900,-1.6296469 6.9831476,1.6157441 8.7185878,4.0337352 z "
         style="fill-rule:evenodd;fill:context-stroke;stroke-width:0.62500000;stroke-linejoin:round"
         id="path3396" /></marker><marker
       style="overflow:visible"
       id="Arrow1Mstart"
       refX="0.0"
       refY="0.0"
       orient="auto"
       inkscape:stockid="Arrow1Mstart"
       inkscape:isstock="true"><path
         transform="scale(0.4) translate(10,0)"
         style="fill-rule:evenodd;fill:context-stroke;stroke:context-stroke;stroke-width:1.0pt"
         d="M 0.0,0.0 L 5.0,-5.0 L -12.5,0.0 L 5.0,5.0 L 0.0,0.0 z "
         id="path3378" /></marker><marker
       style="overflow:visible"
       id="TriangleInL"
       refX="0.0"
       refY="0.0"
       orient="auto"
       inkscape:stockid="TriangleInL"
       inkscape:isstock="true"><path
         transform="scale(-0.8)"
         style="fill-rule:evenodd;fill:context-stroke;stroke:context-stroke;stroke-width:1.0pt"
         d="M 5.77,0.0 L -2.88,5.0 L -2.88,-5.0 L 5.77,0.0 z "
         id="path3505" /></marker><marker
       style="overflow:visible;"
       id="Arrow1Lend"
       refX="0.0"
       refY="0.0"
       orient="auto"
       inkscape:stockid="Arrow1Lend"
       inkscape:isstock="true"><path
         transform="scale(0.8) rotate(180) translate(12.5,0)"
         style="fill-rule:evenodd;fill:context-stroke;stroke:context-stroke;stroke-width:1.0pt;"
         d="M 0.0,0.0 L 5.0,-5.0 L -12.5,0.0 L 5.0,5.0 L 0.0,0.0 z "
         id="path18917" /></marker><marker
       style="overflow:visible"
       id="Arrow1Lstart"
       refX="0.0"
       refY="0.0"
       orient="auto"
       inkscape:stockid="Arrow1Lstart"
       inkscape:isstock="true"><path
         transform="scale(0.8) translate(12.5,0)"
         style="fill-rule:evenodd;fill:context-stroke;stroke:context-stroke;stroke-width:1.0pt"
         d="M 0.0,0.0 L 5.0,-5.0 L -12.5,0.0 L 5.0,5.0 L 0.0,0.0 z "
         id="path18914" /></marker><linearGradient
       id="linearGradient6042"
       inkscape:swatch="solid"><stop
         style="stop-color:#006496;stop-opacity:1;"
         offset="0"
         id="stop6040" /></linearGradient><linearGradient
       id="linearGradient6036"
       inkscape:swatch="solid"><stop
         style="stop-color:#006496;stop-opacity:1;"
         offset="0"
         id="stop6034" /></linearGradient><linearGradient
       id="linearGradient6091"
       inkscape:swatch="solid"><stop
         style="stop-color:#007d96;stop-opacity:1;"
         offset="0"
         id="stop6089" /></linearGradient><clipPath
       clipPathUnits="userSpaceOnUse"
       id="clipPath16"><path
         d="m 2.422,38.688 0,68.945 59.858,34.478 59.859,-34.478 0,-68.945 L 62.28,4.211 2.422,38.688 Z"
         id="path18"
         inkscape:connector-curvature="0" /></clipPath><radialGradient
       fx="0"
       fy="0"
       cx="0"
       cy="0"
       r="1"
       gradientUnits="userSpaceOnUse"
       gradientTransform="matrix(64.567177,0,0,-64.564835,65.073593,36.61673)"
       spreadMethod="pad"
       id="radialGradient24"><stop
         style="stop-opacity:1;stop-color:#cf8484"
         offset="0"
         id="stop26" /><stop
         style="stop-opacity:1;stop-color:#b02626"
         offset="1"
         id="stop28" /></radialGradient><clipPath
       clipPathUnits="userSpaceOnUse"
       id="clipPath44"><path
         d="m 0,146 124.56,0 0,-146 L 0,0 0,146 Z"
         id="path46"
         inkscape:connector-curvature="0" /></clipPath><clipPath
       clipPathUnits="userSpaceOnUse"
       id="clipPath196"><path
         d="m 79.288,86.078 c -1.013,0 -1.843,-0.83 -1.843,-1.843 l 0,0 c 0,-1.015 0.83,-1.844 1.843,-1.844 l 0,0 10.058,0 c 1.013,0 1.843,0.829 1.843,1.844 l 0,0 c 0,1.013 -0.83,1.843 -1.843,1.843 l 0,0 -10.058,0 z m -15.365,0 c -1.014,0 -1.844,-0.83 -1.844,-1.843 l 0,0 c 0,-1.015 0.83,-1.844 1.844,-1.844 l 0,0 8.964,0 c 1.015,0 1.845,0.829 1.845,1.844 l 0,0 c 0,1.013 -0.83,1.843 -1.845,1.843 l 0,0 -8.964,0 z m -17.551,0 c -1.014,0 -1.843,-0.83 -1.843,-1.843 l 0,0 c 0,-1.015 0.829,-1.844 1.843,-1.844 l 0,0 10.058,0 c 1.013,0 1.843,0.829 1.843,1.844 l 0,0 c 0,1.013 -0.83,1.843 -1.843,1.843 l 0,0 -10.058,0 z m -11.081,0 c -1.014,0 -1.844,-0.83 -1.844,-1.843 l 0,0 c 0,-1.015 0.83,-1.844 1.844,-1.844 l 0,0 4.681,0 c 1.014,0 1.844,0.829 1.844,1.844 l 0,0 c 0,1.013 -0.83,1.843 -1.844,1.843 l 0,0 -4.681,0 z m 42.971,-6.399 c -0.45,0 -0.817,-0.368 -0.817,-0.817 l 0,0 c 0,-0.449 0.367,-0.818 0.817,-0.818 l 0,0 11.987,0 c 0.45,0 0.817,0.369 0.817,0.818 l 0,0 c 0,0.449 -0.367,0.817 -0.817,0.817 l 0,0 -11.987,0 z m -15.038,0 c -0.449,0 -0.817,-0.368 -0.817,-0.817 l 0,0 c 0,-0.449 0.368,-0.818 0.817,-0.818 l 0,0 10.581,0 c 0.449,0 0.817,0.369 0.817,0.818 l 0,0 c 0,0.449 -0.368,0.817 -0.817,0.817 l 0,0 -10.581,0 z m -12.654,0 c -0.449,0 -0.817,-0.368 -0.817,-0.817 l 0,0 c 0,-0.449 0.368,-0.818 0.817,-0.818 l 0,0 6.836,0 c 0.449,0 0.817,0.369 0.817,0.818 l 0,0 c 0,0.449 -0.368,0.817 -0.817,0.817 l 0,0 -6.836,0 z m -16.382,0 c -0.449,0 -0.817,-0.368 -0.817,-0.817 l 0,0 c 0,-0.449 0.368,-0.818 0.817,-0.818 l 0,0 6.836,0 c 0.449,0 0.817,0.369 0.817,0.818 l 0,0 c 0,0.449 -0.368,0.817 -0.817,0.817 l 0,0 -6.836,0 z m 44.074,-3.12 c -0.45,0 -0.817,-0.367 -0.817,-0.817 l 0,0 c 0,-0.449 0.367,-0.817 0.817,-0.817 l 0,0 11.987,0 c 0.45,0 0.817,0.368 0.817,0.817 l 0,0 c 0,0.45 -0.367,0.817 -0.817,0.817 l 0,0 -11.987,0 z m -15.038,0 c -0.449,0 -0.817,-0.367 -0.817,-0.817 l 0,0 c 0,-0.449 0.368,-0.817 0.817,-0.817 l 0,0 10.581,0 c 0.449,0 0.817,0.368 0.817,0.817 l 0,0 c 0,0.45 -0.368,0.817 -0.817,0.817 l 0,0 -10.581,0 z m -17.878,0 c -0.45,0 -0.817,-0.367 -0.817,-0.817 l 0,0 c 0,-0.449 0.367,-0.817 0.817,-0.817 l 0,0 12.06,0 c 0.449,0 0.817,0.368 0.817,0.817 l 0,0 c 0,0.45 -0.368,0.817 -0.817,0.817 l 0,0 -12.06,0 z m -11.158,0 c -0.449,0 -0.817,-0.367 -0.817,-0.817 l 0,0 c 0,-0.449 0.368,-0.817 0.817,-0.817 l 0,0 6.836,0 c 0.449,0 0.817,0.368 0.817,0.817 l 0,0 c 0,0.45 -0.368,0.817 -0.817,0.817 l 0,0 -6.836,0 z m 44.074,-3.118 c -0.45,0 -0.817,-0.368 -0.817,-0.817 l 0,0 c 0,-0.45 0.367,-0.817 0.817,-0.817 l 0,0 11.987,0 c 0.45,0 0.817,0.367 0.817,0.817 l 0,0 c 0,0.449 -0.367,0.817 -0.817,0.817 l 0,0 -11.987,0 z m -15.038,0 c -0.449,0 -0.817,-0.368 -0.817,-0.817 l 0,0 c 0,-0.45 0.368,-0.817 0.817,-0.817 l 0,0 10.581,0 c 0.449,0 0.817,0.367 0.817,0.817 l 0,0 c 0,0.449 -0.368,0.817 -0.817,0.817 l 0,0 -10.581,0 z m -6.352,0 c -0.45,0 -0.817,-0.368 -0.817,-0.817 l 0,0 c 0,-0.45 0.367,-0.817 0.817,-0.817 l 0,0 0.534,0 c 0.449,0 0.817,0.367 0.817,0.817 l 0,0 c 0,0.449 -0.368,0.817 -0.817,0.817 l 0,0 -0.534,0 z m -22.684,0 c -0.449,0 -0.817,-0.368 -0.817,-0.817 l 0,0 c 0,-0.45 0.368,-0.817 0.817,-0.817 l 0,0 6.836,0 c 0.449,0 0.817,0.367 0.817,0.817 l 0,0 c 0,0.449 -0.368,0.817 -0.817,0.817 l 0,0 -6.836,0 z m 44.074,-3.119 c -0.45,0 -0.817,-0.368 -0.817,-0.818 l 0,0 c 0,-0.449 0.367,-0.817 0.817,-0.817 l 0,0 11.987,0 c 0.45,0 0.817,0.368 0.817,0.817 l 0,0 c 0,0.45 -0.367,0.818 -0.817,0.818 l 0,0 -11.987,0 z m -10.878,0 c -0.449,0 -0.817,-0.368 -0.817,-0.818 l 0,0 c 0,-0.449 0.368,-0.817 0.817,-0.817 l 0,0 6.421,0 c 0.449,0 0.817,0.368 0.817,0.817 l 0,0 c 0,0.45 -0.368,0.818 -0.817,0.818 l 0,0 -6.421,0 z m -12.68,0 c -0.45,0 -0.817,-0.368 -0.817,-0.818 l 0,0 c 0,-0.449 0.367,-0.817 0.817,-0.817 l 0,0 2.702,0 c 0.449,0 0.817,0.368 0.817,0.817 l 0,0 c 0,0.45 -0.368,0.818 -0.817,0.818 l 0,0 -2.702,0 z m -20.516,0 c -0.449,0 -0.817,-0.368 -0.817,-0.818 l 0,0 c 0,-0.449 0.368,-0.817 0.817,-0.817 l 0,0 6.836,0 c 0.449,0 0.817,0.368 0.817,0.817 l 0,0 c 0,0.45 -0.368,0.818 -0.817,0.818 l 0,0 -6.836,0 z m 44.197,-3.119 c -0.45,0 -0.818,-0.368 -0.818,-0.817 l 0,0 c 0,-0.45 0.368,-0.817 0.818,-0.817 l 0,0 11.987,0 c 0.45,0 0.817,0.367 0.817,0.817 l 0,0 c 0,0.449 -0.367,0.817 -0.817,0.817 l 0,0 -11.987,0 z m -15.051,0 c -0.449,0 -0.817,-0.368 -0.817,-0.817 l 0,0 c 0,-0.45 0.368,-0.817 0.817,-0.817 l 0,0 10.58,0 c 0.449,0 0.818,0.367 0.818,0.817 l 0,0 c 0,0.449 -0.369,0.817 -0.818,0.817 l 0,0 -10.58,0 z m -11.57,0 c -0.45,0 -0.817,-0.368 -0.817,-0.817 l 0,0 c 0,-0.45 0.367,-0.817 0.817,-0.817 l 0,0 5.717,0 c 0.45,0 0.817,0.367 0.817,0.817 l 0,0 c 0,0.449 -0.367,0.817 -0.817,0.817 l 0,0 -5.717,0 z m -17.499,0 c -0.45,0 -0.818,-0.368 -0.818,-0.817 l 0,0 c 0,-0.45 0.368,-0.817 0.818,-0.817 l 0,0 6.834,0 c 0.45,0 0.818,0.367 0.818,0.817 l 0,0 c 0,0.449 -0.368,0.817 -0.818,0.817 l 0,0 -6.834,0 z m 44.12,-3.119 c -0.45,0 -0.818,-0.369 -0.818,-0.818 l 0,0 c 0,-0.449 0.368,-0.817 0.818,-0.817 l 0,0 11.987,0 c 0.45,0 0.817,0.368 0.817,0.817 l 0,0 c 0,0.449 -0.367,0.818 -0.817,0.818 l 0,0 -11.987,0 z m -12.39,0 c -0.449,0 -0.817,-0.369 -0.817,-0.818 l 0,0 c 0,-0.449 0.368,-0.817 0.817,-0.817 l 0,0 7.919,0 c 0.449,0 0.818,0.368 0.818,0.817 l 0,0 c 0,0.449 -0.369,0.818 -0.818,0.818 l 0,0 -7.919,0 z m -8.781,0 c -0.449,0 -0.817,-0.369 -0.817,-0.818 l 0,0 c 0,-0.449 0.368,-0.817 0.817,-0.817 l 0,0 0.267,0 c 0.45,0 0.817,0.368 0.817,0.817 l 0,0 c 0,0.449 -0.367,0.818 -0.817,0.818 l 0,0 -0.267,0 z m -22.949,0 c -0.45,0 -0.818,-0.369 -0.818,-0.818 l 0,0 c 0,-0.449 0.368,-0.817 0.818,-0.817 l 0,0 6.834,0 c 0.45,0 0.818,0.368 0.818,0.817 l 0,0 c 0,0.449 -0.368,0.818 -0.818,0.818 l 0,0 -6.834,0 z m 44.12,-3.119 c -0.45,0 -0.818,-0.368 -0.818,-0.818 l 0,0 c 0,-0.449 0.368,-0.817 0.818,-0.817 l 0,0 11.987,0 c 0.45,0 0.817,0.368 0.817,0.817 l 0,0 c 0,0.45 -0.367,0.818 -0.817,0.818 l 0,0 -11.987,0 z m -14.507,0 c -0.45,0 -0.818,-0.368 -0.818,-0.818 l 0,0 c 0,-0.449 0.368,-0.817 0.818,-0.817 l 0,0 10.036,0 c 0.449,0 0.818,0.368 0.818,0.817 l 0,0 c 0,0.45 -0.369,0.818 -0.818,0.818 l 0,0 -10.036,0 z m -17.064,0 c -0.449,0 -0.817,-0.368 -0.817,-0.818 l 0,0 c 0,-0.449 0.368,-0.817 0.817,-0.817 l 0,0 10.667,0 c 0.45,0 0.817,0.368 0.817,0.817 l 0,0 c 0,0.45 -0.367,0.818 -0.817,0.818 l 0,0 -10.667,0 z m -12.549,0 c -0.45,0 -0.818,-0.368 -0.818,-0.818 l 0,0 c 0,-0.449 0.368,-0.817 0.818,-0.817 l 0,0 6.834,0 c 0.45,0 0.818,0.368 0.818,0.817 l 0,0 c 0,0.45 -0.368,0.818 -0.818,0.818 l 0,0 -6.834,0 z m 44.12,-3.119 c -0.45,0 -0.818,-0.368 -0.818,-0.817 l 0,0 c 0,-0.45 0.368,-0.818 0.818,-0.818 l 0,0 11.987,0 c 0.45,0 0.817,0.368 0.817,0.818 l 0,0 c 0,0.449 -0.367,0.817 -0.817,0.817 l 0,0 -11.987,0 z m -15.051,0 c -0.449,0 -0.817,-0.368 -0.817,-0.817 l 0,0 c 0,-0.45 0.368,-0.818 0.817,-0.818 l 0,0 10.58,0 c 0.449,0 0.818,0.368 0.818,0.818 l 0,0 c 0,0.449 -0.369,0.817 -0.818,0.817 l 0,0 -10.58,0 z m -11.769,0 c -0.45,0 -0.818,-0.368 -0.818,-0.817 l 0,0 c 0,-0.45 0.368,-0.818 0.818,-0.818 l 0,0 5.916,0 c 0.45,0 0.817,0.368 0.817,0.818 l 0,0 c 0,0.449 -0.367,0.817 -0.817,0.817 l 0,0 -5.916,0 z m -17.3,0 c -0.45,0 -0.818,-0.368 -0.818,-0.817 l 0,0 c 0,-0.45 0.368,-0.818 0.818,-0.818 l 0,0 6.834,0 c 0.45,0 0.818,0.368 0.818,0.818 l 0,0 c 0,0.449 -0.368,0.817 -0.818,0.817 l 0,0 -6.834,0 z"
         id="path198"
         inkscape:connector-curvature="0" /></clipPath><clipPath
       clipPathUnits="userSpaceOnUse"
       id="clipPath204"><path
         d="m -32768,32767 65535,0 0,-65535 -65535,0 0,65535 z"
         id="path206"
         inkscape:connector-curvature="0" /></clipPath><linearGradient
       x1="0"
       y1="0"
       x2="1"
       y2="0"
       gradientUnits="userSpaceOnUse"
       gradientTransform="matrix(0,29.86697,29.86697,0,62.280125,56.211143)"
       spreadMethod="pad"
       id="linearGradient208"><stop
         style="stop-opacity:0.2;stop-color:#ffffff"
         offset="0"
         id="stop210" /><stop
         style="stop-opacity:1;stop-color:#ffffff"
         offset="1"
         id="stop212" /></linearGradient><mask
       maskUnits="userSpaceOnUse"
       x="0"
       y="0"
       width="1"
       height="1"
       id="mask214"><g
         id="g216"><g
           clip-path="url(#clipPath204)"
           id="g218"><g
             id="g220"><g
               id="g222"><path
                 d="m -32768,32767 65535,0 0,-65535 -65535,0 0,65535 z"
                 style="fill:url(#linearGradient208);stroke:none"
                 id="path224"
                 inkscape:connector-curvature="0" /></g></g></g></g></mask><linearGradient
       x1="0"
       y1="0"
       x2="1"
       y2="0"
       gradientUnits="userSpaceOnUse"
       gradientTransform="matrix(0,29.86697,29.86697,0,62.280125,56.211143)"
       spreadMethod="pad"
       id="linearGradient230"><stop
         style="stop-opacity:1;stop-color:#ffffff"
         offset="0"
         id="stop232" /><stop
         style="stop-opacity:1;stop-color:#ffffff"
         offset="1"
         id="stop234" /></linearGradient><clipPath
       clipPathUnits="userSpaceOnUse"
       id="clipPath242"><path
         d="m 0,146 124.56,0 0,-146 L 0,0 0,146 Z"
         id="path244"
         inkscape:connector-curvature="0" /></clipPath><filter
       inkscape:collect="always"
       style="color-interpolation-filters:sRGB"
       id="filter2554"
       x="-0.0038735445"
       width="1.0077471"
       y="-0.0033625489"
       height="1.0067251"><feGaussianBlur
         inkscape:collect="always"
         stdDeviation="0.20103675"
         id="feGaussianBlur2556" /></filter><clipPath
       id="clipPath6097"
       clipPathUnits="userSpaceOnUse"><path
         inkscape:connector-curvature="0"
         id="path6095"
         d="M 0,144 H 144 V 270.33 H 0 Z" /></clipPath><clipPath
       id="clipPath6209"
       clipPathUnits="userSpaceOnUse"><path
         inkscape:connector-curvature="0"
         id="path6207"
         d="M 144,144 H 288 V 270.33 H 144 Z" /></clipPath><clipPath
       id="clipPath6317"
       clipPathUnits="userSpaceOnUse"><path
         inkscape:connector-curvature="0"
         id="path6315"
         d="M 0,0 H 144 V 126.33 H 0 Z" /></clipPath><clipPath
       id="clipPath6429"
       clipPathUnits="userSpaceOnUse"><path
         inkscape:connector-curvature="0"
         id="path6427"
         d="M 144,0 H 288 V 126.33 H 144 Z" /></clipPath><clipPath
       id="clipPath6907"
       clipPathUnits="userSpaceOnUse"><path
         inkscape:connector-curvature="0"
         id="path6905"
         d="M 0,144 H 144 V 270.33 H 0 Z" /></clipPath><clipPath
       id="clipPath7019"
       clipPathUnits="userSpaceOnUse"><path
         inkscape:connector-curvature="0"
         id="path7017"
         d="M 144,144 H 288 V 270.33 H 144 Z" /></clipPath><clipPath
       id="clipPath7127"
       clipPathUnits="userSpaceOnUse"><path
         inkscape:connector-curvature="0"
         id="path7125"
         d="M 0,0 H 144 V 126.33 H 0 Z" /></clipPath><clipPath
       id="clipPath7239"
       clipPathUnits="userSpaceOnUse"><path
         inkscape:connector-curvature="0"
         id="path7237"
         d="M 144,0 H 288 V 126.33 H 144 Z" /></clipPath><clipPath
       id="clipPath8546"
       clipPathUnits="userSpaceOnUse"><path
         inkscape:connector-curvature="0"
         id="path8544"
         d="M 0,144 H 144 V 270.33 H 0 Z" /></clipPath><clipPath
       id="clipPath8658"
       clipPathUnits="userSpaceOnUse"><path
         inkscape:connector-curvature="0"
         id="path8656"
         d="M 144,144 H 288 V 270.33 H 144 Z" /></clipPath><clipPath
       id="clipPath8766"
       clipPathUnits="userSpaceOnUse"><path
         inkscape:connector-curvature="0"
         id="path8764"
         d="M 0,0 H 144 V 126.33 H 0 Z" /></clipPath><clipPath
       id="clipPath8878"
       clipPathUnits="userSpaceOnUse"><path
         inkscape:connector-curvature="0"
         id="path8876"
         d="M 144,0 H 288 V 126.33 H 144 Z" /></clipPath><clipPath
       id="clipPath9375"
       clipPathUnits="userSpaceOnUse"><path
         inkscape:connector-curvature="0"
         id="path9373"
         d="M 0,144 H 144 V 270.33 H 0 Z" /></clipPath><clipPath
       id="clipPath9487"
       clipPathUnits="userSpaceOnUse"><path
         inkscape:connector-curvature="0"
         id="path9485"
         d="M 144,144 H 288 V 270.33 H 144 Z" /></clipPath><clipPath
       id="clipPath9595"
       clipPathUnits="userSpaceOnUse"><path
         inkscape:connector-curvature="0"
         id="path9593"
         d="M 0,0 H 144 V 126.33 H 0 Z" /></clipPath><clipPath
       id="clipPath9707"
       clipPathUnits="userSpaceOnUse"><path
         inkscape:connector-curvature="0"
         id="path9705"
         d="M 144,0 H 288 V 126.33 H 144 Z" /></clipPath><clipPath
       id="clipPath10545"
       clipPathUnits="userSpaceOnUse"><path
         inkscape:connector-curvature="0"
         id="path10543"
         d="M 0,144 H 144 V 270.33 H 0 Z" /></clipPath><clipPath
       id="clipPath10657"
       clipPathUnits="userSpaceOnUse"><path
         inkscape:connector-curvature="0"
         id="path10655"
         d="M 144,144 H 288 V 270.33 H 144 Z" /></clipPath><clipPath
       id="clipPath10765"
       clipPathUnits="userSpaceOnUse"><path
         inkscape:connector-curvature="0"
         id="path10763"
         d="M 0,0 H 144 V 126.33 H 0 Z" /></clipPath><clipPath
       id="clipPath10877"
       clipPathUnits="userSpaceOnUse"><path
         inkscape:connector-curvature="0"
         id="path10875"
         d="M 144,0 H 288 V 126.33 H 144 Z" /></clipPath><clipPath
       id="clipPath402"
       clipPathUnits="userSpaceOnUse"><path
         inkscape:connector-curvature="0"
         id="path400"
         d="M 0,144 H 144 V 270.33 H 0 Z" /></clipPath><clipPath
       id="clipPath538"
       clipPathUnits="userSpaceOnUse"><path
         inkscape:connector-curvature="0"
         id="path536"
         d="M 144,144 H 288 V 270.33 H 144 Z" /></clipPath><clipPath
       id="clipPath662"
       clipPathUnits="userSpaceOnUse"><path
         inkscape:connector-curvature="0"
         id="path660"
         d="M 0,0 H 144 V 126.33 H 0 Z" /></clipPath><clipPath
       id="clipPath798"
       clipPathUnits="userSpaceOnUse"><path
         inkscape:connector-curvature="0"
         id="path796"
         d="M 144,0 H 288 V 126.33 H 144 Z" /></clipPath><clipPath
       id="clipPath1332"
       clipPathUnits="userSpaceOnUse"><path
         inkscape:connector-curvature="0"
         id="path1330"
         d="M 0,144 H 144 V 270.33 H 0 Z" /></clipPath><clipPath
       id="clipPath1452"
       clipPathUnits="userSpaceOnUse"><path
         inkscape:connector-curvature="0"
         id="path1450"
         d="M 144,144 H 288 V 270.33 H 144 Z" /></clipPath><clipPath
       id="clipPath1572"
       clipPathUnits="userSpaceOnUse"><path
         inkscape:connector-curvature="0"
         id="path1570"
         d="M 0,0 H 144 V 126.33 H 0 Z" /></clipPath><clipPath
       id="clipPath1692"
       clipPathUnits="userSpaceOnUse"><path
         inkscape:connector-curvature="0"
         id="path1690"
         d="M 144,0 H 288 V 126.33 H 144 Z" /></clipPath><clipPath
       id="clipPath2221"
       clipPathUnits="userSpaceOnUse"><path
         inkscape:connector-curvature="0"
         id="path2219"
         d="M 0,144 H 144 V 270.33 H 0 Z" /></clipPath><clipPath
       id="clipPath2341"
       clipPathUnits="userSpaceOnUse"><path
         inkscape:connector-curvature="0"
         id="path2339"
         d="M 144,144 H 288 V 270.33 H 144 Z" /></clipPath><clipPath
       id="clipPath2461"
       clipPathUnits="userSpaceOnUse"><path
         inkscape:connector-curvature="0"
         id="path2459"
         d="M 0,0 H 144 V 126.33 H 0 Z" /></clipPath><clipPath
       id="clipPath2581"
       clipPathUnits="userSpaceOnUse"><path
         inkscape:connector-curvature="0"
         id="path2579"
         d="M 144,0 H 288 V 126.33 H 144 Z" /></clipPath><clipPath
       id="clipPath3495"
       clipPathUnits="userSpaceOnUse"><path
         inkscape:connector-curvature="0"
         id="path3493"
         d="M 0,144 H 144 V 270.33 H 0 Z" /></clipPath><clipPath
       id="clipPath3615"
       clipPathUnits="userSpaceOnUse"><path
         inkscape:connector-curvature="0"
         id="path3613"
         d="M 144,144 H 288 V 270.33 H 144 Z" /></clipPath><clipPath
       id="clipPath3735"
       clipPathUnits="userSpaceOnUse"><path
         inkscape:connector-curvature="0"
         id="path3733"
         d="M 0,0 H 144 V 126.33 H 0 Z" /></clipPath><clipPath
       id="clipPath3855"
       clipPathUnits="userSpaceOnUse"><path
         inkscape:connector-curvature="0"
         id="path3853"
         d="M 144,0 H 288 V 126.33 H 144 Z" /></clipPath><clipPath
       id="clipPath4365"
       clipPathUnits="userSpaceOnUse"><path
         inkscape:connector-curvature="0"
         id="path4363"
         d="M 0,144 H 144 V 270.33 H 0 Z" /></clipPath><clipPath
       id="clipPath4501"
       clipPathUnits="userSpaceOnUse"><path
         inkscape:connector-curvature="0"
         id="path4499"
         d="M 144,144 H 288 V 270.33 H 144 Z" /></clipPath><clipPath
       id="clipPath4621"
       clipPathUnits="userSpaceOnUse"><path
         inkscape:connector-curvature="0"
         id="path4619"
         d="M 0,0 H 144 V 126.33 H 0 Z" /></clipPath><clipPath
       id="clipPath4757"
       clipPathUnits="userSpaceOnUse"><path
         inkscape:connector-curvature="0"
         id="path4755"
         d="M 144,0 H 288 V 126.33 H 144 Z" /></clipPath><filter
       inkscape:collect="always"
       style="color-interpolation-filters:sRGB"
       id="filter6561"
       x="-1.2953065"
       width="3.5906129"
       y="-1.1250704"
       height="3.2501408"><feGaussianBlur
         inkscape:collect="always"
         stdDeviation="64.40425"
         id="feGaussianBlur6563" /></filter><marker
       style="overflow:visible"
       id="Arrow1Lstart-6"
       refX="0"
       refY="0"
       orient="auto"
       inkscape:stockid="Arrow1Lstart"
       inkscape:isstock="true"><path
         transform="matrix(0.8,0,0,0.8,10,0)"
         style="fill:context-stroke;fill-rule:evenodd;stroke:context-stroke;stroke-width:1pt"
         d="M 0,0 5,-5 -12.5,0 5,5 Z"
         id="path18914-7" /></marker><marker
       style="overflow:visible"
       id="Arrow1Lstart-6-7"
       refX="0"
       refY="0"
       orient="auto"
       inkscape:stockid="Arrow1Lstart"
       inkscape:isstock="true"><path
         transform="matrix(0.8,0,0,0.8,10,0)"
         style="fill:context-stroke;fill-rule:evenodd;stroke:context-stroke;stroke-width:1pt"
         d="M 0,0 5,-5 -12.5,0 5,5 Z"
         id="path18914-7-6" /></marker><marker
       style="overflow:visible"
       id="Arrow1Lstart-6-6"
       refX="0"
       refY="0"
       orient="auto"
       inkscape:stockid="Arrow1Lstart"
       inkscape:isstock="true"><path
         transform="matrix(0.8,0,0,0.8,10,0)"
         style="fill:context-stroke;fill-rule:evenodd;stroke:context-stroke;stroke-width:1pt"
         d="M 0,0 5,-5 -12.5,0 5,5 Z"
         id="path18914-7-66" /></marker><marker
       style="overflow:visible"
       id="Arrow1Lstart-6-70"
       refX="0"
       refY="0"
       orient="auto"
       inkscape:stockid="Arrow1Lstart"
       inkscape:isstock="true"><path
         transform="matrix(0.8,0,0,0.8,10,0)"
         style="fill:context-stroke;fill-rule:evenodd;stroke:context-stroke;stroke-width:1pt"
         d="M 0,0 5,-5 -12.5,0 5,5 Z"
         id="path18914-7-4" /></marker><filter
       height="1.176"
       width="1.176"
       x="-0.088000002"
       y="-0.088000002"
       id="filter2882"><feGaussianBlur
         stdDeviation="1.1"
         id="feGaussianBlur15264" /></filter><filter
       height="1.176"
       width="1.176"
       x="-0.088000002"
       y="-0.088000002"
       id="filter4081"><feGaussianBlur
         stdDeviation="1.1"
         id="feGaussianBlur15659" /></filter><filter
       height="1.176"
       width="1.176"
       x="-0.088000002"
       y="-0.088000002"
       id="filter8047"><feGaussianBlur
         stdDeviation="1.1"
         id="feGaussianBlur19922" /></filter></defs><sodipodi:namedview
     pagecolor="#ffffff"
     bordercolor="#666666"
     borderopacity="1"
     objecttolerance="10"
     gridtolerance="10"
     guidetolerance="10"
     inkscape:pageopacity="0"
     inkscape:pageshadow="2"
     inkscape:window-width="1728"
     inkscape:window-height="1080"
     id="namedview4"
     showgrid="false"
     inkscape:zoom="3.5554577"
     inkscape:cx="71.861353"
     inkscape:cy="107.44046"
     inkscape:window-x="0"
     inkscape:window-y="37"
     inkscape:window-maximized="0"
     inkscape:current-layer="layer4"
     borderlayer="false"
     inkscape:showpageshadow="true"
     showborder="true"
     inkscape:pagecheckerboard="false"
     inkscape:snap-text-baseline="false"
     inkscape:snap-center="false" /><g
     inkscape:groupmode="layer"
     id="layer4"
     inkscape:label="Background"
     style="display:inline"><g
       transform="matrix(1.25,0,0,-1.2500123,0,185.9965)"
       clip-path="url(#clipPath16)"
       id="g14"
       style="opacity:1;fill:#00ffff;fill-opacity:0.39215699;stroke:#1ba4e8;stroke-opacity:1;filter:url(#filter6561)"
       inkscape:export-filename="/Users/simone/Desktop/R packages/DifferentialRegulation R package/DifferentialRegulation sticker/DifferentialRegulation/g14.png"
       inkscape:export-xdpi="300"
       inkscape:export-ydpi="300"><g
         id="g20"
         style="fill:#00ffff;fill-opacity:0.39215699;stroke:#1ba4e8;stroke-opacity:1"><g
           id="g22"
           style="fill:#00ffff;fill-opacity:0.39215699;stroke:#1ba4e8;stroke-opacity:1"><path
             inkscape:connector-curvature="0"
             id="path30"
             style="fill:#00ffff;fill-opacity:0.39215699;stroke:#1ba4e8;stroke-opacity:1"
             d="m 2.422,38.688 v 68.945 l 59.858,34.478 59.859,-34.478 V 38.688 L 62.28,4.211 Z" /></g></g></g></g><g
     id="g10"
     inkscape:groupmode="layer"
     inkscape:label="Border"
     transform="matrix(1.25,0,0,-1.25,0,182.5)"
     style="display:inline"><g
   id="g32"
   transform="translate(0,109.0332)"
   inkscape:export-filename="/Users/simone/Desktop/R packages/DifferentialRegulation R package/DifferentialRegulation sticker/DifferentialRegulation/DifferentialRegulation 3.png"
   inkscape:export-xdpi="300"
   inkscape:export-ydpi="300"
   style="stroke:#006496;stroke-opacity:1;fill:#37abc8;fill-opacity:1;opacity:0.9;stroke-width:0;stroke-miterlimit:4;stroke-dasharray:none"><path
     d="m 0,0 0,-71.745 62.28,-35.872 62.28,35.872 L 124.56,0 62.28,35.872 0,0 Z m 4.844,-68.945 0,66.145 57.436,33.082 57.436,-33.082 0,-66.145 -57.436,-33.082 -57.436,33.082 z"
     style="fill:#37abc8;fill-opacity:1;fill-rule:nonzero;stroke:#006496;stroke-opacity:1;filter:url(#filter2554);stroke-width:0;stroke-miterlimit:4;stroke-dasharray:none"
     id="path34"
     inkscape:connector-curvature="0" /></g><text
   xml:space="preserve"
   style="font-style:normal;font-variant:normal;font-weight:normal;font-stretch:normal;font-size:14.9333px;line-height:1.25;font-family:'Adobe Arabic';-inkscape-font-specification:'Adobe Arabic';font-variant-ligatures:normal;font-variant-caps:normal;font-variant-numeric:normal;font-feature-settings:normal;text-align:start;letter-spacing:0px;word-spacing:0px;writing-mode:lr-tb;text-anchor:start;fill:#000000;fill-opacity:1;stroke:none;stroke-width:1.20497"
   x="66.628593"
   y="-98.773491"
   id="text6154"
   transform="scale(0.93386508,-1.0708185)"><tspan
     sodipodi:role="line"
     id="tspan6152"
     x="66.628593"
     y="-98.773491"
     style="font-style:normal;font-variant:normal;font-weight:normal;font-stretch:normal;font-size:14.9333px;font-family:'Adobe Arabic';-inkscape-font-specification:'Adobe Arabic';font-variant-ligatures:normal;font-variant-caps:normal;font-variant-numeric:normal;font-feature-settings:normal;text-align:center;writing-mode:lr-tb;text-anchor:middle;fill:#000000;fill-opacity:1;stroke-width:1.20497">DifferentialRegulation</tspan></text>
<path
   style="opacity:1;fill:#00ff00;stroke:#ff0000;stroke-width:0.846929;stroke-linecap:butt;stroke-linejoin:miter;stroke-miterlimit:1;stroke-dasharray:none;stroke-opacity:1;marker-start:url(#Arrow1Lstart-6)"
   d="M 22.200337,53.933414 C 22.323833,33.14633 22.323833,33.14633 22.323833,33.14633"
   id="path1066" /><path
   style="opacity:1;fill:#d40000;stroke:#0023ff;stroke-width:1.59898;stroke-linecap:butt;stroke-linejoin:miter;stroke-miterlimit:2;stroke-dasharray:none;stroke-opacity:1;marker-end:url(#Arrow1Lend)"
   d="M 38.195035,66.247671 C 38.420041,25.573456 38.420041,25.573456 38.420041,25.573456"
   id="path3368" /><path
   style="opacity:1;fill:#00ff00;stroke:#0023ff;stroke-width:0.8472;stroke-linecap:butt;stroke-linejoin:miter;stroke-miterlimit:1;stroke-dasharray:none;stroke-opacity:1;marker-end:url(#Arrow1Lend)"
   d="m 102.20034,53.933415 c 0.12349,-20.787084 0.12349,-20.787084 0.12349,-20.787084"
   id="path20826" /><path
   style="opacity:1;fill:#d40000;stroke:#ff0000;stroke-width:1.59898;stroke-linecap:butt;stroke-linejoin:miter;stroke-miterlimit:2;stroke-dasharray:none;stroke-opacity:1;marker-start:url(#Arrow1Lstart)"
   d="M 86.195035,66.247671 C 86.420041,25.573456 86.420041,25.573456 86.420041,25.573456"
   id="path20828" /><path
   style="opacity:1;fill:#000000;stroke:#000000;stroke-width:0.8;stroke-linecap:butt;stroke-linejoin:miter;stroke-miterlimit:2;stroke-dasharray:none;stroke-opacity:1"
   d="M 62.16792,101.20696 C 62.392076,16.314435 62.392076,16.314435 62.392076,16.314435"
   id="path21693" /></g><g
     inkscape:groupmode="layer"
     id="layer3"
     inkscape:label="Bioconductor"
     style="display:inline"><g
       transform="matrix(1.25,0,0,-1.25,0,182.5)"
       id="g238"><g
         id="g240"
         clip-path="url(#clipPath242)"><text
   transform="matrix(0.86677474,0.49869985,0.49869985,-0.86677474,61.7652,8.9448)"
   style="font-variant:normal;font-weight:300;font-stretch:normal;line-height:0%;font-family:'Aller Light';-inkscape-font-specification:Aller-Light;writing-mode:lr-tb;fill:#ffffff;fill-opacity:1;fill-rule:nonzero;stroke:none"
   id="text246"><tspan
     x="0 2.7680008 5.5360017 8.1840029 8.7640028 10.884004 11.736004 13.792004 15.412405 17.468405 19.516405 21.616405 23.676407 25.356407 26.472408 28.528408 29.408409 29.988409 32.044411 33.16441 0 2.7680008 5.5360017 8.1840029 8.7640028 10.884004 11.736004 13.792004 15.412405 17.468405 19.516405 21.616405 23.676407 25.356407 26.472408 28.528408 29.408409 29.988409 32.044411 33.16441"
     y="0"
     sodipodi:role="line"
     id="tspan248"
     style="font-size:4.00000095px;line-height:1.25">www.bioconductor.orgwww.bioconductor.org</tspan></text>
</g></g></g><g
     inkscape:groupmode="layer"
     id="layer2"
     inkscape:label="Logo"
     style="display:inline" /><g
     inkscape:groupmode="layer"
     id="layer1"
     inkscape:label="Title"
     style="display:inline" /><g
     inkscape:groupmode="layer"
     inkscape:label="Chart-Layer: Spliced:70,Unspliced:30"
     id="g15306"><path
       d="m 105.0332,89.385 v 0"
       style="fill:none;stroke:#000000;stroke-width:0.1;stroke-linecap:butt"
       id="path15294" /><path
       d="m 122.6668,65.1147 v 0"
       style="fill:none;stroke:#000000;stroke-width:0.1;stroke-linecap:butt"
       id="path15300" /><circle
       cx="37.849998"
       cy="77.25"
       r="15"
       style="fill:#000000;filter:url(#filter2882)"
       id="circle16012" /><circle
       cx="37.849998"
       cy="77.25"
       r="15"
       style="fill:#f9f9f9;stroke:#ececec"
       id="circle16014" /><path
       d="m 29.0332,89.385 v 0"
       style="fill:none;stroke:#000000;stroke-width:0.1;stroke-linecap:butt"
       id="path16016" /><path
       sodipodi:type="arc"
       sodipodi:cx="37.849998"
       sodipodi:cy="77.25"
       sodipodi:rx="15"
       sodipodi:ry="15"
       sodipodi:start="0"
       sodipodi:end="4.3982288"
       style="fill:#0000ff;fill-opacity:1;stroke:none"
       id="path16018"
       sodipodi:arc-type="slice"
       d="M 52.849998,77.25 A 15,15 0 0 1 39.41793,92.167828 15,15 0 0 1 23.177786,80.368684 15,15 0 0 1 33.214731,62.984156 L 37.849998,77.25 Z" /><path
       d="m 46.6668,65.1147 v 0"
       style="fill:none;stroke:#000000;stroke-width:0.1;stroke-linecap:butt"
       id="path16020" /><path
       sodipodi:type="arc"
       sodipodi:cx="37.849998"
       sodipodi:cy="77.25"
       sodipodi:rx="15"
       sodipodi:ry="15"
       sodipodi:start="4.3982288"
       sodipodi:end="6.283184"
       style="fill:#ff0000;fill-opacity:1;stroke:none"
       id="path16022"
       sodipodi:arc-type="slice"
       d="m 33.214731,62.984156 a 15,15 0 0 1 13.452033,2.130579 15,15 0 0 1 6.183234,12.135245 l -15,2e-5 z" /></g><g
     inkscape:groupmode="layer"
     inkscape:label="Chart-Layer: Spliced:70,Unspliced:30"
     id="g15710"><path
       d="m 105.0332,89.385 v 0"
       style="fill:none;stroke:#000000;stroke-width:0.1;stroke-linecap:butt"
       id="path15698" /><path
       d="m 122.6668,65.1147 v 0"
       style="fill:none;stroke:#000000;stroke-width:0.1;stroke-linecap:butt"
       id="path15704" /><circle
       cx="37.849998"
       cy="77.25"
       r="15"
       style="fill:#000000;filter:url(#filter4081)"
       id="circle16024" /><circle
       cx="37.849998"
       cy="77.25"
       r="15"
       style="fill:#f9f9f9;stroke:#ececec"
       id="circle16026" /><path
       d="m 29.0332,89.385 v 0"
       style="fill:none;stroke:#000000;stroke-width:0.1;stroke-linecap:butt"
       id="path16028" /><text
       style="font-style:normal;font-variant:normal;font-weight:normal;font-stretch:normal;font-size:6px;font-family:sans-serif;-inkscape-font-specification:'Bitstream Charter';text-align:end;text-anchor:end;fill:#000000"
       x="27.857658"
       y="92.66996"
       id="text16030">Spliced</text><path
       sodipodi:type="arc"
       sodipodi:cx="37.849998"
       sodipodi:cy="77.25"
       sodipodi:rx="15"
       sodipodi:ry="15"
       sodipodi:start="0"
       sodipodi:end="4.3982288"
       style="fill:#0000ff;fill-opacity:1;stroke:none"
       id="path16032"
       sodipodi:arc-type="slice"
       d="M 52.849998,77.25 A 15,15 0 0 1 39.41793,92.167828 15,15 0 0 1 23.177786,80.368684 15,15 0 0 1 33.214731,62.984156 L 37.849998,77.25 Z" /><path
       d="m 46.6668,65.1147 v 0"
       style="fill:none;stroke:#000000;stroke-width:0.1;stroke-linecap:butt"
       id="path16034" /><text
       style="font-style:normal;font-variant:normal;font-weight:normal;font-stretch:normal;font-size:6px;font-family:sans-serif;-inkscape-font-specification:'Bitstream Charter';text-align:start;text-anchor:start;fill:#000000"
       x="43.842331"
       y="63.163368"
       id="text16036">Unspliced</text><path
       sodipodi:type="arc"
       sodipodi:cx="37.849998"
       sodipodi:cy="77.25"
       sodipodi:rx="15"
       sodipodi:ry="15"
       sodipodi:start="4.3982288"
       sodipodi:end="6.283184"
       style="fill:#ff0000;fill-opacity:1;stroke:none"
       id="path16038"
       sodipodi:arc-type="slice"
       d="m 33.214731,62.984156 a 15,15 0 0 1 13.452033,2.130579 15,15 0 0 1 6.183234,12.135245 l -15,2e-5 z" /></g><g
     inkscape:groupmode="layer"
     inkscape:label="Chart-Layer: Spliced:30,Unspliced:70"
     id="g19994"><circle
       cx="117.85"
       cy="77.25"
       r="15"
       style="fill:#000000;filter:url(#filter8047)"
       id="circle19978" /><circle
       cx="117.85"
       cy="77.25"
       r="15"
       style="fill:#f9f9f9;stroke:#ececec"
       id="circle19980" /><path
       d="m 126.6668,89.385 v 0"
       style="fill:none;stroke:#000000;stroke-width:0.1;stroke-linecap:butt"
       id="path19982" /><text
       style="font-style:normal;font-variant:normal;font-weight:normal;font-stretch:normal;font-size:6px;font-family:sans-serif;-inkscape-font-specification:'Bitstream Charter';text-align:start;text-anchor:start;fill:#000000"
       x="127.84235"
       y="92.669952"
       id="text19984">Spliced</text><path
       sodipodi:type="arc"
       sodipodi:cx="117.85"
       sodipodi:cy="77.25"
       sodipodi:rx="15"
       sodipodi:ry="15"
       sodipodi:start="0"
       sodipodi:end="1.8849552"
       style="fill:#0000ff;fill-opacity:1;stroke:none"
       id="path19986"
       sodipodi:arc-type="slice"
       d="m 132.85,77.25 a 15,15 0 0 1 -6.18322,12.135253 15,15 0 0 1 -13.45203,2.130597 L 117.85,77.25 Z" /><path
       d="m 109.0332,65.1148 v 0"
       style="fill:none;stroke:#000000;stroke-width:0.1;stroke-linecap:butt"
       id="path19988" /><text
       style="font-style:normal;font-variant:normal;font-weight:normal;font-stretch:normal;font-size:6px;font-family:sans-serif;-inkscape-font-specification:'Bitstream Charter';text-align:end;text-anchor:end;fill:#000000"
       x="111.85764"
       y="63.163383"
       id="text19990">Unspliced</text><path
       sodipodi:type="arc"
       sodipodi:cx="117.85"
       sodipodi:cy="77.25"
       sodipodi:rx="15"
       sodipodi:ry="15"
       sodipodi:start="1.8849552"
       sodipodi:end="6.283184"
       style="fill:#ff0000;fill-opacity:1;stroke:none"
       id="path19992"
       sodipodi:arc-type="slice"
       d="M 113.21475,91.51585 A 15,15 0 0 1 103.17778,74.131335 15,15 0 0 1 119.41791,62.33217 15,15 0 0 1 132.85,77.24998 l -15,2e-5 z" /></g></svg>
